  0
SECTION
  2
HEADER
  9
$ACADVER
  1
AC1014
  9
$ACADMAINTVER
 70
     9
  9
$DWGCODEPAGE
  3
ANSI_1252
  9
$INSBASE
 10
0.0
 20
0.0
 30
0.0
  9
$EXTMIN
 10
0.038
 20
0.019
 30
0.0
  9
$EXTMAX
 10
11.0
 20
8.481
 30
0.0
  9
$LIMMIN
 10
0.0
 20
0.0
  9
$LIMMAX
 10
12.0
 20
9.0
  9
$ORTHOMODE
 70
     0
  9
$REGENMODE
 70
     1
  9
$FILLMODE
 70
     1
  9
$QTEXTMODE
 70
     0
  9
$MIRRTEXT
 70
     1
  9
$DRAGMODE
 70
     2
  9
$LTSCALE
 40
0.5
  9
$OSMODE
 70
    23
  9
$ATTMODE
 70
     1
  9
$TEXTSIZE
 40
0.12
  9
$TRACEWID
 40
0.05
  9
$TEXTSTYLE
  7
ONSHAPE-STANDARD
  9
$CLAYER
  8
0
  9
$CELTYPE
  6
BYLAYER
  9
$CECOLOR
 62
   256
  9
$CELTSCALE
 40
1.0
  9
$DELOBJ
 70
     1
  9
$DISPSILH
 70
     0
  9
$DIMSCALE
 40
1.0
  9
$DIMASZ
 40
0.18
  9
$DIMEXO
 40
0.0625
  9
$DIMDLI
 40
0.38
  9
$DIMRND
 40
0.0
  9
$DIMDLE
 40
0.0
  9
$DIMEXE
 40
0.08
  9
$DIMTP
 40
0.0
  9
$DIMTM
 40
0.0
  9
$DIMTXT
 40
0.12
  9
$DIMCEN
 40
0.09
  9
$DIMTSZ
 40
0.0
  9
$DIMTOL
 70
     0
  9
$DIMLIM
 70
     0
  9
$DIMTIH
 70
     1
  9
$DIMTOH
 70
     1
  9
$DIMSE1
 70
     0
  9
$DIMSE2
 70
     0
  9
$DIMTAD
 70
     0
  9
$DIMZIN
 70
     7
  9
$DIMBLK
  1

  9
$DIMASO
 70
     1
  9
$DIMSHO
 70
     1
  9
$DIMPOST
  1

  9
$DIMAPOST
  1

  9
$DIMALT
 70
     1
  9
$DIMALTD
 70
     2
  9
$DIMALTF
 40
25.4
  9
$DIMLFAC
 40
16.0
  9
$DIMTOFL
 70
     0
  9
$DIMTVP
 40
0.0
  9
$DIMTIX
 70
     0
  9
$DIMSOXD
 70
     0
  9
$DIMSAH
 70
     0
  9
$DIMBLK1
  1

  9
$DIMBLK2
  1

  9
$DIMSTYLE
  2
ONSHAPE-STANDARD
  9
$DIMCLRD
 70
     7
  9
$DIMCLRE
 70
     7
  9
$DIMCLRT
 70
     7
  9
$DIMTFAC
 40
1.0
  9
$DIMGAP
 40
0.09
  9
$DIMJUST
 70
     0
  9
$DIMSD1
 70
     0
  9
$DIMSD2
 70
     0
  9
$DIMTOLJ
 70
     1
  9
$DIMTZIN
 70
     7
  9
$DIMALTZ
 70
     7
  9
$DIMALTTZ
 70
     0
  9
$DIMFIT
 70
     3
  9
$DIMUPT
 70
     1
  9
$DIMUNIT
 70
     2
  9
$DIMDEC
 70
     3
  9
$DIMTDEC
 70
     3
  9
$DIMALTU
 70
     2
  9
$DIMALTTD
 70
     2
  9
$DIMTXSTY
  7
ONSHAPE-STANDARD-DIMENSION
  9
$DIMAUNIT
 70
     0
  9
$LUNITS
 70
     2
  9
$LUPREC
 70
     4
  9
$SKETCHINC
 40
0.1
  9
$FILLETRAD
 40
0.5
  9
$AUNITS
 70
     0
  9
$AUPREC
 70
     0
  9
$MENU
  1
.
  9
$ELEVATION
 40
0.0
  9
$PELEVATION
 40
0.0
  9
$THICKNESS
 40
0.0
  9
$LIMCHECK
 70
     0
  9
$CHAMFERA
 40
0.0
  9
$CHAMFERB
 40
0.0
  9
$CHAMFERC
 40
0.0
  9
$CHAMFERD
 40
0.0
  9
$SKPOLY
 70
     0
  9
$TDCREATE
 40
2461305.055537755
  9
$TDUPDATE
 40
2461305.05553853
  9
$TDINDWG
 40
0.0
  9
$TDUSRTIMER
 40
0.0
  9
$USRTIMER
 70
     1
  9
$ANGBASE
 50
0.0
  9
$ANGDIR
 70
     0
  9
$PDMODE
 70
    33
  9
$PDSIZE
 40
0.0393700787401575
  9
$PLINEWID
 40
0.0
  9
$COORDS
 70
     1
  9
$SPLFRAME
 70
     0
  9
$SPLINETYPE
 70
     6
  9
$SPLINESEGS
 70
     8
  9
$ATTDIA
 70
     0
  9
$ATTREQ
 70
     1
  9
$HANDLING
 70
     1
  9
$HANDSEED
  5
385
  9
$SURFTAB1
 70
     6
  9
$SURFTAB2
 70
     6
  9
$SURFTYPE
 70
     6
  9
$SURFU
 70
     6
  9
$SURFV
 70
     6
  9
$UCSNAME
  2

  9
$UCSORG
 10
0.0
 20
0.0
 30
0.0
  9
$UCSXDIR
 10
1.0
 20
0.0
 30
0.0
  9
$UCSYDIR
 10
0.0
 20
1.0
 30
0.0
  9
$PUCSNAME
  2

  9
$PUCSORG
 10
0.0
 20
0.0
 30
0.0
  9
$PUCSXDIR
 10
1.0
 20
0.0
 30
0.0
  9
$PUCSYDIR
 10
0.0
 20
1.0
 30
0.0
  9
$USERI1
 70
     0
  9
$USERI2
 70
     0
  9
$USERI3
 70
     0
  9
$USERI4
 70
     0
  9
$USERI5
 70
     0
  9
$USERR1
 40
0.0
  9
$USERR2
 40
0.0
  9
$USERR3
 40
0.0
  9
$USERR4
 40
0.0
  9
$USERR5
 40
0.0
  9
$WORLDVIEW
 70
     1
  9
$SHADEDGE
 70
     3
  9
$SHADEDIF
 70
    70
  9
$TILEMODE
 70
     1
  9
$MAXACTVP
 70
    64
  9
$PINSBASE
 10
0.0
 20
0.0
 30
0.0
  9
$PLIMCHECK
 70
     0
  9
$PEXTMIN
 10
1.000000000000000E+20
 20
1.000000000000000E+20
 30
1.000000000000000E+20
  9
$PEXTMAX
 10
-1.000000000000000E+20
 20
-1.000000000000000E+20
 30
-1.000000000000000E+20
  9
$PLIMMIN
 10
0.0
 20
0.0
  9
$PLIMMAX
 10
12.0
 20
9.0
  9
$UNITMODE
 70
     0
  9
$VISRETAIN
 70
     1
  9
$PLINEGEN
 70
     0
  9
$PSLTSCALE
 70
     1
  9
$TREEDEPTH
 70
  3020
  9
$PICKSTYLE
 70
     1
  9
$CMLSTYLE
  2
STANDARD
  9
$CMLJUST
 70
     0
  9
$CMLSCALE
 40
1.0
  9
$PROXYGRAPHICS
 70
     1
  9
$MEASUREMENT
 70
     0
  0
ENDSEC
  0
SECTION
  2
CLASSES
  0
CLASS
  1
ACDBDICTIONARYWDFLT
  2
AcDbDictionaryWithDefault
  3
ObjectDBX Classes
 90
        0
280
     0
281
     0
  0
CLASS
  1
VISUALSTYLE
  2
AcDbVisualStyle
  3
ObjectDBX Classes
 90
     4095
280
     0
281
     0
  0
CLASS
  1
MATERIAL
  2
AcDbMaterial
  3
ObjectDBX Classes
 90
     1153
280
     0
281
     0
  0
CLASS
  1
SCALE
  2
AcDbScale
  3
ObjectDBX Classes
 90
     1153
280
     0
281
     0
  0
CLASS
  1
TABLESTYLE
  2
AcDbTableStyle
  3
ObjectDBX Classes
 90
     4095
280
     0
281
     0
  0
CLASS
  1
MLEADERSTYLE
  2
AcDbMLeaderStyle
  3
ACDB_MLEADERSTYLE_CLASS
 90
     4095
280
     0
281
     0
  0
CLASS
  1
SUN
  2
AcDbSun
  3
SCENEOE
 90
     1153
280
     0
281
     0
  0
CLASS
  1
DICTIONARYVAR
  2
AcDbDictionaryVar
  3
ObjectDBX Classes
 90
        0
280
     0
281
     0
  0
CLASS
  1
FIELD
  2
AcDbField
  3
ObjectDBX Classes
 90
     1152
280
     0
281
     0
  0
CLASS
  1
FIELDLIST
  2
AcDbFieldList
  3
ObjectDBX Classes
 90
     1152
280
     0
281
     0
  0
CLASS
  1
XRECORD
  2
AcDbXrecord
  3
ObjectDBX Classes
 90
        0
280
     0
281
     0
  0
CLASS
  1
LWPOLYLINE
  2
AcDbPolyline
  3
ObjectDBX Classes
 90
        0
280
     0
281
     1
  0
CLASS
  1
HATCH
  2
AcDbHatch
  3
ObjectDBX Classes
 90
        0
280
     0
281
     1
  0
CLASS
  1
ACDBPLACEHOLDER
  2
AcDbPlaceHolder
  3
ObjectDBX Classes
 90
        0
280
     0
281
     0
  0
CLASS
  1
LAYOUT
  2
AcDbLayout
  3
ObjectDBX Classes
 90
        0
280
     0
281
     0
  0
ENDSEC
  0
SECTION
  2
TABLES
  0
TABLE
  2
VPORT
  5
8
102
{ACAD_XDICTIONARY
360
37A
102
}
330
0
100
AcDbSymbolTable
 70
     1
  0
VPORT
  5
29
330
8
100
AcDbSymbolTableRecord
100
AcDbViewportTableRecord
  2
*ACTIVE
 70
     0
 10
0.0
 20
0.0
 11
1.0
 21
1.0
 12
5.519
 22
4.389959809264305
 13
0.0
 23
0.0
 14
0.5
 24
0.5
 15
0.5
 25
0.5
 16
0.0
 26
0.0
 36
1.0
 17
0.0
 27
0.0
 37
0.0
 40
8.916758010899182
 41
1.253957995308708
 42
50.0
 43
0.0
 44
0.0
 50
0.0
 51
0.0
 71
     0
 72
   100
 73
     1
 74
     3
 75
     0
 76
     0
 77
     0
 78
     0
  0
ENDTAB
  0
TABLE
  2
LTYPE
  5
5
330
0
100
AcDbSymbolTable
 70
     2
  0
LTYPE
  5
14
330
5
100
AcDbSymbolTableRecord
100
AcDbLinetypeTableRecord
  2
BYBLOCK
 70
     0
  3

 72
    65
 73
     0
 40
0.0
  0
LTYPE
  5
15
330
5
100
AcDbSymbolTableRecord
100
AcDbLinetypeTableRecord
  2
BYLAYER
 70
     0
  3

 72
    65
 73
     0
 40
0.0
  0
LTYPE
  5
16
330
5
100
AcDbSymbolTableRecord
100
AcDbLinetypeTableRecord
  2
CONTINUOUS
 70
     0
  3
Solid line
 72
    65
 73
     0
 40
0.0
  0
LTYPE
  5
23F
330
5
100
AcDbSymbolTableRecord
100
AcDbLinetypeTableRecord
  2
CENTER
 70
     0
  3
Center line ____ _ ____ _ ____ _
 72
    65
 73
     4
 40
0.7199999999999999
 49
0.45
 74
     0
 49
-0.09
 74
     0
 49
0.09
 74
     0
 49
-0.09
 74
     0
  0
ENDTAB
  0
TABLE
  2
LAYER
  5
2
330
0
100
AcDbSymbolTable
 70
     7
  0
LAYER
  5
10
330
2
100
AcDbSymbolTableRecord
100
AcDbLayerTableRecord
  2
0
 70
     0
 62
     7
  6
CONTINUOUS
  0
LAYER
  5
73
330
2
100
AcDbSymbolTableRecord
100
AcDbLayerTableRecord
  2
VISIBLE
 70
     0
 62
     7
  6
CONTINUOUS
  0
LAYER
  5
191
330
2
100
AcDbSymbolTableRecord
100
AcDbLayerTableRecord
  2
BORDER_FRAME
 70
     0
 62
     7
  6
CONTINUOUS
  0
LAYER
  5
197
330
2
100
AcDbSymbolTableRecord
100
AcDbLayerTableRecord
  2
BORDER_ZONES
 70
     0
 62
     7
  6
CONTINUOUS
  0
LAYER
  5
1A5
330
2
100
AcDbSymbolTableRecord
100
AcDbLayerTableRecord
  2
TITLE_BLOCK
 70
     0
 62
     7
  6
CONTINUOUS
  0
LAYER
  5
23D
330
2
100
AcDbSymbolTableRecord
100
AcDbLayerTableRecord
  2
CENTERMARKS
 70
     0
 62
     7
  6
CONTINUOUS
  0
LAYER
  5
2EA
330
2
100
AcDbSymbolTableRecord
100
AcDbLayerTableRecord
  2
ANNOTATION_TEXT
 70
     0
 62
     7
  6
CONTINUOUS
  0
ENDTAB
  0
TABLE
  2
STYLE
  5
3
330
0
100
AcDbSymbolTable
 70
    36
  0
STYLE
  5
11
330
3
100
AcDbSymbolTableRecord
100
AcDbTextStyleTableRecord
  2
STANDARD
 70
     0
 40
0.0
 41
1.0
 50
0.0
 71
     0
 42
0.12
  3
txt
  4

  0
STYLE
  5
70
330
3
100
AcDbSymbolTableRecord
100
AcDbTextStyleTableRecord
  2
ONSHAPE-STANDARD
 70
     0
 40
0.0
 41
1.0
 50
0.0
 71
     0
 42
0.12
  3
NotoSans-Regular.ttf
  4

1001
ACAD
1000
Noto Sans
1071
        0
  0
STYLE
  5
72
330
3
100
AcDbSymbolTableRecord
100
AcDbTextStyleTableRecord
  2
ONSHAPE-STANDARD-DIMENSION
 70
     0
 40
0.0
 41
1.0
 50
0.0
 71
     0
 42
0.12
  3

  4

1001
ACAD
1000
Noto Sans
1071
        0
  0
STYLE
  5
1D9
330
3
100
AcDbSymbolTableRecord
100
AcDbTextStyleTableRecord
  2
ONSHAPE-STANDARD-FIELDS
 70
     0
 40
0.0
 41
1.0
 50
0.0
 71
     0
 42
0.12
  3

  4

1001
ACAD
1000
Noto Sans
1071
        0
  0
STYLE
  5
2ED
330
3
100
AcDbSymbolTableRecord
100
AcDbTextStyleTableRecord
  2
ONSHAPE-STANDARD-VIEW-LABE
 70
     0
 40
0.12
 41
1.0
 50
0.0
 71
     0
 42
0.12
  3
NotoSans-Regular.ttf
  4

1001
ACAD
1000
Noto Sans
1071
        0
  0
STYLE
  5
2FD
330
3
100
AcDbSymbolTableRecord
100
AcDbTextStyleTableRecord
  2
ONSHAPE-STANDARD-TCFIELDS
 70
     0
 40
0.0
 41
1.0
 50
0.0
 71
     0
 42
0.12
  3
NotoSansTC-Regular.otf
  4

1001
ACAD
1000
Noto Sans TC
1071
        0
  0
STYLE
  5
2FE
330
3
100
AcDbSymbolTableRecord
100
AcDbTextStyleTableRecord
  2
ONSHAPE-STANDARD-SCFIELDS
 70
     0
 40
0.0
 41
1.0
 50
0.0
 71
     0
 42
0.12
  3
NotoSansSC-Regular.otf
  4

1001
ACAD
1000
Noto Sans SC
1071
        0
  0
STYLE
  5
2FF
330
3
100
AcDbSymbolTableRecord
100
AcDbTextStyleTableRecord
  2
ONSHAPE-STANDARD-KOREANFIE
 70
     0
 40
0.0
 41
1.0
 50
0.0
 71
     0
 42
0.12
  3
NotoSansKR-Regular.otf
  4

1001
ACAD
1000
Noto Sans KR
1071
        0
  0
STYLE
  5
300
330
3
100
AcDbSymbolTableRecord
100
AcDbTextStyleTableRecord
  2
ONSHAPE-STANDARD-JAPANESEF
 70
     0
 40
0.0
 41
1.0
 50
0.0
 71
     0
 42
0.12
  3
NotoSansJP-Regular.otf
  4

1001
ACAD
1000
Noto Sans JP
1071
        0
  0
STYLE
  5
302
330
3
100
AcDbSymbolTableRecord
100
AcDbTextStyleTableRecord
  2
ONSHAPE-STANDARD-BOLD
 70
     0
 40
0.0
 41
1.0
 50
0.0
 71
     0
 42
0.12
  3
NotoSans-Bold.ttf
  4

1001
ACAD
1000
Noto Sans
1071
 33554432
  0
STYLE
  5
305
330
3
100
AcDbSymbolTableRecord
100
AcDbTextStyleTableRecord
  2
TTFSTYLE
 70
     0
 40
0.0
 41
1.0
 50
0.0
 71
     0
 42
0.12
  3

  4

1001
ACAD
1000
Verdana
1071
       34
  0
STYLE
  5
306
330
3
100
AcDbSymbolTableRecord
100
AcDbTextStyleTableRecord
  2
ONSHAPE-STANDARD-GTOLERANC
 70
     0
 40
0.0
 41
1.0
 50
0.0
 71
     0
 42
0.12
  3

  4

1001
ACAD
1000
Noto Sans
1071
        0
  0
STYLE
  5
307
330
3
100
AcDbSymbolTableRecord
100
AcDbTextStyleTableRecord
  2
ONSHAPE-STANDARD-TABLE-DAT
 70
     0
 40
0.0
 41
1.0
 50
0.0
 71
     0
 42
0.12
  3
NotoSans-Regular.ttf
  4

1001
ACAD
1000
Noto Sans
1071
        0
  0
STYLE
  5
308
330
3
100
AcDbSymbolTableRecord
100
AcDbTextStyleTableRecord
  2
ONSHAPE-STANDARD-TABLE-TIT
 70
     0
 40
0.0
 41
1.0
 50
0.0
 71
     0
 42
0.12
  3
NotoSans-Bold.ttf
  4

1001
ACAD
1000
Noto Sans
1071
 33554432
  0
STYLE
  5
309
330
3
100
AcDbSymbolTableRecord
100
AcDbTextStyleTableRecord
  2
ONSHAPE-STANDARD-TABLE-HEA
 70
     0
 40
0.0
 41
1.0
 50
0.0
 71
     0
 42
0.12
  3
NotoSans-Bold.ttf
  4

1001
ACAD
1000
Noto Sans
1071
 33554432
  0
STYLE
  5
30A
330
3
100
AcDbSymbolTableRecord
100
AcDbTextStyleTableRecord
  2
ONSHAPE-STANDARD-BOMTABLE-
 70
     0
 40
0.0
 41
1.0
 50
0.0
 71
     0
 42
0.12
  3
NotoSans-Regular.ttf
  4

1001
ACAD
1000
Noto Sans
1071
        0
  0
STYLE
  5
30B
330
3
100
AcDbSymbolTableRecord
100
AcDbTextStyleTableRecord
  2
ONSHAPE-STANDARD-BOMTABLE0
 70
     0
 40
0.0
 41
1.0
 50
0.0
 71
     0
 42
0.12
  3
NotoSans-Bold.ttf
  4

1001
ACAD
1000
Noto Sans
1071
 33554432
  0
STYLE
  5
30C
330
3
100
AcDbSymbolTableRecord
100
AcDbTextStyleTableRecord
  2
ONSHAPE-STANDARD-BOMTABLE1
 70
     0
 40
0.0
 41
1.0
 50
0.0
 71
     0
 42
0.12
  3
NotoSans-Bold.ttf
  4

1001
ACAD
1000
Noto Sans
1071
 33554432
  0
STYLE
  5
30D
330
3
100
AcDbSymbolTableRecord
100
AcDbTextStyleTableRecord
  2
ONSHAPE-STANDARD-NOTESTYLE
 70
     0
 40
0.12
 41
1.0
 50
0.0
 71
     0
 42
0.12
  3
NotoSans-Regular.ttf
  4

1001
ACAD
1000
Noto Sans
1071
        0
  0
STYLE
  5
30E
330
3
100
AcDbSymbolTableRecord
100
AcDbTextStyleTableRecord
  2
ONSHAPE-STANDARD-DATUM-DIM
 70
     0
 40
0.12
 41
1.0
 50
0.0
 71
     0
 42
0.12
  3
NotoSans-Regular.ttf
  4

1001
ACAD
1000
Noto Sans
1071
        0
  0
STYLE
  5
310
330
3
100
AcDbSymbolTableRecord
100
AcDbTextStyleTableRecord
  2
ONSHAPE-DETAIL-VIEW-LEADER
 70
     0
 40
0.12
 41
1.0
 50
0.0
 71
     0
 42
0.12
  3
NotoSans-Regular.ttf
  4

1001
ACAD
1000
Noto Sans
1071
        0
  0
STYLE
  5
311
330
3
100
AcDbSymbolTableRecord
100
AcDbTextStyleTableRecord
  2
ONSHAPE-STANDARD-HOLE-CALL
 70
     0
 40
0.12
 41
1.0
 50
0.0
 71
     0
 42
0.12
  3
NotoSans-Regular.ttf
  4

1001
ACAD
1000
Noto Sans
1071
        0
  0
STYLE
  5
312
330
3
100
AcDbSymbolTableRecord
100
AcDbTextStyleTableRecord
  2
ONSHAPE-STANDARD-HOLETABLE
 70
     0
 40
0.0
 41
1.0
 50
0.0
 71
     0
 42
0.12
  3
NotoSans-Regular.ttf
  4

1001
ACAD
1000
Noto Sans
1071
        0
  0
STYLE
  5
313
330
3
100
AcDbSymbolTableRecord
100
AcDbTextStyleTableRecord
  2
ONSHAPE-STANDARD-HOLETABL0
 70
     0
 40
0.0
 41
1.0
 50
0.0
 71
     0
 42
0.12
  3
NotoSans-Bold.ttf
  4

1001
ACAD
1000
Noto Sans
1071
 33554432
  0
STYLE
  5
314
330
3
100
AcDbSymbolTableRecord
100
AcDbTextStyleTableRecord
  2
ONSHAPE-STANDARD-HOLETABL1
 70
     0
 40
0.0
 41
1.0
 50
0.0
 71
     0
 42
0.12
  3
NotoSans-Bold.ttf
  4

1001
ACAD
1000
Noto Sans
1071
 33554432
  0
STYLE
  5
315
330
3
100
AcDbSymbolTableRecord
100
AcDbTextStyleTableRecord
  2
ONSHAPE-STANDARD-HOLE-TAG
 70
     0
 40
0.12
 41
1.0
 50
0.0
 71
     0
 42
0.12
  3
NotoSans-Regular.ttf
  4

1001
ACAD
1000
Noto Sans
1071
        0
  0
STYLE
  5
316
330
3
100
AcDbSymbolTableRecord
100
AcDbTextStyleTableRecord
  2
ONSHAPE-STANDARD-REVISIONT
 70
     0
 40
0.0
 41
1.0
 50
0.0
 71
     0
 42
0.12
  3
NotoSans-Regular.ttf
  4

1001
ACAD
1000
Noto Sans
1071
        0
  0
STYLE
  5
317
330
3
100
AcDbSymbolTableRecord
100
AcDbTextStyleTableRecord
  2
ONSHAPE-STANDARD-REVISION0
 70
     0
 40
0.0
 41
1.0
 50
0.0
 71
     0
 42
0.12
  3
NotoSans-Bold.ttf
  4

1001
ACAD
1000
Noto Sans
1071
 33554432
  0
STYLE
  5
318
330
3
100
AcDbSymbolTableRecord
100
AcDbTextStyleTableRecord
  2
ONSHAPE-STANDARD-REVISION1
 70
     0
 40
0.0
 41
1.0
 50
0.0
 71
     0
 42
0.12
  3
NotoSans-Bold.ttf
  4

1001
ACAD
1000
Noto Sans
1071
 33554432
  0
STYLE
  5
319
330
3
100
AcDbSymbolTableRecord
100
AcDbTextStyleTableRecord
  2
ONSHAPE-STANDARD-REVISION-
 70
     0
 40
0.12
 41
1.0
 50
0.0
 71
     0
 42
0.12
  3
NotoSans-Regular.ttf
  4

1001
ACAD
1000
Noto Sans
1071
        0
  0
STYLE
  5
31A
330
3
100
AcDbSymbolTableRecord
100
AcDbTextStyleTableRecord
  2
ONSHAPE-STANDARD-CUTLISTTA
 70
     0
 40
0.0
 41
1.0
 50
0.0
 71
     0
 42
0.12
  3
NotoSans-Regular.ttf
  4

1001
ACAD
1000
Noto Sans
1071
        0
  0
STYLE
  5
31B
330
3
100
AcDbSymbolTableRecord
100
AcDbTextStyleTableRecord
  2
ONSHAPE-STANDARD-CUTLISTT0
 70
     0
 40
0.0
 41
1.0
 50
0.0
 71
     0
 42
0.12
  3
NotoSans-Bold.ttf
  4

1001
ACAD
1000
Noto Sans
1071
 33554432
  0
STYLE
  5
31C
330
3
100
AcDbSymbolTableRecord
100
AcDbTextStyleTableRecord
  2
ONSHAPE-STANDARD-CUTLISTT1
 70
     0
 40
0.0
 41
1.0
 50
0.0
 71
     0
 42
0.12
  3
NotoSans-Bold.ttf
  4

1001
ACAD
1000
Noto Sans
1071
 33554432
  0
STYLE
  5
31D
330
3
100
AcDbSymbolTableRecord
100
AcDbTextStyleTableRecord
  2
ONSHAPE-STANDARD-CUSTOMTAB
 70
     0
 40
0.0
 41
1.0
 50
0.0
 71
     0
 42
0.12
  3
NotoSans-Regular.ttf
  4

1001
ACAD
1000
Noto Sans
1071
        0
  0
STYLE
  5
31E
330
3
100
AcDbSymbolTableRecord
100
AcDbTextStyleTableRecord
  2
ONSHAPE-STANDARD-CUSTOMTA0
 70
     0
 40
0.0
 41
1.0
 50
0.0
 71
     0
 42
0.12
  3
NotoSans-Bold.ttf
  4

1001
ACAD
1000
Noto Sans
1071
 33554432
  0
STYLE
  5
31F
330
3
100
AcDbSymbolTableRecord
100
AcDbTextStyleTableRecord
  2
ONSHAPE-STANDARD-CUSTOMTA1
 70
     0
 40
0.0
 41
1.0
 50
0.0
 71
     0
 42
0.12
  3
NotoSans-Bold.ttf
  4

1001
ACAD
1000
Noto Sans
1071
 33554432
  0
ENDTAB
  0
TABLE
  2
VIEW
  5
6
330
0
100
AcDbSymbolTable
 70
     0
  0
ENDTAB
  0
TABLE
  2
UCS
  5
7
330
0
100
AcDbSymbolTable
 70
     0
  0
ENDTAB
  0
TABLE
  2
APPID
  5
9
330
0
100
AcDbSymbolTable
 70
     3
  0
APPID
  5
12
330
9
100
AcDbSymbolTableRecord
100
AcDbRegAppTableRecord
  2
ACAD
 70
     0
  0
APPID
  5
23C
330
9
100
AcDbSymbolTableRecord
100
AcDbRegAppTableRecord
  2
ONSHAPE_NOTES_ANNOTATION_D
 70
     0
  0
APPID
  5
384
330
9
100
AcDbSymbolTableRecord
100
AcDbRegAppTableRecord
  2
ACAD_MLEADERVER
 70
     0
  0
ENDTAB
  0
TABLE
  2
DIMSTYLE
  5
A
330
0
100
AcDbSymbolTable
 70
    21
  0
DIMSTYLE
105
27
330
A
100
AcDbSymbolTableRecord
100
AcDbDimStyleTableRecord
  2
STANDARD
 70
     0
  3

  4

  5

  6

  7

 40
1.0
 41
0.18
 42
0.0625
 43
0.38
 44
0.18
 45
0.0
 46
0.0
 47
0.0
 48
0.0
140
0.18
141
0.09
142
0.0
143
25.4
144
1.0
145
0.0
146
1.0
147
0.09
 71
     0
 72
     0
 73
     1
 74
     1
 75
     0
 76
     0
 77
     0
 78
     0
170
     0
171
     2
172
     0
173
     0
174
     0
175
     0
176
     0
177
     0
178
     0
270
     2
271
     4
272
     4
273
     2
274
     2
340
11
275
     0
280
     0
281
     0
282
     0
283
     1
284
     0
285
     0
286
     0
287
     3
288
     0
  0
DIMSTYLE
105
71
330
A
100
AcDbSymbolTableRecord
100
AcDbDimStyleTableRecord
  2
ONSHAPE-STANDARD
 70
     0
  3

  4

  5

  6

  7

 40
1.0
 41
0.18
 42
0.0625
 43
0.38
 44
0.08
 45
0.0
 46
0.0
 47
0.0
 48
0.0
140
0.12
141
0.09
142
0.0
143
25.4
144
1.0
145
0.0
146
1.0
147
0.09
 71
     0
 72
     0
 73
     1
 74
     1
 75
     0
 76
     0
 77
     0
 78
     7
170
     0
171
     2
172
     0
173
     0
174
     0
175
     0
176
     7
177
     7
178
     7
179
     1
270
     2
271
     3
272
     3
273
     2
274
     2
340
72
275
     0
280
     0
281
     0
282
     0
283
     1
284
     7
285
     7
286
     0
287
     3
288
     1
  0
DIMSTYLE
105
322
330
A
100
AcDbSymbolTableRecord
100
AcDbDimStyleTableRecord
  2
ANSI
 70
     0
  3

  4
mm
  5

  6

  7

 40
1.0
 41
0.12
 42
0.05
 43
0.5
 44
0.1
 45
0.0
 46
0.0
 47
0.1
 48
0.1
140
0.12
141
0.0
142
0.0
143
25.4
144
1.0
145
0.0
146
0.71
147
0.06
 71
     0
 72
     0
 73
     1
 74
     1
 75
     0
 76
     0
 77
     0
 78
     7
170
     0
171
     2
172
     0
173
     0
174
     0
175
     0
176
     7
177
     7
178
     7
270
     2
271
     3
272
     4
273
     2
274
     2
340
11
275
     0
280
     0
281
     0
282
     0
283
     1
284
     7
285
     7
286
     0
287
     3
288
     1
  0
DIMSTYLE
105
323
330
A
100
AcDbSymbolTableRecord
100
AcDbDimStyleTableRecord
  2
ANSI$3
 70
     0
  3

  4
mm
  5

  6

  7

 40
1.0
 41
0.12
 42
0.05
 43
0.5
 44
0.1
 45
0.0
 46
0.0
 47
0.1
 48
0.1
140
0.12
141
0.0
142
0.0
143
25.4
144
1.0
145
0.0
146
0.71
147
0.06
 71
     0
 72
     0
 73
     1
 74
     1
 75
     0
 76
     0
 77
     0
 78
     7
170
     0
171
     2
172
     0
173
     0
174
     0
175
     0
176
     7
177
     7
178
     7
270
     2
271
     3
272
     4
273
     2
274
     2
340
11
275
     0
280
     0
281
     0
282
     0
283
     1
284
     7
285
     7
286
     0
288
     1
  0
DIMSTYLE
105
324
330
A
100
AcDbSymbolTableRecord
100
AcDbDimStyleTableRecord
  2
ANSI$4
 70
     0
  3

  4
mm
  5

  6

  7

 40
1.0
 41
0.12
 42
0.05
 43
0.5
 44
0.1
 45
0.0
 46
0.0
 47
0.1
 48
0.1
140
0.12
141
0.0
142
0.0
143
25.4
144
1.0
145
0.0
146
0.71
147
0.06
 71
     0
 72
     0
 73
     1
 74
     1
 75
     0
 76
     0
 77
     0
 78
     7
170
     0
171
     2
172
     0
173
     0
174
     0
175
     0
176
     7
177
     7
178
     7
270
     2
271
     3
272
     4
273
     2
274
     2
340
11
275
     0
280
     0
281
     0
282
     0
283
     1
284
     7
285
     7
286
     0
287
     3
288
     1
  0
DIMSTYLE
105
325
330
A
100
AcDbSymbolTableRecord
100
AcDbDimStyleTableRecord
  2
ANSI$7
 70
     0
  3

  4
mm
  5

  6

  7

 40
1.0
 41
0.12
 42
0.05
 43
0.5
 44
0.1
 45
0.0
 46
0.0
 47
0.1
 48
0.1
140
0.12
141
0.0
142
0.0
143
25.4
144
1.0
145
0.0
146
0.71
147
0.06
 71
     0
 72
     0
 73
     1
 74
     1
 75
     0
 76
     0
 77
     0
 78
     7
170
     0
171
     2
172
     0
173
     0
174
     0
175
     0
176
     7
177
     7
178
     7
270
     2
271
     3
272
     4
273
     2
274
     2
340
11
275
     0
280
     0
281
     0
282
     0
283
     1
284
     7
285
     7
286
     0
287
     3
288
     1
  0
DIMSTYLE
105
326
330
A
100
AcDbSymbolTableRecord
100
AcDbDimStyleTableRecord
  2
ANSI$SF
 70
     0
  3

  4
mm
  5

  6

  7

 40
1.0
 41
0.12
 42
0.05
 43
0.5
 44
0.1
 45
0.0
 46
0.0
 47
0.1
 48
0.1
140
0.12
141
0.0
142
0.0
143
25.4
144
1.0
145
0.0
146
0.71
147
0.06
 71
     0
 72
     0
 73
     1
 74
     1
 75
     1
 76
     1
 77
     0
 78
     7
170
     0
171
     2
172
     0
173
     0
174
     0
175
     0
176
     7
177
     7
178
     7
270
     2
271
     3
272
     4
273
     2
274
     2
340
11
275
     0
280
     0
281
     0
282
     0
283
     1
284
     7
285
     7
286
     0
287
     3
288
     1
  0
DIMSTYLE
105
327
330
A
100
AcDbSymbolTableRecord
100
AcDbDimStyleTableRecord
  2
ANSI$SH
 70
     0
  3

  4
mm
  5

  6

  7

 40
1.0
 41
0.12
 42
0.05
 43
0.5
 44
0.1
 45
0.0
 46
0.0
 47
0.1
 48
0.1
140
0.12
141
0.0
142
0.0
143
25.4
144
1.0
145
0.0
146
0.71
147
0.06
 71
     0
 72
     0
 73
     1
 74
     1
 75
     1
 76
     1
 77
     0
 78
     7
170
     0
171
     2
172
     0
173
     1
174
     0
175
     0
176
     7
177
     7
178
     7
270
     2
271
     3
272
     4
273
     2
274
     2
340
11
275
     0
280
     0
281
     0
282
     0
283
     1
284
     7
285
     7
286
     0
287
     3
288
     1
  0
DIMSTYLE
105
32A
330
A
100
AcDbSymbolTableRecord
100
AcDbDimStyleTableRecord
  2
ONSHAPE-STANDARD$0
 70
     0
  3

  4

  5

  6

  7

 40
1.0
 41
0.18
 42
0.0625
 43
0.38
 44
0.08
 45
0.0
 46
0.0
 47
0.0
 48
0.0
140
0.12
141
0.09
142
0.0
143
25.4
144
1.0
145
0.0
146
1.0
147
0.09
 71
     0
 72
     0
 73
     1
 74
     1
 75
     0
 76
     0
 77
     0
 78
     7
170
     0
171
     2
172
     0
173
     0
174
     0
175
     0
176
     7
177
     7
178
     7
179
     1
270
     2
271
     3
272
     3
273
     2
274
     2
340
72
275
     0
280
     0
281
     0
282
     0
283
     1
284
     7
285
     7
286
     0
287
     3
288
     1
  0
DIMSTYLE
105
32B
330
A
100
AcDbSymbolTableRecord
100
AcDbDimStyleTableRecord
  2
ONSHAPE-STANDARD$2
 70
     0
  3

  4

  5

  6

  7

 40
1.0
 41
0.18
 42
0.0625
 43
0.38
 44
0.08
 45
0.0
 46
0.0
 47
0.0
 48
0.0
140
0.12
141
0.09
142
0.0
143
25.4
144
1.0
145
0.0
146
1.0
147
0.09
 71
     0
 72
     0
 73
     1
 74
     1
 75
     0
 76
     0
 77
     0
 78
     7
170
     0
171
     2
172
     0
173
     0
174
     0
175
     0
176
     7
177
     7
178
     7
179
     1
270
     2
271
     3
272
     3
273
     2
274
     2
340
72
275
     0
280
     0
281
     0
282
     0
283
     1
284
     7
285
     7
286
     0
287
     3
288
     1
  0
DIMSTYLE
105
32C
330
A
100
AcDbSymbolTableRecord
100
AcDbDimStyleTableRecord
  2
ONSHAPE-STANDARD$3
 70
     0
  3

  4

  5

  6

  7

 40
1.0
 41
0.18
 42
0.0625
 43
0.38
 44
0.08
 45
0.0
 46
0.0
 47
0.0
 48
0.0
140
0.12
141
0.0
142
0.0
143
25.4
144
1.0
145
0.0
146
1.0
147
0.09
 71
     0
 72
     0
 73
     1
 74
     1
 75
     0
 76
     0
 77
     0
 78
     7
170
     0
171
     2
172
     0
173
     0
174
     0
175
     0
176
     7
177
     7
178
     7
179
     1
270
     2
271
     3
272
     3
273
     2
274
     2
340
72
275
     0
280
     0
281
     0
282
     0
283
     1
284
     7
285
     7
286
     0
287
     3
288
     1
  0
DIMSTYLE
105
32D
330
A
100
AcDbSymbolTableRecord
100
AcDbDimStyleTableRecord
  2
ONSHAPE-STANDARD$4
 70
     0
  3

  4

  5

  6

  7

 40
1.0
 41
0.18
 42
0.0625
 43
0.38
 44
0.08
 45
0.0
 46
0.0
 47
0.0
 48
0.0
140
0.12
141
0.0
142
0.0
143
25.4
144
1.0
145
0.0
146
1.0
147
0.09
 71
     0
 72
     0
 73
     1
 74
     1
 75
     0
 76
     0
 77
     0
 78
     7
170
     0
171
     2
172
     0
173
     0
174
     0
175
     0
176
     7
177
     7
178
     7
179
     1
270
     2
271
     3
272
     3
273
     2
274
     2
340
72
275
     0
280
     0
281
     0
282
     0
283
     1
284
     7
285
     7
286
     0
287
     3
288
     1
  0
DIMSTYLE
105
32E
330
A
100
AcDbSymbolTableRecord
100
AcDbDimStyleTableRecord
  2
ONSHAPE-STANDARD$6
 70
     0
  3

  4

  5

  6

  7

 40
1.0
 41
0.02
 42
0.0625
 43
0.38
 44
0.08
 45
0.0
 46
0.0
 47
0.0
 48
0.0
140
0.12
141
0.09
142
0.0
143
25.4
144
1.0
145
0.0
146
1.0
147
0.09
 71
     0
 72
     0
 73
     1
 74
     1
 75
     0
 76
     0
 77
     0
 78
     7
170
     0
171
     2
172
     0
173
     0
174
     0
175
     0
176
     7
177
     7
178
     7
179
     1
270
     2
271
     3
272
     3
273
     2
274
     2
340
72
275
     0
280
     0
281
     0
282
     0
283
     1
284
     7
285
     7
286
     0
287
     3
288
     1
  0
DIMSTYLE
105
32F
330
A
100
AcDbSymbolTableRecord
100
AcDbDimStyleTableRecord
  2
ONSHAPE-STANDARD$7
 70
     0
  3

  4

  5

  6

  7

 40
1.0
 41
0.18
 42
0.0625
 43
0.38
 44
0.08
 45
0.0
 46
0.0
 47
0.0
 48
0.0
140
0.12
141
0.09
142
0.0
143
25.4
144
1.0
145
0.0
146
1.0
147
0.09
 71
     0
 72
     0
 73
     1
 74
     1
 75
     0
 76
     0
 77
     0
 78
     7
170
     0
171
     2
172
     0
173
     0
174
     0
175
     0
176
     7
177
     7
178
     7
179
     1
270
     2
271
     3
272
     3
273
     2
274
     2
340
72
275
     0
280
     0
281
     0
282
     0
283
     1
284
     7
285
     7
286
     0
287
     3
288
     1
  0
DIMSTYLE
105
330
330
A
100
AcDbSymbolTableRecord
100
AcDbDimStyleTableRecord
  2
ONSHAPE-STANDARD-GTOLERANC
 70
     0
  3

  4

  5

  6

  7

 40
1.0
 41
0.18
 42
0.0625
 43
0.38
 44
0.08
 45
0.0
 46
0.0
 47
0.0
 48
0.0
140
0.12
141
0.09
142
0.0
143
25.4
144
1.0
145
0.0
146
1.0
147
0.09
 71
     0
 72
     0
 73
     1
 74
     1
 75
     0
 76
     0
 77
     0
 78
     7
170
     0
171
     2
172
     0
173
     0
174
     0
175
     0
176
     7
177
     7
178
     7
179
     1
270
     2
271
     3
272
     3
273
     2
274
     2
340
306
275
     0
280
     0
281
     0
282
     0
283
     1
284
     7
285
     7
286
     0
287
     3
288
     1
  0
DIMSTYLE
105
332
330
A
100
AcDbSymbolTableRecord
100
AcDbDimStyleTableRecord
  2
ONSHAPE-ORDINATESTYLE
 70
     0
  3

  4

  5

  6

  7

 40
1.0
 41
0.02
 42
0.0625
 43
0.38
 44
0.08
 45
0.0
 46
0.0
 47
0.0
 48
0.0
140
0.12
141
0.09
142
0.0
143
25.4
144
1.0
145
0.0
146
1.0
147
0.09
 71
     0
 72
     0
 73
     1
 74
     1
 75
     0
 76
     0
 77
     0
 78
     7
170
     0
171
     2
172
     0
173
     0
174
     0
175
     0
176
     7
177
     7
178
     7
179
     1
270
     2
271
     3
272
     3
273
     2
274
     2
340
72
275
     0
280
     0
281
     0
282
     0
283
     1
284
     7
285
     7
286
     0
287
     3
288
     1
  0
DIMSTYLE
105
333
330
A
100
AcDbSymbolTableRecord
100
AcDbDimStyleTableRecord
  2
ONSHAPE-CHAMFERDIMSTYLE
 70
     0
  3

  4

  5

  6

  7

 40
1.0
 41
0.18
 42
0.0625
 43
0.38
 44
0.08
 45
0.0
 46
0.0
 47
0.0
 48
0.0
140
0.12
141
0.09
142
0.0
143
25.4
144
1.0
145
0.0
146
1.0
147
0.09
 71
     0
 72
     0
 73
     1
 74
     1
 75
     0
 76
     0
 77
     0
 78
     7
170
     0
171
     2
172
     0
173
     0
174
     0
175
     0
176
     7
177
     7
178
     7
179
     1
270
     2
271
     3
272
     3
273
     2
274
     2
340
72
275
     0
280
     0
281
     0
282
     0
283
     1
284
     7
285
     7
286
     0
287
     3
288
     1
  0
DIMSTYLE
105
334
330
A
100
AcDbSymbolTableRecord
100
AcDbDimStyleTableRecord
  2
ONSHAPE-SKETCHDRIVENDIMSTY
 70
     0
  3

  4

  5

  6

  7

 40
1.0
 41
0.18
 42
0.0625
 43
0.38
 44
0.08
 45
0.0
 46
0.0
 47
0.0
 48
0.0
140
0.12
141
0.09
142
0.0
143
25.4
144
1.0
145
0.0
146
1.0
147
0.09
 71
     0
 72
     0
 73
     1
 74
     1
 75
     0
 76
     0
 77
     0
 78
     7
170
     0
171
     2
172
     0
173
     0
174
     0
175
     0
176
   251
177
   251
178
   251
179
     1
270
     2
271
     3
272
     3
273
     2
274
     2
340
72
275
     0
280
     0
281
     0
282
     0
283
     1
284
     7
285
     7
286
     0
287
     3
288
     1
  0
DIMSTYLE
105
335
330
A
100
AcDbSymbolTableRecord
100
AcDbDimStyleTableRecord
  2
ONSHAPE-SKETCHDRIVENDIMST0
 70
     0
  3

  4

  5

  6

  7

 40
1.0
 41
0.18
 42
0.0625
 43
0.38
 44
0.08
 45
0.0
 46
0.0
 47
0.0
 48
0.0
140
0.12
141
0.09
142
0.0
143
25.4
144
1.0
145
0.0
146
1.0
147
0.09
 71
     0
 72
     0
 73
     1
 74
     1
 75
     0
 76
     0
 77
     0
 78
     7
170
     0
171
     2
172
     0
173
     0
174
     0
175
     0
176
   251
177
   251
178
   251
179
     1
270
     2
271
     3
272
     3
273
     2
274
     2
340
72
275
     0
280
     0
281
     0
282
     0
283
     1
284
     7
285
     7
286
     0
287
     3
288
     1
  0
DIMSTYLE
105
336
330
A
100
AcDbSymbolTableRecord
100
AcDbDimStyleTableRecord
  2
ONSHAPE-SKETCHDRIVENDIMST1
 70
     0
  3

  4

  5

  6

  7

 40
1.0
 41
0.18
 42
0.0625
 43
0.38
 44
0.08
 45
0.0
 46
0.0
 47
0.0
 48
0.0
140
0.12
141
0.0
142
0.0
143
25.4
144
1.0
145
0.0
146
1.0
147
0.09
 71
     0
 72
     0
 73
     1
 74
     1
 75
     0
 76
     0
 77
     0
 78
     7
170
     0
171
     2
172
     0
173
     0
174
     0
175
     0
176
   251
177
   251
178
   251
179
     1
270
     2
271
     3
272
     3
273
     2
274
     2
340
72
275
     0
280
     0
281
     0
282
     0
283
     1
284
     7
285
     7
286
     0
287
     3
288
     1
  0
DIMSTYLE
105
337
330
A
100
AcDbSymbolTableRecord
100
AcDbDimStyleTableRecord
  2
ONSHAPE-SKETCHDRIVENDIMST2
 70
     0
  3

  4

  5

  6

  7

 40
1.0
 41
0.18
 42
0.0625
 43
0.38
 44
0.08
 45
0.0
 46
0.0
 47
0.0
 48
0.0
140
0.12
141
0.0
142
0.0
143
25.4
144
1.0
145
0.0
146
1.0
147
0.09
 71
     0
 72
     0
 73
     1
 74
     1
 75
     0
 76
     0
 77
     0
 78
     7
170
     0
171
     2
172
     0
173
     0
174
     0
175
     0
176
   251
177
   251
178
   251
179
     1
270
     2
271
     3
272
     3
273
     2
274
     2
340
72
275
     0
280
     0
281
     0
282
     0
283
     1
284
     7
285
     7
286
     0
287
     3
288
     1
  0
ENDTAB
  0
TABLE
  2
BLOCK_RECORD
  5
1
330
0
100
AcDbSymbolTable
 70
     0
  0
BLOCK_RECORD
  5
1F
330
1
100
AcDbSymbolTableRecord
100
AcDbBlockTableRecord
  2
*MODEL_SPACE
  0
BLOCK_RECORD
  5
1B
330
1
100
AcDbSymbolTableRecord
100
AcDbBlockTableRecord
  2
*PAPER_SPACE
  0
ENDTAB
  0
ENDSEC
  0
SECTION
  2
BLOCKS
  0
BLOCK
  5
20
330
1F
100
AcDbEntity
  8
0
100
AcDbBlockBegin
  2
*MODEL_SPACE
 70
     0
 10
0.0
 20
0.0
 30
0.0
  3
*MODEL_SPACE
  1

  0
ENDBLK
  5
21
330
1F
100
AcDbEntity
  8
0
100
AcDbBlockEnd
  0
BLOCK
  5
1C
330
1B
100
AcDbEntity
 67
     1
  8
0
100
AcDbBlockBegin
  2
*PAPER_SPACE
 70
     0
 10
0.0
 20
0.0
 30
0.0
  3
*PAPER_SPACE
  1

  0
ENDBLK
  5
1D
330
1B
100
AcDbEntity
 67
     1
  8
0
100
AcDbBlockEnd
  0
ENDSEC
  0
SECTION
  2
ENTITIES
  0
LINE
  5
75
330
1F
100
AcDbEntity
  8
VISIBLE
100
AcDbLine
 10
5.557351714167903
 20
5.668479584789887
 30
0.0
 11
5.557351714167903
 21
5.651255175341069
 31
0.0
  0
LINE
  5
76
330
1F
100
AcDbEntity
  8
VISIBLE
100
AcDbLine
 10
5.589339903144281
 20
5.651255175341069
 30
0.0
 11
5.557351714167903
 21
5.651255175341069
 31
0.0
  0
LINE
  5
77
330
1F
100
AcDbEntity
  8
VISIBLE
100
AcDbLine
 10
5.589339903144281
 20
5.668479584789887
 30
0.0
 11
5.589339903144281
 21
5.651255175341069
 31
0.0
  0
LINE
  5
78
330
1F
100
AcDbEntity
  8
VISIBLE
100
AcDbLine
 10
5.589339903144281
 20
5.668479584789887
 30
0.0
 11
5.557351714167903
 21
5.668479584789887
 31
0.0
  0
LINE
  5
79
330
1F
100
AcDbEntity
  8
VISIBLE
100
AcDbLine
 10
5.658114078659137
 20
5.668479584789887
 30
0.0
 11
5.62612588968276
 21
5.668479584789887
 31
0.0
  0
LINE
  5
7A
330
1F
100
AcDbEntity
  8
VISIBLE
100
AcDbLine
 10
5.62612588968276
 20
5.651255175341069
 30
0.0
 11
5.62612588968276
 21
5.668479584789887
 31
0.0
  0
LINE
  5
7B
330
1F
100
AcDbEntity
  8
VISIBLE
100
AcDbLine
 10
5.658114078659137
 20
5.651255175341069
 30
0.0
 11
5.62612588968276
 21
5.651255175341069
 31
0.0
  0
LINE
  5
7C
330
1F
100
AcDbEntity
  8
VISIBLE
100
AcDbLine
 10
5.658114078659137
 20
5.651255175341069
 30
0.0
 11
5.658114078659137
 21
5.668479584789887
 31
0.0
  0
LINE
  5
7D
330
1F
100
AcDbEntity
  8
VISIBLE
100
AcDbLine
 10
4.868950630889294
 20
5.064909172473462
 30
0.0
 11
4.94276952852709
 21
5.064909172473462
 31
0.0
  0
LINE
  5
7E
330
1F
100
AcDbEntity
  8
VISIBLE
100
AcDbLine
 10
4.94276952852709
 20
5.08951547168606
 30
0.0
 11
4.94276952852709
 21
5.064909172473462
 31
0.0
  0
LINE
  5
7F
330
1F
100
AcDbEntity
  8
VISIBLE
100
AcDbLine
 10
4.868950630889294
 20
5.08951547168606
 30
0.0
 11
4.94276952852709
 21
5.08951547168606
 31
0.0
  0
LINE
  5
80
330
1F
100
AcDbEntity
  8
VISIBLE
100
AcDbLine
 10
4.868950630889294
 20
5.08951547168606
 30
0.0
 11
4.868950630889294
 21
5.064909172473462
 31
0.0
  0
LINE
  5
81
330
1F
100
AcDbEntity
  8
VISIBLE
100
AcDbLine
 10
4.949773480550172
 20
5.064504358816571
 30
0.0
 11
5.023592378187967
 21
5.064504358816571
 31
0.0
  0
LINE
  5
82
330
1F
100
AcDbEntity
  8
VISIBLE
100
AcDbLine
 10
5.023592378187967
 20
5.089110658029169
 30
0.0
 11
5.023592378187967
 21
5.064504358816571
 31
0.0
  0
LINE
  5
83
330
1F
100
AcDbEntity
  8
VISIBLE
100
AcDbLine
 10
4.949773480550172
 20
5.089110658029169
 30
0.0
 11
5.023592378187967
 21
5.089110658029169
 31
0.0
  0
LINE
  5
84
330
1F
100
AcDbEntity
  8
VISIBLE
100
AcDbLine
 10
4.949773480550172
 20
5.089110658029169
 30
0.0
 11
4.949773480550172
 21
5.064504358816571
 31
0.0
  0
LINE
  5
85
330
1F
100
AcDbEntity
  8
VISIBLE
100
AcDbLine
 10
5.029381925906618
 20
5.064381160239771
 30
0.0
 11
5.103200823544412
 21
5.064381160239771
 31
0.0
  0
LINE
  5
86
330
1F
100
AcDbEntity
  8
VISIBLE
100
AcDbLine
 10
5.103200823544412
 20
5.088987459452369
 30
0.0
 11
5.103200823544412
 21
5.064381160239771
 31
0.0
  0
LINE
  5
87
330
1F
100
AcDbEntity
  8
VISIBLE
100
AcDbLine
 10
5.029381925906618
 20
5.088987459452369
 30
0.0
 11
5.103200823544412
 21
5.088987459452369
 31
0.0
  0
LINE
  5
88
330
1F
100
AcDbEntity
  8
VISIBLE
100
AcDbLine
 10
5.029381925906618
 20
5.088987459452369
 30
0.0
 11
5.029381925906618
 21
5.064381160239771
 31
0.0
  0
LINE
  5
89
330
1F
100
AcDbEntity
  8
VISIBLE
100
AcDbLine
 10
5.029135492086775
 20
4.982537467371762
 30
0.0
 11
5.10295438972457
 21
4.982537467371762
 31
0.0
  0
LINE
  5
8A
330
1F
100
AcDbEntity
  8
VISIBLE
100
AcDbLine
 10
5.10295438972457
 20
5.041592585481998
 30
0.0
 11
5.10295438972457
 21
4.982537467371762
 31
0.0
  0
LINE
  5
8B
330
1F
100
AcDbEntity
  8
VISIBLE
100
AcDbLine
 10
5.029135492086775
 20
5.041592585481998
 30
0.0
 11
5.10295438972457
 21
5.041592585481998
 31
0.0
  0
LINE
  5
8C
330
1F
100
AcDbEntity
  8
VISIBLE
100
AcDbLine
 10
5.029135492086775
 20
5.041592585481998
 30
0.0
 11
5.029135492086775
 21
4.982537467371762
 31
0.0
  0
LINE
  5
8D
330
1F
100
AcDbEntity
  8
VISIBLE
100
AcDbLine
 10
4.978096650025168
 20
5.519063031086032
 30
0.0
 11
5.037151768135404
 21
5.519063031086032
 31
0.0
  0
LINE
  5
8E
330
1F
100
AcDbEntity
  8
VISIBLE
100
AcDbLine
 10
5.037151768135404
 20
5.560893739747449
 30
0.0
 11
5.037151768135404
 21
5.519063031086032
 31
0.0
  0
LINE
  5
8F
330
1F
100
AcDbEntity
  8
VISIBLE
100
AcDbLine
 10
4.978096650025168
 20
5.560893739747449
 30
0.0
 11
5.037151768135404
 21
5.560893739747449
 31
0.0
  0
LINE
  5
90
330
1F
100
AcDbEntity
  8
VISIBLE
100
AcDbLine
 10
4.978096650025168
 20
5.560893739747449
 30
0.0
 11
4.978096650025168
 21
5.519063031086032
 31
0.0
  0
LINE
  5
91
330
1F
100
AcDbEntity
  8
VISIBLE
100
AcDbLine
 10
4.790239866829424
 20
4.982537467371762
 30
0.0
 11
4.864058764467219
 21
4.982537467371762
 31
0.0
  0
LINE
  5
92
330
1F
100
AcDbEntity
  8
VISIBLE
100
AcDbLine
 10
4.864058764467219
 20
5.041592585481998
 30
0.0
 11
4.864058764467219
 21
4.982537467371762
 31
0.0
  0
LINE
  5
93
330
1F
100
AcDbEntity
  8
VISIBLE
100
AcDbLine
 10
4.790239866829424
 20
5.041592585481998
 30
0.0
 11
4.864058764467219
 21
5.041592585481998
 31
0.0
  0
LINE
  5
94
330
1F
100
AcDbEntity
  8
VISIBLE
100
AcDbLine
 10
4.790239866829424
 20
5.041592585481998
 30
0.0
 11
4.790239866829424
 21
4.982537467371762
 31
0.0
  0
LINE
  5
95
330
1F
100
AcDbEntity
  8
VISIBLE
100
AcDbLine
 10
4.868827468978738
 20
4.982537467371762
 30
0.0
 11
4.942646366616533
 21
4.982537467371762
 31
0.0
  0
LINE
  5
96
330
1F
100
AcDbEntity
  8
VISIBLE
100
AcDbLine
 10
4.942646366616533
 20
5.041592585481998
 30
0.0
 11
4.942646366616533
 21
4.982537467371762
 31
0.0
  0
LINE
  5
97
330
1F
100
AcDbEntity
  8
VISIBLE
100
AcDbLine
 10
4.868827468978738
 20
5.041592585481998
 30
0.0
 11
4.942646366616533
 21
5.041592585481998
 31
0.0
  0
LINE
  5
98
330
1F
100
AcDbEntity
  8
VISIBLE
100
AcDbLine
 10
4.868827468978738
 20
5.041592585481998
 30
0.0
 11
4.868827468978738
 21
4.982537467371762
 31
0.0
  0
LINE
  5
99
330
1F
100
AcDbEntity
  8
VISIBLE
100
AcDbLine
 10
5.023345944368124
 20
5.041592585481998
 30
0.0
 11
4.94952704673033
 21
5.041592585481998
 31
0.0
  0
LINE
  5
9A
330
1F
100
AcDbEntity
  8
VISIBLE
100
AcDbLine
 10
4.94952704673033
 20
4.982537467371762
 30
0.0
 11
4.94952704673033
 21
5.041592585481998
 31
0.0
  0
LINE
  5
9B
330
1F
100
AcDbEntity
  8
VISIBLE
100
AcDbLine
 10
5.023345944368125
 20
4.982537467371762
 30
0.0
 11
4.94952704673033
 21
4.982537467371762
 31
0.0
  0
LINE
  5
9C
330
1F
100
AcDbEntity
  8
VISIBLE
100
AcDbLine
 10
5.023345944368125
 20
4.982537467371762
 30
0.0
 11
5.023345944368124
 21
5.041592585481998
 31
0.0
  0
LINE
  5
9D
330
1F
100
AcDbEntity
  8
VISIBLE
100
AcDbLine
 10
5.042705686989392
 20
5.102451683779168
 30
0.0
 11
5.104221435020889
 21
5.102451683779168
 31
0.0
  0
LINE
  5
9E
330
1F
100
AcDbEntity
  8
VISIBLE
100
AcDbLine
 10
5.104221435020889
 20
5.144282392440585
 30
0.0
 11
5.104221435020889
 21
5.102451683779168
 31
0.0
  0
LINE
  5
9F
330
1F
100
AcDbEntity
  8
VISIBLE
100
AcDbLine
 10
5.042705686989392
 20
5.144282392440585
 30
0.0
 11
5.104221435020889
 21
5.144282392440585
 31
0.0
  0
LINE
  5
A0
330
1F
100
AcDbEntity
  8
VISIBLE
100
AcDbLine
 10
5.042705686989392
 20
5.144282392440585
 30
0.0
 11
5.042705686989392
 21
5.102451683779168
 31
0.0
  0
LINE
  5
A1
330
1F
100
AcDbEntity
  8
VISIBLE
100
AcDbLine
 10
5.117051463140642
 20
5.012617206554714
 30
0.0
 11
5.176106581250878
 21
5.012617206554714
 31
0.0
  0
LINE
  5
A2
330
1F
100
AcDbEntity
  8
VISIBLE
100
AcDbLine
 10
5.176106581250878
 20
5.07167232466495
 30
0.0
 11
5.176106581250878
 21
5.012617206554714
 31
0.0
  0
LINE
  5
A3
330
1F
100
AcDbEntity
  8
VISIBLE
100
AcDbLine
 10
5.117051463140642
 20
5.07167232466495
 30
0.0
 11
5.176106581250878
 21
5.07167232466495
 31
0.0
  0
LINE
  5
A4
330
1F
100
AcDbEntity
  8
VISIBLE
100
AcDbLine
 10
5.117051463140642
 20
5.07167232466495
 30
0.0
 11
5.117051463140642
 21
5.012617206554714
 31
0.0
  0
LINE
  5
A5
330
1F
100
AcDbEntity
  8
VISIBLE
100
AcDbLine
 10
5.117171636752387
 20
5.084484454671465
 30
0.0
 11
5.176226754862623
 21
5.084484454671465
 31
0.0
  0
LINE
  5
A6
330
1F
100
AcDbEntity
  8
VISIBLE
100
AcDbLine
 10
5.176226754862623
 20
5.143539572781701
 30
0.0
 11
5.176226754862623
 21
5.084484454671465
 31
0.0
  0
LINE
  5
A7
330
1F
100
AcDbEntity
  8
VISIBLE
100
AcDbLine
 10
5.117171636752387
 20
5.143539572781701
 30
0.0
 11
5.176226754862623
 21
5.143539572781701
 31
0.0
  0
LINE
  5
A8
330
1F
100
AcDbEntity
  8
VISIBLE
100
AcDbLine
 10
5.117171636752387
 20
5.143539572781701
 30
0.0
 11
5.117171636752387
 21
5.084484454671465
 31
0.0
  0
LINE
  5
A9
330
1F
100
AcDbEntity
  8
VISIBLE
100
AcDbLine
 10
4.786860559200807
 20
5.06425794332985
 30
0.0
 11
4.860679456838603
 21
5.06425794332985
 31
0.0
  0
LINE
  5
AA
330
1F
100
AcDbEntity
  8
VISIBLE
100
AcDbLine
 10
4.860679456838603
 20
5.088864242542448
 30
0.0
 11
4.860679456838603
 21
5.06425794332985
 31
0.0
  0
LINE
  5
AB
330
1F
100
AcDbEntity
  8
VISIBLE
100
AcDbLine
 10
4.786860559200807
 20
5.088864242542448
 30
0.0
 11
4.860679456838603
 21
5.088864242542448
 31
0.0
  0
LINE
  5
AC
330
1F
100
AcDbEntity
  8
VISIBLE
100
AcDbLine
 10
4.786860559200807
 20
5.088864242542448
 30
0.0
 11
4.786860559200807
 21
5.06425794332985
 31
0.0
  0
LINE
  5
AD
330
1F
100
AcDbEntity
  8
VISIBLE
100
AcDbLine
 10
4.867957415696334
 20
5.518027128436493
 30
0.0
 11
4.907327494436492
 21
5.518027128436493
 31
0.0
  0
LINE
  5
AE
330
1F
100
AcDbEntity
  8
VISIBLE
100
AcDbLine
 10
4.907327494436492
 20
5.542633427649092
 30
0.0
 11
4.907327494436492
 21
5.518027128436493
 31
0.0
  0
LINE
  5
AF
330
1F
100
AcDbEntity
  8
VISIBLE
100
AcDbLine
 10
4.867957415696334
 20
5.542633427649092
 30
0.0
 11
4.907327494436492
 21
5.542633427649092
 31
0.0
  0
LINE
  5
B0
330
1F
100
AcDbEntity
  8
VISIBLE
100
AcDbLine
 10
4.867957415696334
 20
5.542633427649092
 30
0.0
 11
4.867957415696334
 21
5.518027128436493
 31
0.0
  0
LINE
  5
B1
330
1F
100
AcDbEntity
  8
VISIBLE
100
AcDbLine
 10
4.867957415696334
 20
5.547997264825145
 30
0.0
 11
4.907327494436492
 21
5.547997264825145
 31
0.0
  0
LINE
  5
B2
330
1F
100
AcDbEntity
  8
VISIBLE
100
AcDbLine
 10
4.907327494436492
 20
5.560300414431445
 30
0.0
 11
4.907327494436492
 21
5.547997264825145
 31
0.0
  0
LINE
  5
B3
330
1F
100
AcDbEntity
  8
VISIBLE
100
AcDbLine
 10
4.867957415696334
 20
5.560300414431445
 30
0.0
 11
4.907327494436492
 21
5.560300414431445
 31
0.0
  0
LINE
  5
B4
330
1F
100
AcDbEntity
  8
VISIBLE
100
AcDbLine
 10
4.867957415696334
 20
5.560300414431445
 30
0.0
 11
4.867957415696334
 21
5.547997264825145
 31
0.0
  0
LINE
  5
B5
330
1F
100
AcDbEntity
  8
VISIBLE
100
AcDbLine
 10
4.790462247593796
 20
5.517446300863615
 30
0.0
 11
4.822450436570174
 21
5.517446300863615
 31
0.0
  0
LINE
  5
B6
330
1F
100
AcDbEntity
  8
VISIBLE
100
AcDbLine
 10
4.822450436570174
 20
5.559277009525031
 30
0.0
 11
4.822450436570174
 21
5.517446300863615
 31
0.0
  0
LINE
  5
B7
330
1F
100
AcDbEntity
  8
VISIBLE
100
AcDbLine
 10
4.790462247593796
 20
5.559277009525031
 30
0.0
 11
4.822450436570174
 21
5.559277009525031
 31
0.0
  0
LINE
  5
B8
330
1F
100
AcDbEntity
  8
VISIBLE
100
AcDbLine
 10
4.790462247593796
 20
5.559277009525031
 30
0.0
 11
4.790462247593796
 21
5.517446300863615
 31
0.0
  0
LINE
  5
B9
330
1F
100
AcDbEntity
  8
VISIBLE
100
AcDbLine
 10
4.826279337165054
 20
5.518336700027048
 30
0.0
 11
4.865649415905212
 21
5.518336700027048
 31
0.0
  0
LINE
  5
BA
330
1F
100
AcDbEntity
  8
VISIBLE
100
AcDbLine
 10
4.865649415905212
 20
5.542942999239646
 30
0.0
 11
4.865649415905212
 21
5.518336700027048
 31
0.0
  0
LINE
  5
BB
330
1F
100
AcDbEntity
  8
VISIBLE
100
AcDbLine
 10
4.826279337165054
 20
5.542942999239646
 30
0.0
 11
4.865649415905212
 21
5.542942999239646
 31
0.0
  0
LINE
  5
BC
330
1F
100
AcDbEntity
  8
VISIBLE
100
AcDbLine
 10
4.826279337165054
 20
5.542942999239646
 30
0.0
 11
4.826279337165054
 21
5.518336700027048
 31
0.0
  0
LINE
  5
BD
330
1F
100
AcDbEntity
  8
VISIBLE
100
AcDbLine
 10
4.950215088782008
 20
4.91416020393841
 30
0.0
 11
5.024033986419804
 21
4.91416020393841
 31
0.0
  0
LINE
  5
BE
330
1F
100
AcDbEntity
  8
VISIBLE
100
AcDbLine
 10
5.024033986419804
 20
4.973215322048646
 30
0.0
 11
5.024033986419804
 21
4.91416020393841
 31
0.0
  0
LINE
  5
BF
330
1F
100
AcDbEntity
  8
VISIBLE
100
AcDbLine
 10
4.950215088782008
 20
4.973215322048646
 30
0.0
 11
5.024033986419804
 21
4.973215322048646
 31
0.0
  0
LINE
  5
C0
330
1F
100
AcDbEntity
  8
VISIBLE
100
AcDbLine
 10
4.950215088782008
 20
4.973215322048646
 30
0.0
 11
4.950215088782008
 21
4.91416020393841
 31
0.0
  0
LINE
  5
C1
330
1F
100
AcDbEntity
  8
VISIBLE
100
AcDbLine
 10
4.868950630889294
 20
4.91416020393841
 30
0.0
 11
4.94276952852709
 21
4.91416020393841
 31
0.0
  0
LINE
  5
C2
330
1F
100
AcDbEntity
  8
VISIBLE
100
AcDbLine
 10
4.94276952852709
 20
4.973215322048646
 30
0.0
 11
4.94276952852709
 21
4.91416020393841
 31
0.0
  0
LINE
  5
C3
330
1F
100
AcDbEntity
  8
VISIBLE
100
AcDbLine
 10
4.868950630889294
 20
4.973215322048646
 30
0.0
 11
4.94276952852709
 21
4.973215322048646
 31
0.0
  0
LINE
  5
C4
330
1F
100
AcDbEntity
  8
VISIBLE
100
AcDbLine
 10
4.868950630889294
 20
4.973215322048646
 30
0.0
 11
4.868950630889294
 21
4.91416020393841
 31
0.0
  0
LINE
  5
C5
330
1F
100
AcDbEntity
  8
VISIBLE
100
AcDbLine
 10
4.79043504124142
 20
4.91533940864947
 30
0.0
 11
4.864253938879214
 21
4.91533940864947
 31
0.0
  0
LINE
  5
C6
330
1F
100
AcDbEntity
  8
VISIBLE
100
AcDbLine
 10
4.864253938879214
 20
4.974394526759706
 30
0.0
 11
4.864253938879214
 21
4.91533940864947
 31
0.0
  0
LINE
  5
C7
330
1F
100
AcDbEntity
  8
VISIBLE
100
AcDbLine
 10
4.79043504124142
 20
4.974394526759706
 30
0.0
 11
4.864253938879214
 21
4.974394526759706
 31
0.0
  0
LINE
  5
C8
330
1F
100
AcDbEntity
  8
VISIBLE
100
AcDbLine
 10
4.79043504124142
 20
4.974394526759706
 30
0.0
 11
4.79043504124142
 21
4.91533940864947
 31
0.0
  0
LINE
  5
C9
330
1F
100
AcDbEntity
  8
VISIBLE
100
AcDbLine
 10
5.042312752732826
 20
5.518473392316523
 30
0.0
 11
5.101367870843062
 21
5.518473392316523
 31
0.0
  0
LINE
  5
CA
330
1F
100
AcDbEntity
  8
VISIBLE
100
AcDbLine
 10
5.101367870843062
 20
5.56030410097794
 30
0.0
 11
5.101367870843062
 21
5.518473392316523
 31
0.0
  0
LINE
  5
CB
330
1F
100
AcDbEntity
  8
VISIBLE
100
AcDbLine
 10
5.042312752732826
 20
5.56030410097794
 30
0.0
 11
5.101367870843062
 21
5.56030410097794
 31
0.0
  0
LINE
  5
CC
330
1F
100
AcDbEntity
  8
VISIBLE
100
AcDbLine
 10
5.042312752732826
 20
5.56030410097794
 30
0.0
 11
5.042312752732826
 21
5.518473392316523
 31
0.0
  0
LINE
  5
CD
330
1F
100
AcDbEntity
  8
VISIBLE
100
AcDbLine
 10
5.029735480155662
 20
4.914318565442338
 30
0.0
 11
5.103554377793457
 21
4.914318565442338
 31
0.0
  0
LINE
  5
CE
330
1F
100
AcDbEntity
  8
VISIBLE
100
AcDbLine
 10
5.103554377793457
 20
4.973373683552574
 30
0.0
 11
5.103554377793457
 21
4.914318565442338
 31
0.0
  0
LINE
  5
CF
330
1F
100
AcDbEntity
  8
VISIBLE
100
AcDbLine
 10
5.029735480155662
 20
4.973373683552574
 30
0.0
 11
5.103554377793457
 21
4.973373683552574
 31
0.0
  0
LINE
  5
D0
330
1F
100
AcDbEntity
  8
VISIBLE
100
AcDbLine
 10
5.029735480155662
 20
4.973373683552574
 30
0.0
 11
5.029735480155662
 21
4.914318565442338
 31
0.0
  0
LINE
  5
D1
330
1F
100
AcDbEntity
  8
VISIBLE
100
AcDbLine
 10
4.301986600506154
 20
5.063286177889101
 30
0.0
 11
4.37580549814395
 21
5.063286177889101
 31
0.0
  0
LINE
  5
D2
330
1F
100
AcDbEntity
  8
VISIBLE
100
AcDbLine
 10
4.37580549814395
 20
5.087892477101699
 30
0.0
 11
4.37580549814395
 21
5.063286177889101
 31
0.0
  0
LINE
  5
D3
330
1F
100
AcDbEntity
  8
VISIBLE
100
AcDbLine
 10
4.301986600506154
 20
5.087892477101699
 30
0.0
 11
4.37580549814395
 21
5.087892477101699
 31
0.0
  0
LINE
  5
D4
330
1F
100
AcDbEntity
  8
VISIBLE
100
AcDbLine
 10
4.301986600506154
 20
5.087892477101699
 30
0.0
 11
4.301986600506154
 21
5.063286177889101
 31
0.0
  0
LINE
  5
D5
330
1F
100
AcDbEntity
  8
VISIBLE
100
AcDbLine
 10
4.221731820949549
 20
5.063502362058389
 30
0.0
 11
4.295550718587345
 21
5.063502362058389
 31
0.0
  0
LINE
  5
D6
330
1F
100
AcDbEntity
  8
VISIBLE
100
AcDbLine
 10
4.295550718587345
 20
5.088108661270987
 30
0.0
 11
4.295550718587345
 21
5.063502362058389
 31
0.0
  0
LINE
  5
D7
330
1F
100
AcDbEntity
  8
VISIBLE
100
AcDbLine
 10
4.221731820949549
 20
5.088108661270987
 30
0.0
 11
4.295550718587345
 21
5.088108661270987
 31
0.0
  0
LINE
  5
D8
330
1F
100
AcDbEntity
  8
VISIBLE
100
AcDbLine
 10
4.221731820949549
 20
5.088108661270987
 30
0.0
 11
4.221731820949549
 21
5.063502362058389
 31
0.0
  0
LINE
  5
D9
330
1F
100
AcDbEntity
  8
VISIBLE
100
AcDbLine
 10
4.141954435878043
 20
5.063327262414488
 30
0.0
 11
4.215773333515838
 21
5.063327262414488
 31
0.0
  0
LINE
  5
DA
330
1F
100
AcDbEntity
  8
VISIBLE
100
AcDbLine
 10
4.215773333515838
 20
5.087933561627087
 30
0.0
 11
4.215773333515838
 21
5.063327262414488
 31
0.0
  0
LINE
  5
DB
330
1F
100
AcDbEntity
  8
VISIBLE
100
AcDbLine
 10
4.141954435878043
 20
5.087933561627087
 30
0.0
 11
4.215773333515838
 21
5.087933561627087
 31
0.0
  0
LINE
  5
DC
330
1F
100
AcDbEntity
  8
VISIBLE
100
AcDbLine
 10
4.141954435878043
 20
5.087933561627087
 30
0.0
 11
4.141954435878043
 21
5.063327262414488
 31
0.0
  0
LINE
  5
DD
330
1F
100
AcDbEntity
  8
VISIBLE
100
AcDbLine
 10
4.222137862925584
 20
4.982747344947238
 30
0.0
 11
4.29595676056338
 21
4.982747344947238
 31
0.0
  0
LINE
  5
DE
330
1F
100
AcDbEntity
  8
VISIBLE
100
AcDbLine
 10
4.29595676056338
 20
5.041802463057474
 30
0.0
 11
4.29595676056338
 21
4.982747344947238
 31
0.0
  0
LINE
  5
DF
330
1F
100
AcDbEntity
  8
VISIBLE
100
AcDbLine
 10
4.222137862925584
 20
5.041802463057474
 30
0.0
 11
4.29595676056338
 21
5.041802463057474
 31
0.0
  0
LINE
  5
E0
330
1F
100
AcDbEntity
  8
VISIBLE
100
AcDbLine
 10
4.222137862925584
 20
5.041802463057474
 30
0.0
 11
4.222137862925584
 21
4.982747344947238
 31
0.0
  0
LINE
  5
E1
330
1F
100
AcDbEntity
  8
VISIBLE
100
AcDbLine
 10
4.381290917709248
 20
5.062779542075134
 30
0.0
 11
4.455109815347043
 21
5.062779542075134
 31
0.0
  0
LINE
  5
E2
330
1F
100
AcDbEntity
  8
VISIBLE
100
AcDbLine
 10
4.455109815347043
 20
5.087385841287732
 30
0.0
 11
4.455109815347043
 21
5.062779542075134
 31
0.0
  0
LINE
  5
E3
330
1F
100
AcDbEntity
  8
VISIBLE
100
AcDbLine
 10
4.381290917709248
 20
5.087385841287732
 30
0.0
 11
4.455109815347043
 21
5.087385841287732
 31
0.0
  0
LINE
  5
E4
330
1F
100
AcDbEntity
  8
VISIBLE
100
AcDbLine
 10
4.381290917709248
 20
5.087385841287732
 30
0.0
 11
4.381290917709248
 21
5.062779542075134
 31
0.0
  0
LINE
  5
E5
330
1F
100
AcDbEntity
  8
VISIBLE
100
AcDbLine
 10
4.144659157966196
 20
5.102314708374853
 30
0.0
 11
4.203714276076433
 21
5.102314708374853
 31
0.0
  0
LINE
  5
E6
330
1F
100
AcDbEntity
  8
VISIBLE
100
AcDbLine
 10
4.203714276076433
 20
5.144145417036269
 30
0.0
 11
4.203714276076433
 21
5.102314708374853
 31
0.0
  0
LINE
  5
E7
330
1F
100
AcDbEntity
  8
VISIBLE
100
AcDbLine
 10
4.144659157966196
 20
5.144145417036269
 30
0.0
 11
4.203714276076433
 21
5.144145417036269
 31
0.0
  0
LINE
  5
E8
330
1F
100
AcDbEntity
  8
VISIBLE
100
AcDbLine
 10
4.144659157966196
 20
5.144145417036269
 30
0.0
 11
4.144659157966196
 21
5.102314708374853
 31
0.0
  0
LINE
  5
E9
330
1F
100
AcDbEntity
  8
VISIBLE
100
AcDbLine
 10
4.068283886926511
 20
5.0851996529161
 30
0.0
 11
4.127339005036747
 21
5.0851996529161
 31
0.0
  0
LINE
  5
EA
330
1F
100
AcDbEntity
  8
VISIBLE
100
AcDbLine
 10
4.127339005036747
 20
5.144254771026336
 30
0.0
 11
4.127339005036747
 21
5.0851996529161
 31
0.0
  0
LINE
  5
EB
330
1F
100
AcDbEntity
  8
VISIBLE
100
AcDbLine
 10
4.068283886926511
 20
5.144254771026336
 30
0.0
 11
4.127339005036747
 21
5.144254771026336
 31
0.0
  0
LINE
  5
EC
330
1F
100
AcDbEntity
  8
VISIBLE
100
AcDbLine
 10
4.068283886926511
 20
5.144254771026336
 30
0.0
 11
4.068283886926511
 21
5.0851996529161
 31
0.0
  0
LINE
  5
ED
330
1F
100
AcDbEntity
  8
VISIBLE
100
AcDbLine
 10
4.068283886926511
 20
5.012899908128921
 30
0.0
 11
4.127339005036747
 21
5.012899908128921
 31
0.0
  0
LINE
  5
EE
330
1F
100
AcDbEntity
  8
VISIBLE
100
AcDbLine
 10
4.127339005036747
 20
5.071955026239158
 30
0.0
 11
4.127339005036747
 21
5.012899908128921
 31
0.0
  0
LINE
  5
EF
330
1F
100
AcDbEntity
  8
VISIBLE
100
AcDbLine
 10
4.068283886926511
 20
5.071955026239158
 30
0.0
 11
4.127339005036747
 21
5.071955026239158
 31
0.0
  0
LINE
  5
F0
330
1F
100
AcDbEntity
  8
VISIBLE
100
AcDbLine
 10
4.068283886926511
 20
5.071955026239158
 30
0.0
 11
4.068283886926511
 21
5.012899908128921
 31
0.0
  0
LINE
  5
F1
330
1F
100
AcDbEntity
  8
VISIBLE
100
AcDbLine
 10
4.267539132099582
 20
5.517626918986089
 30
0.0
 11
4.267539132099582
 21
5.559457627647507
 31
0.0
  0
LINE
  5
F2
330
1F
100
AcDbEntity
  8
VISIBLE
100
AcDbLine
 10
4.208484013989346
 20
5.559457627647507
 30
0.0
 11
4.267539132099582
 21
5.559457627647507
 31
0.0
  0
LINE
  5
F3
330
1F
100
AcDbEntity
  8
VISIBLE
100
AcDbLine
 10
4.208484013989346
 20
5.517626918986089
 30
0.0
 11
4.208484013989346
 21
5.559457627647507
 31
0.0
  0
LINE
  5
F4
330
1F
100
AcDbEntity
  8
VISIBLE
100
AcDbLine
 10
4.208484013989346
 20
5.517626918986089
 30
0.0
 11
4.267539132099582
 21
5.517626918986089
 31
0.0
  0
LINE
  5
F5
330
1F
100
AcDbEntity
  8
VISIBLE
100
AcDbLine
 10
4.330460385227896
 20
5.517626918986089
 30
0.0
 11
4.330460385227896
 21
5.559457627647507
 31
0.0
  0
LINE
  5
F6
330
1F
100
AcDbEntity
  8
VISIBLE
100
AcDbLine
 10
4.27140526711766
 20
5.559457627647507
 30
0.0
 11
4.330460385227896
 21
5.559457627647507
 31
0.0
  0
LINE
  5
F7
330
1F
100
AcDbEntity
  8
VISIBLE
100
AcDbLine
 10
4.27140526711766
 20
5.517626918986089
 30
0.0
 11
4.27140526711766
 21
5.559457627647507
 31
0.0
  0
LINE
  5
F8
330
1F
100
AcDbEntity
  8
VISIBLE
100
AcDbLine
 10
4.27140526711766
 20
5.517626918986089
 30
0.0
 11
4.330460385227896
 21
5.517626918986089
 31
0.0
  0
LINE
  5
F9
330
1F
100
AcDbEntity
  8
VISIBLE
100
AcDbLine
 10
4.337906252709578
 20
5.547385096864459
 30
0.0
 11
4.377276331449736
 21
5.547385096864459
 31
0.0
  0
LINE
  5
FA
330
1F
100
AcDbEntity
  8
VISIBLE
100
AcDbLine
 10
4.377276331449736
 20
5.559688246470758
 30
0.0
 11
4.377276331449736
 21
5.547385096864459
 31
0.0
  0
LINE
  5
FB
330
1F
100
AcDbEntity
  8
VISIBLE
100
AcDbLine
 10
4.337906252709578
 20
5.559688246470758
 30
0.0
 11
4.377276331449736
 21
5.559688246470758
 31
0.0
  0
LINE
  5
FC
330
1F
100
AcDbEntity
  8
VISIBLE
100
AcDbLine
 10
4.337906252709578
 20
5.559688246470758
 30
0.0
 11
4.337906252709578
 21
5.547385096864459
 31
0.0
  0
LINE
  5
FD
330
1F
100
AcDbEntity
  8
VISIBLE
100
AcDbLine
 10
4.380517004366471
 20
5.547259713077455
 30
0.0
 11
4.419887083106628
 21
5.547259713077455
 31
0.0
  0
LINE
  5
FE
330
1F
100
AcDbEntity
  8
VISIBLE
100
AcDbLine
 10
4.419887083106628
 20
5.559562862683754
 30
0.0
 11
4.419887083106628
 21
5.547259713077455
 31
0.0
  0
LINE
  5
FF
330
1F
100
AcDbEntity
  8
VISIBLE
100
AcDbLine
 10
4.380517004366471
 20
5.559562862683754
 30
0.0
 11
4.419887083106628
 21
5.559562862683754
 31
0.0
  0
LINE
  5
100
330
1F
100
AcDbEntity
  8
VISIBLE
100
AcDbLine
 10
4.380517004366471
 20
5.559562862683754
 30
0.0
 11
4.380517004366471
 21
5.547259713077455
 31
0.0
  0
LINE
  5
101
330
1F
100
AcDbEntity
  8
VISIBLE
100
AcDbLine
 10
4.144659157966196
 20
4.983372349073804
 30
0.0
 11
4.218478055603991
 21
4.983372349073804
 31
0.0
  0
LINE
  5
102
330
1F
100
AcDbEntity
  8
VISIBLE
100
AcDbLine
 10
4.218478055603991
 20
5.04242746718404
 30
0.0
 11
4.218478055603991
 21
4.983372349073804
 31
0.0
  0
LINE
  5
103
330
1F
100
AcDbEntity
  8
VISIBLE
100
AcDbLine
 10
4.144659157966196
 20
5.04242746718404
 30
0.0
 11
4.218478055603991
 21
5.04242746718404
 31
0.0
  0
LINE
  5
104
330
1F
100
AcDbEntity
  8
VISIBLE
100
AcDbLine
 10
4.144659157966196
 20
5.04242746718404
 30
0.0
 11
4.144659157966196
 21
4.983372349073804
 31
0.0
  0
LINE
  5
105
330
1F
100
AcDbEntity
  8
VISIBLE
100
AcDbLine
 10
4.423070914156225
 20
5.517863789789673
 30
0.0
 11
4.455059103132603
 21
5.517863789789672
 31
0.0
  0
LINE
  5
106
330
1F
100
AcDbEntity
  8
VISIBLE
100
AcDbLine
 10
4.455059103132603
 20
5.55969449845109
 30
0.0
 11
4.455059103132603
 21
5.517863789789672
 31
0.0
  0
LINE
  5
107
330
1F
100
AcDbEntity
  8
VISIBLE
100
AcDbLine
 10
4.423070914156225
 20
5.55969449845109
 30
0.0
 11
4.455059103132603
 21
5.55969449845109
 31
0.0
  0
LINE
  5
108
330
1F
100
AcDbEntity
  8
VISIBLE
100
AcDbLine
 10
4.423070914156225
 20
5.55969449845109
 30
0.0
 11
4.423070914156225
 21
5.517863789789673
 31
0.0
  0
LINE
  5
109
330
1F
100
AcDbEntity
  8
VISIBLE
100
AcDbLine
 10
4.380312796734917
 20
5.517456541804413
 30
0.0
 11
4.419682875475075
 21
5.517456541804413
 31
0.0
  0
LINE
  5
10A
330
1F
100
AcDbEntity
  8
VISIBLE
100
AcDbLine
 10
4.419682875475075
 20
5.542062841017011
 30
0.0
 11
4.419682875475075
 21
5.517456541804413
 31
0.0
  0
LINE
  5
10B
330
1F
100
AcDbEntity
  8
VISIBLE
100
AcDbLine
 10
4.380312796734917
 20
5.542062841017011
 30
0.0
 11
4.419682875475075
 21
5.542062841017011
 31
0.0
  0
LINE
  5
10C
330
1F
100
AcDbEntity
  8
VISIBLE
100
AcDbLine
 10
4.380312796734917
 20
5.542062841017011
 30
0.0
 11
4.380312796734917
 21
5.517456541804413
 31
0.0
  0
LINE
  5
10D
330
1F
100
AcDbEntity
  8
VISIBLE
100
AcDbLine
 10
4.338321949135904
 20
5.517433875543758
 30
0.0
 11
4.377692027876061
 21
5.517433875543758
 31
0.0
  0
LINE
  5
10E
330
1F
100
AcDbEntity
  8
VISIBLE
100
AcDbLine
 10
4.377692027876061
 20
5.542040174756357
 30
0.0
 11
4.377692027876061
 21
5.517433875543758
 31
0.0
  0
LINE
  5
10F
330
1F
100
AcDbEntity
  8
VISIBLE
100
AcDbLine
 10
4.338321949135904
 20
5.542040174756357
 30
0.0
 11
4.377692027876061
 21
5.542040174756357
 31
0.0
  0
LINE
  5
110
330
1F
100
AcDbEntity
  8
VISIBLE
100
AcDbLine
 10
4.338321949135904
 20
5.542040174756357
 30
0.0
 11
4.338321949135904
 21
5.517433875543758
 31
0.0
  0
LINE
  5
111
330
1F
100
AcDbEntity
  8
VISIBLE
100
AcDbLine
 10
4.680133265456946
 20
5.043497708473854
 30
0.0
 11
4.680133265456946
 21
4.984442590363618
 31
0.0
  0
LINE
  5
112
330
1F
100
AcDbEntity
  8
VISIBLE
100
AcDbLine
 10
4.729345863882142
 20
4.984442590363618
 30
0.0
 11
4.680133265456946
 21
4.984442590363618
 31
0.0
  0
LINE
  5
113
330
1F
100
AcDbEntity
  8
VISIBLE
100
AcDbLine
 10
4.729345863882142
 20
5.043497708473854
 30
0.0
 11
4.729345863882142
 21
4.984442590363618
 31
0.0
  0
LINE
  5
114
330
1F
100
AcDbEntity
  8
VISIBLE
100
AcDbLine
 10
4.729345863882142
 20
5.043497708473854
 30
0.0
 11
4.680133265456946
 21
5.043497708473854
 31
0.0
  0
LINE
  5
115
330
1F
100
AcDbEntity
  8
VISIBLE
100
AcDbLine
 10
4.680520534316516
 20
4.913581775620464
 30
0.0
 11
4.729733132741713
 21
4.913581775620464
 31
0.0
  0
LINE
  5
116
330
1F
100
AcDbEntity
  8
VISIBLE
100
AcDbLine
 10
4.729733132741713
 20
4.9726368937307
 30
0.0
 11
4.729733132741713
 21
4.913581775620464
 31
0.0
  0
LINE
  5
117
330
1F
100
AcDbEntity
  8
VISIBLE
100
AcDbLine
 10
4.680520534316516
 20
4.9726368937307
 30
0.0
 11
4.729733132741713
 21
4.9726368937307
 31
0.0
  0
LINE
  5
118
330
1F
100
AcDbEntity
  8
VISIBLE
100
AcDbLine
 10
4.680520534316516
 20
4.9726368937307
 30
0.0
 11
4.680520534316516
 21
4.913581775620464
 31
0.0
  0
LINE
  5
119
330
1F
100
AcDbEntity
  8
VISIBLE
100
AcDbLine
 10
4.510401852875374
 20
5.449148428708785
 30
0.0
 11
4.559614451300571
 21
5.449148428708785
 31
0.0
  0
LINE
  5
11A
330
1F
100
AcDbEntity
  8
VISIBLE
100
AcDbLine
 10
4.559614451300571
 20
5.52296732634658
 30
0.0
 11
4.559614451300571
 21
5.449148428708785
 31
0.0
  0
LINE
  5
11B
330
1F
100
AcDbEntity
  8
VISIBLE
100
AcDbLine
 10
4.510401852875374
 20
5.52296732634658
 30
0.0
 11
4.559614451300571
 21
5.52296732634658
 31
0.0
  0
LINE
  5
11C
330
1F
100
AcDbEntity
  8
VISIBLE
100
AcDbLine
 10
4.510401852875374
 20
5.52296732634658
 30
0.0
 11
4.510401852875374
 21
5.449148428708785
 31
0.0
  0
LINE
  5
11D
330
1F
100
AcDbEntity
  8
VISIBLE
100
AcDbLine
 10
4.681021395197195
 20
5.499943586918783
 30
0.0
 11
4.705627694409793
 21
5.499943586918783
 31
0.0
  0
LINE
  5
11E
330
1F
100
AcDbEntity
  8
VISIBLE
100
AcDbLine
 10
4.705627694409793
 20
5.524549886131382
 30
0.0
 11
4.705627694409793
 21
5.499943586918783
 31
0.0
  0
LINE
  5
11F
330
1F
100
AcDbEntity
  8
VISIBLE
100
AcDbLine
 10
4.681021395197195
 20
5.524549886131382
 30
0.0
 11
4.705627694409793
 21
5.524549886131382
 31
0.0
  0
LINE
  5
120
330
1F
100
AcDbEntity
  8
VISIBLE
100
AcDbLine
 10
4.681021395197195
 20
5.524549886131382
 30
0.0
 11
4.681021395197195
 21
5.499943586918783
 31
0.0
  0
LINE
  5
121
330
1F
100
AcDbEntity
  8
VISIBLE
100
AcDbLine
 10
4.713507686579451
 20
5.499691048169466
 30
0.0
 11
4.73811398579205
 21
5.499691048169466
 31
0.0
  0
LINE
  5
122
330
1F
100
AcDbEntity
  8
VISIBLE
100
AcDbLine
 10
4.73811398579205
 20
5.524297347382064
 30
0.0
 11
4.73811398579205
 21
5.499691048169466
 31
0.0
  0
LINE
  5
123
330
1F
100
AcDbEntity
  8
VISIBLE
100
AcDbLine
 10
4.713507686579451
 20
5.524297347382064
 30
0.0
 11
4.73811398579205
 21
5.524297347382064
 31
0.0
  0
LINE
  5
124
330
1F
100
AcDbEntity
  8
VISIBLE
100
AcDbLine
 10
4.713507686579451
 20
5.524297347382064
 30
0.0
 11
4.713507686579451
 21
5.499691048169466
 31
0.0
  0
LINE
  5
125
330
1F
100
AcDbEntity
  8
VISIBLE
100
AcDbLine
 10
4.684497281710124
 20
5.45087997370583
 30
0.0
 11
4.733709880135321
 21
5.45087997370583
 31
0.0
  0
LINE
  5
126
330
1F
100
AcDbEntity
  8
VISIBLE
100
AcDbLine
 10
4.733709880135321
 20
5.492710682367247
 30
0.0
 11
4.733709880135321
 21
5.45087997370583
 31
0.0
  0
LINE
  5
127
330
1F
100
AcDbEntity
  8
VISIBLE
100
AcDbLine
 10
4.684497281710124
 20
5.492710682367247
 30
0.0
 11
4.733709880135321
 21
5.492710682367247
 31
0.0
  0
LINE
  5
128
330
1F
100
AcDbEntity
  8
VISIBLE
100
AcDbLine
 10
4.684497281710124
 20
5.492710682367247
 30
0.0
 11
4.684497281710124
 21
5.45087997370583
 31
0.0
  0
LINE
  5
129
330
1F
100
AcDbEntity
  8
VISIBLE
100
AcDbLine
 10
4.913614368263322
 20
5.518152011836498
 30
0.0
 11
4.972669486373558
 21
5.518152011836498
 31
0.0
  0
LINE
  5
12A
330
1F
100
AcDbEntity
  8
VISIBLE
100
AcDbLine
 10
4.972669486373558
 20
5.559982720497915
 30
0.0
 11
4.972669486373558
 21
5.518152011836498
 31
0.0
  0
LINE
  5
12B
330
1F
100
AcDbEntity
  8
VISIBLE
100
AcDbLine
 10
4.913614368263322
 20
5.559982720497915
 30
0.0
 11
4.972669486373558
 21
5.559982720497915
 31
0.0
  0
LINE
  5
12C
330
1F
100
AcDbEntity
  8
VISIBLE
100
AcDbLine
 10
4.913614368263322
 20
5.559982720497915
 30
0.0
 11
4.913614368263322
 21
5.518152011836498
 31
0.0
  0
LINE
  5
12D
330
1F
100
AcDbEntity
  8
VISIBLE
100
AcDbLine
 10
4.826279337165054
 20
5.547997264825145
 30
0.0
 11
4.865649415905212
 21
5.547997264825145
 31
0.0
  0
LINE
  5
12E
330
1F
100
AcDbEntity
  8
VISIBLE
100
AcDbLine
 10
4.865649415905212
 20
5.560300414431445
 30
0.0
 11
4.865649415905212
 21
5.547997264825145
 31
0.0
  0
LINE
  5
12F
330
1F
100
AcDbEntity
  8
VISIBLE
100
AcDbLine
 10
4.826279337165054
 20
5.560300414431445
 30
0.0
 11
4.865649415905212
 21
5.560300414431445
 31
0.0
  0
LINE
  5
130
330
1F
100
AcDbEntity
  8
VISIBLE
100
AcDbLine
 10
4.826279337165054
 20
5.560300414431445
 30
0.0
 11
4.826279337165054
 21
5.547997264825145
 31
0.0
  0
LINE
  5
131
330
1F
100
AcDbEntity
  8
VISIBLE
100
AcDbLine
 10
4.142429190393639
 20
4.915630428620916
 30
0.0
 11
4.216248088031433
 21
4.915630428620916
 31
0.0
  0
LINE
  5
132
330
1F
100
AcDbEntity
  8
VISIBLE
100
AcDbLine
 10
4.216248088031433
 20
4.974685546731152
 30
0.0
 11
4.216248088031433
 21
4.915630428620916
 31
0.0
  0
LINE
  5
133
330
1F
100
AcDbEntity
  8
VISIBLE
100
AcDbLine
 10
4.142429190393639
 20
4.974685546731152
 30
0.0
 11
4.216248088031433
 21
4.974685546731152
 31
0.0
  0
LINE
  5
134
330
1F
100
AcDbEntity
  8
VISIBLE
100
AcDbLine
 10
4.142429190393639
 20
4.974685546731152
 30
0.0
 11
4.142429190393639
 21
4.915630428620916
 31
0.0
  0
LINE
  5
135
330
1F
100
AcDbEntity
  8
VISIBLE
100
AcDbLine
 10
4.221731820949549
 20
4.915630428620916
 30
0.0
 11
4.295550718587345
 21
4.915630428620916
 31
0.0
  0
LINE
  5
136
330
1F
100
AcDbEntity
  8
VISIBLE
100
AcDbLine
 10
4.295550718587345
 20
4.974685546731152
 30
0.0
 11
4.295550718587345
 21
4.915630428620916
 31
0.0
  0
LINE
  5
137
330
1F
100
AcDbEntity
  8
VISIBLE
100
AcDbLine
 10
4.221731820949549
 20
4.974685546731152
 30
0.0
 11
4.295550718587345
 21
4.974685546731152
 31
0.0
  0
LINE
  5
138
330
1F
100
AcDbEntity
  8
VISIBLE
100
AcDbLine
 10
4.221731820949549
 20
4.974685546731152
 30
0.0
 11
4.221731820949549
 21
4.915630428620916
 31
0.0
  0
LINE
  5
139
330
1F
100
AcDbEntity
  8
VISIBLE
100
AcDbLine
 10
4.302345563026055
 20
4.982747344947238
 30
0.0
 11
4.37616446066385
 21
4.982747344947238
 31
0.0
  0
LINE
  5
13A
330
1F
100
AcDbEntity
  8
VISIBLE
100
AcDbLine
 10
4.37616446066385
 20
5.041802463057474
 30
0.0
 11
4.37616446066385
 21
4.982747344947238
 31
0.0
  0
LINE
  5
13B
330
1F
100
AcDbEntity
  8
VISIBLE
100
AcDbLine
 10
4.302345563026055
 20
5.041802463057474
 30
0.0
 11
4.37616446066385
 21
5.041802463057474
 31
0.0
  0
LINE
  5
13C
330
1F
100
AcDbEntity
  8
VISIBLE
100
AcDbLine
 10
4.302345563026055
 20
5.041802463057474
 30
0.0
 11
4.302345563026055
 21
4.982747344947238
 31
0.0
  0
LINE
  5
13D
330
1F
100
AcDbEntity
  8
VISIBLE
100
AcDbLine
 10
4.383302647802903
 20
4.982747344947238
 30
0.0
 11
4.457121545440699
 21
4.982747344947238
 31
0.0
  0
LINE
  5
13E
330
1F
100
AcDbEntity
  8
VISIBLE
100
AcDbLine
 10
4.457121545440699
 20
5.041802463057474
 30
0.0
 11
4.457121545440699
 21
4.982747344947238
 31
0.0
  0
LINE
  5
13F
330
1F
100
AcDbEntity
  8
VISIBLE
100
AcDbLine
 10
4.383302647802903
 20
5.041802463057474
 30
0.0
 11
4.457121545440699
 21
5.041802463057474
 31
0.0
  0
LINE
  5
140
330
1F
100
AcDbEntity
  8
VISIBLE
100
AcDbLine
 10
4.383302647802903
 20
5.041802463057474
 30
0.0
 11
4.383302647802903
 21
4.982747344947238
 31
0.0
  0
LINE
  5
141
330
1F
100
AcDbEntity
  8
VISIBLE
100
AcDbLine
 10
4.383263928250195
 20
4.916125532901429
 30
0.0
 11
4.457082825887991
 21
4.916125532901429
 31
0.0
  0
LINE
  5
142
330
1F
100
AcDbEntity
  8
VISIBLE
100
AcDbLine
 10
4.457082825887991
 20
4.975180651011665
 30
0.0
 11
4.457082825887991
 21
4.916125532901429
 31
0.0
  0
LINE
  5
143
330
1F
100
AcDbEntity
  8
VISIBLE
100
AcDbLine
 10
4.383263928250195
 20
4.975180651011665
 30
0.0
 11
4.457082825887991
 21
4.975180651011665
 31
0.0
  0
LINE
  5
144
330
1F
100
AcDbEntity
  8
VISIBLE
100
AcDbLine
 10
4.383263928250195
 20
4.975180651011665
 30
0.0
 11
4.383263928250195
 21
4.916125532901429
 31
0.0
  0
LINE
  5
145
330
1F
100
AcDbEntity
  8
VISIBLE
100
AcDbLine
 10
4.302224344426383
 20
4.916125587900794
 30
0.0
 11
4.376043242064178
 21
4.916125587900794
 31
0.0
  0
LINE
  5
146
330
1F
100
AcDbEntity
  8
VISIBLE
100
AcDbLine
 10
4.376043242064178
 20
4.97518070601103
 30
0.0
 11
4.376043242064178
 21
4.916125587900794
 31
0.0
  0
LINE
  5
147
330
1F
100
AcDbEntity
  8
VISIBLE
100
AcDbLine
 10
4.302224344426383
 20
4.97518070601103
 30
0.0
 11
4.376043242064178
 21
4.97518070601103
 31
0.0
  0
LINE
  5
148
330
1F
100
AcDbEntity
  8
VISIBLE
100
AcDbLine
 10
4.302224344426383
 20
4.97518070601103
 30
0.0
 11
4.302224344426383
 21
4.916125587900794
 31
0.0
  0
LINE
  5
149
330
1F
100
AcDbEntity
  8
VISIBLE
100
AcDbLine
 10
4.51667632705878
 20
4.982747344947238
 30
0.0
 11
4.565888925483977
 21
4.982747344947238
 31
0.0
  0
LINE
  5
14A
330
1F
100
AcDbEntity
  8
VISIBLE
100
AcDbLine
 10
4.565888925483977
 20
5.041802463057474
 30
0.0
 11
4.565888925483977
 21
4.982747344947238
 31
0.0
  0
LINE
  5
14B
330
1F
100
AcDbEntity
  8
VISIBLE
100
AcDbLine
 10
4.51667632705878
 20
5.041802463057474
 30
0.0
 11
4.565888925483977
 21
5.041802463057474
 31
0.0
  0
LINE
  5
14C
330
1F
100
AcDbEntity
  8
VISIBLE
100
AcDbLine
 10
4.51667632705878
 20
5.041802463057474
 30
0.0
 11
4.51667632705878
 21
4.982747344947238
 31
0.0
  0
LINE
  5
14D
330
1F
100
AcDbEntity
  8
VISIBLE
100
AcDbLine
 10
4.515901936004611
 20
4.914460445469994
 30
0.0
 11
4.565114534429808
 21
4.914460445469994
 31
0.0
  0
LINE
  5
14E
330
1F
100
AcDbEntity
  8
VISIBLE
100
AcDbLine
 10
4.565114534429808
 20
4.97351556358023
 30
0.0
 11
4.565114534429808
 21
4.914460445469994
 31
0.0
  0
LINE
  5
14F
330
1F
100
AcDbEntity
  8
VISIBLE
100
AcDbLine
 10
4.515901936004611
 20
4.97351556358023
 30
0.0
 11
4.565114534429808
 21
4.97351556358023
 31
0.0
  0
LINE
  5
150
330
1F
100
AcDbEntity
  8
VISIBLE
100
AcDbLine
 10
4.515901936004611
 20
4.97351556358023
 30
0.0
 11
4.515901936004611
 21
4.914460445469994
 31
0.0
  0
LINE
  5
151
330
1F
100
AcDbEntity
  8
VISIBLE
100
AcDbLine
 10
4.628355330362609
 20
5.135720795254271
 30
0.0
 11
4.628896383326054
 21
4.914264763279921
 31
0.0
  0
LINE
  5
152
330
1F
100
AcDbEntity
  8
VISIBLE
100
AcDbLine
 10
4.670726967143431
 20
4.914366962173016
 30
0.0
 11
4.628896383326054
 21
4.914264763279921
 31
0.0
  0
LINE
  5
153
330
1F
100
AcDbEntity
  8
VISIBLE
100
AcDbLine
 10
4.670185914179987
 20
5.135822994147366
 30
0.0
 11
4.670726967143431
 21
4.914366962173016
 31
0.0
  0
LINE
  5
154
330
1F
100
AcDbEntity
  8
VISIBLE
100
AcDbLine
 10
4.670185914179987
 20
5.135822994147366
 30
0.0
 11
4.628355330362609
 21
5.135720795254271
 31
0.0
  0
LINE
  5
155
330
1F
100
AcDbEntity
  8
VISIBLE
100
AcDbLine
 10
4.13140445775229
 20
5.203609718942913
 30
0.0
 11
4.475892646728668
 21
5.203609718942913
 31
0.0
  0
LINE
  5
156
330
1F
100
AcDbEntity
  8
VISIBLE
100
AcDbLine
 10
4.475892646728668
 20
5.466897120517716
 30
0.0
 11
4.475892646728668
 21
5.203609718942913
 31
0.0
  0
LINE
  5
157
330
1F
100
AcDbEntity
  8
VISIBLE
100
AcDbLine
 10
4.13140445775229
 20
5.466897120517716
 30
0.0
 11
4.475892646728668
 21
5.466897120517716
 31
0.0
  0
LINE
  5
158
330
1F
100
AcDbEntity
  8
VISIBLE
100
AcDbLine
 10
4.13140445775229
 20
5.466897120517716
 30
0.0
 11
4.13140445775229
 21
5.203609718942913
 31
0.0
  0
LINE
  5
159
330
1F
100
AcDbEntity
  8
VISIBLE
100
AcDbLine
 10
4.064710107007116
 20
5.213581885201931
 30
0.0
 11
4.111462075511053
 21
5.213581885201931
 31
0.0
  0
LINE
  5
15A
330
1F
100
AcDbEntity
  8
VISIBLE
100
AcDbLine
 10
4.111462075511053
 20
5.452262987564136
 30
0.0
 11
4.111462075511053
 21
5.213581885201931
 31
0.0
  0
LINE
  5
15B
330
1F
100
AcDbEntity
  8
VISIBLE
100
AcDbLine
 10
4.064710107007116
 20
5.452262987564136
 30
0.0
 11
4.111462075511053
 21
5.452262987564136
 31
0.0
  0
LINE
  5
15C
330
1F
100
AcDbEntity
  8
VISIBLE
100
AcDbLine
 10
4.064710107007116
 20
5.452262987564136
 30
0.0
 11
4.064710107007116
 21
5.213581885201931
 31
0.0
  0
LINE
  5
15D
330
1F
100
AcDbEntity
  8
VISIBLE
100
AcDbLine
 10
5.136830462985281
 20
5.452262987564136
 30
0.0
 11
5.136830462985282
 21
5.213581885201931
 31
0.0
  0
LINE
  5
15E
330
1F
100
AcDbEntity
  8
VISIBLE
100
AcDbLine
 10
5.183582431489218
 20
5.213581885201931
 30
0.0
 11
5.136830462985282
 21
5.213581885201931
 31
0.0
  0
LINE
  5
15F
330
1F
100
AcDbEntity
  8
VISIBLE
100
AcDbLine
 10
5.183582431489218
 20
5.452262987564136
 30
0.0
 11
5.183582431489218
 21
5.213581885201931
 31
0.0
  0
LINE
  5
160
330
1F
100
AcDbEntity
  8
VISIBLE
100
AcDbLine
 10
5.183582431489218
 20
5.452262987564136
 30
0.0
 11
5.136830462985281
 21
5.452262987564136
 31
0.0
  0
LINE
  5
161
330
1F
100
AcDbEntity
  8
VISIBLE
100
AcDbLine
 10
4.574624622373545
 20
4.91424956554946
 30
0.0
 11
4.616455331034961
 21
4.91424956554946
 31
0.0
  0
LINE
  5
162
330
1F
100
AcDbEntity
  8
VISIBLE
100
AcDbLine
 10
4.616455331034961
 20
5.135706258462847
 30
0.0
 11
4.616455331034961
 21
4.91424956554946
 31
0.0
  0
LINE
  5
163
330
1F
100
AcDbEntity
  8
VISIBLE
100
AcDbLine
 10
4.574624622373545
 20
5.135706258462847
 30
0.0
 11
4.616455331034961
 21
5.135706258462847
 31
0.0
  0
LINE
  5
164
330
1F
100
AcDbEntity
  8
VISIBLE
100
AcDbLine
 10
4.574624622373545
 20
5.135706258462847
 30
0.0
 11
4.574624622373545
 21
4.91424956554946
 31
0.0
  0
LINE
  5
165
330
1F
100
AcDbEntity
  8
VISIBLE
100
AcDbLine
 10
4.203714276076432
 20
5.517626918986089
 30
0.0
 11
4.203714276076432
 21
5.559457627647507
 31
0.0
  0
LINE
  5
166
330
1F
100
AcDbEntity
  8
VISIBLE
100
AcDbLine
 10
4.144659157966196
 20
5.559457627647507
 30
0.0
 11
4.203714276076432
 21
5.559457627647507
 31
0.0
  0
LINE
  5
167
330
1F
100
AcDbEntity
  8
VISIBLE
100
AcDbLine
 10
4.144659157966196
 20
5.517626918986089
 30
0.0
 11
4.144659157966196
 21
5.559457627647507
 31
0.0
  0
LINE
  5
168
330
1F
100
AcDbEntity
  8
VISIBLE
100
AcDbLine
 10
4.144659157966196
 20
5.517626918986089
 30
0.0
 11
4.203714276076432
 21
5.517626918986089
 31
0.0
  0
LINE
  5
169
330
1F
100
AcDbEntity
  8
VISIBLE
100
AcDbLine
 10
5.38303017479367
 20
5.721383128096974
 30
0.0
 11
5.38303017479367
 21
5.598351632033982
 31
0.0
  0
LINE
  5
16A
330
1F
100
AcDbEntity
  8
VISIBLE
100
AcDbLine
 10
6.613345135423592
 20
5.721383128096974
 30
0.0
 11
5.38303017479367
 21
5.721383128096974
 31
0.0
  0
LINE
  5
16B
330
1F
100
AcDbEntity
  8
VISIBLE
100
AcDbLine
 10
6.613345135423592
 20
5.721383128096974
 30
0.0
 11
6.613345135423592
 21
5.598351632033983
 31
0.0
  0
LINE
  5
16C
330
1F
100
AcDbEntity
  8
VISIBLE
100
AcDbLine
 10
6.736376631486584
 20
5.598351632033983
 30
0.0
 11
6.613345135423592
 21
5.598351632033983
 31
0.0
  0
LINE
  5
16D
330
1F
100
AcDbEntity
  8
VISIBLE
100
AcDbLine
 10
6.736376631486584
 20
5.598351632033983
 30
0.0
 11
6.736376631486584
 21
4.884768954868628
 31
0.0
  0
LINE
  5
16E
330
1F
100
AcDbEntity
  8
VISIBLE
100
AcDbLine
 10
6.736376631486584
 20
4.884768954868628
 30
0.0
 11
6.613345135423592
 21
4.884768954868628
 31
0.0
  0
LINE
  5
16F
330
1F
100
AcDbEntity
  8
VISIBLE
100
AcDbLine
 10
6.613345135423592
 20
4.761737458805635
 30
0.0
 11
6.613345135423592
 21
4.884768954868628
 31
0.0
  0
LINE
  5
170
330
1F
100
AcDbEntity
  8
VISIBLE
100
AcDbLine
 10
6.613345135423592
 20
4.761737458805635
 30
0.0
 11
5.383030174793671
 21
4.761737458805635
 31
0.0
  0
LINE
  5
171
330
1F
100
AcDbEntity
  8
VISIBLE
100
AcDbLine
 10
5.383030174793671
 20
4.761737458805635
 30
0.0
 11
5.383030174793671
 21
4.884768954868628
 31
0.0
  0
LINE
  5
172
330
1F
100
AcDbEntity
  8
VISIBLE
100
AcDbLine
 10
4.029683718100757
 20
4.884768954868628
 30
0.0
 11
5.383030174793671
 21
4.884768954868628
 31
0.0
  0
LINE
  5
173
330
1F
100
AcDbEntity
  8
VISIBLE
100
AcDbLine
 10
4.029683718100757
 20
5.598351632033982
 30
0.0
 11
4.029683718100757
 21
4.884768954868628
 31
0.0
  0
LINE
  5
174
330
1F
100
AcDbEntity
  8
VISIBLE
100
AcDbLine
 10
4.029683718100757
 20
5.598351632033982
 30
0.0
 11
5.38303017479367
 21
5.598351632033982
 31
0.0
  0
CIRCLE
  5
175
330
1F
100
AcDbEntity
  8
VISIBLE
100
AcDbCircle
 10
4.709610035323712
 20
5.558279983510333
 30
0.0
 40
0.0295275590551181
  0
CIRCLE
  5
176
330
1F
100
AcDbEntity
  8
VISIBLE
100
AcDbCircle
 10
4.533474600657538
 20
5.558129920531458
 30
0.0
 40
0.0295275590551181
  0
CIRCLE
  5
177
330
1F
100
AcDbEntity
  8
VISIBLE
100
AcDbCircle
 10
4.533457360204816
 20
5.41441815524304
 30
0.0
 40
0.0276892531258531
  0
CIRCLE
  5
178
330
1F
100
AcDbEntity
  8
VISIBLE
100
AcDbCircle
 10
4.709503846269917
 20
5.41408021663081
 30
0.0
 40
0.0295275590551181
  0
CIRCLE
  5
179
330
1F
100
AcDbEntity
  8
VISIBLE
100
AcDbCircle
 10
4.622046601444818
 20
5.481149277116748
 30
0.0
 40
0.0369094488188977
  0
LINE
  5
17A
330
1F
100
AcDbEntity
  8
VISIBLE
100
AcDbLine
 10
4.766544340391214
 20
5.467949868938352
 30
0.0
 11
4.768451583775549
 21
5.204669375451492
 31
0.0
  0
LINE
  5
17B
330
1F
100
AcDbEntity
  8
VISIBLE
100
AcDbLine
 10
5.112930734132189
 20
5.207164834085201
 30
0.0
 11
4.768451583775549
 21
5.204669375451492
 31
0.0
  0
LINE
  5
17C
330
1F
100
AcDbEntity
  8
VISIBLE
100
AcDbLine
 10
5.111023490747854
 20
5.470445327572062
 30
0.0
 11
5.112930734132189
 21
5.207164834085201
 31
0.0
  0
LINE
  5
17D
330
1F
100
AcDbEntity
  8
VISIBLE
100
AcDbLine
 10
5.111023490747854
 20
5.470445327572062
 30
0.0
 11
4.766544340391214
 21
5.467949868938352
 31
0.0
  0
CIRCLE
  5
17E
330
1F
100
AcDbEntity
  8
VISIBLE
100
AcDbCircle
 10
4.534100668414341
 20
5.141769504407152
 30
0.0
 40
0.0295275590551181
  0
CIRCLE
  5
17F
330
1F
100
AcDbEntity
  8
VISIBLE
100
AcDbCircle
 10
4.709510185393757
 20
5.14169805630528
 30
0.0
 40
0.0295275590551181
  0
CIRCLE
  5
180
330
1F
100
AcDbEntity
  8
VISIBLE
100
AcDbCircle
 10
4.622330212116193
 20
5.197206538363109
 30
0.0
 40
0.0369094488188977
  0
CIRCLE
  5
181
330
1F
100
AcDbEntity
  8
VISIBLE
100
AcDbCircle
 10
4.709761297666748
 20
5.347036331584101
 30
0.0
 40
0.0295275590551181
  0
CIRCLE
  5
182
330
1F
100
AcDbEntity
  8
VISIBLE
100
AcDbCircle
 10
4.709774575359443
 20
5.2820719173384
 30
0.0
 40
0.0295275590551181
  0
CIRCLE
  5
183
330
1F
100
AcDbEntity
  8
VISIBLE
100
AcDbCircle
 10
4.53180910657402
 20
5.348748927555305
 30
0.0
 40
0.0295275590551181
  0
CIRCLE
  5
184
330
1F
100
AcDbEntity
  8
VISIBLE
100
AcDbCircle
 10
4.532464635214986
 20
5.282164728088279
 30
0.0
 40
0.0295275590551181
  0
CIRCLE
  5
185
330
1F
100
AcDbEntity
  8
VISIBLE
100
AcDbCircle
 10
4.53446077722073
 20
5.215103789064174
 30
0.0
 40
0.0295275590551181
  0
CIRCLE
  5
186
330
1F
100
AcDbEntity
  8
VISIBLE
100
AcDbCircle
 10
4.709444060814489
 20
5.214594671996132
 30
0.0
 40
0.0295275590551181
  0
CIRCLE
  5
187
330
1F
100
AcDbEntity
  8
VISIBLE
100
AcDbCircle
 10
4.621603978071426
 20
5.360995668338251
 30
0.0
 40
0.0369094488188977
  0
CIRCLE
  5
188
330
1F
100
AcDbEntity
  8
VISIBLE
100
AcDbCircle
 10
4.620656597823459
 20
5.279948356033659
 30
0.0
 40
0.0369094488188977
  0
CIRCLE
  5
189
330
1F
100
AcDbEntity
  8
VISIBLE
100
AcDbCircle
 10
5.68705518007573
 20
5.659867380065478
 30
0.0
 40
0.0140081705104496
  0
LINE
  5
18A
330
1F
100
AcDbEntity
  8
VISIBLE
100
AcDbLine
 10
5.502862643997791
 20
5.646158389022321
 30
0.0
 11
5.510984319154126
 21
5.659509217095293
 31
0.0
  0
LINE
  5
18B
330
1F
100
AcDbEntity
  8
VISIBLE
100
AcDbLine
 10
5.510984319154126
 20
5.659509217095293
 30
0.0
 11
5.503483000459541
 21
5.673218208138451
 31
0.0
  0
LINE
  5
18C
330
1F
100
AcDbEntity
  8
VISIBLE
100
AcDbLine
 10
5.503483000459541
 20
5.673218208138451
 30
0.0
 11
5.487860006608621
 21
5.673576371108635
 31
0.0
  0
LINE
  5
18D
330
1F
100
AcDbEntity
  8
VISIBLE
100
AcDbLine
 10
5.487860006608621
 20
5.673576371108635
 30
0.0
 11
5.479738331452285
 21
5.660225543035663
 31
0.0
  0
LINE
  5
18E
330
1F
100
AcDbEntity
  8
VISIBLE
100
AcDbLine
 10
5.479738331452285
 20
5.660225543035663
 30
0.0
 11
5.487239650146871
 21
5.646516551992505
 31
0.0
  0
LINE
  5
18F
330
1F
100
AcDbEntity
  8
VISIBLE
100
AcDbLine
 10
5.487239650146871
 20
5.646516551992505
 30
0.0
 11
5.502862643997791
 21
5.646158389022321
 31
0.0
  0
LINE
  5
190
330
1F
100
AcDbEntity
  8
BORDER_FRAME
100
AcDbLine
 10
0.399
 20
0.38
 30
0.0
 11
0.399
 21
8.12
 31
0.0
  0
LINE
  5
193
330
1F
100
AcDbEntity
  8
BORDER_FRAME
100
AcDbLine
 10
0.399
 20
8.12
 30
0.0
 11
10.639
 21
8.12
 31
0.0
  0
LINE
  5
194
330
1F
100
AcDbEntity
  8
BORDER_FRAME
100
AcDbLine
 10
10.639
 20
8.12
 30
0.0
 11
10.639
 21
0.38
 31
0.0
  0
LINE
  5
195
330
1F
100
AcDbEntity
  8
BORDER_FRAME
100
AcDbLine
 10
10.639
 20
0.38
 30
0.0
 11
0.399
 21
0.38
 31
0.0
  0
LINE
  5
196
330
1F
100
AcDbEntity
  8
BORDER_ZONES
100
AcDbLine
 10
5.519
 20
0.38
 30
0.0
 11
5.519
 21
0.019
 31
0.0
  0
LINE
  5
198
330
1F
100
AcDbEntity
  8
BORDER_ZONES
100
AcDbLine
 10
5.519
 20
8.12
 30
0.0
 11
5.519
 21
8.481
 31
0.0
  0
MTEXT
  5
199
330
1F
100
AcDbEntity
  8
BORDER_ZONES
100
AcDbMText
 10
2.769
 20
0.19
 30
0.0
 40
0.18
 41
0.0
 71
     5
 72
     1
  1
2
  7
ONSHAPE-STANDARD
  0
MTEXT
  5
19B
330
1F
100
AcDbEntity
  8
BORDER_ZONES
100
AcDbMText
 10
2.769
 20
8.309999999999999
 30
0.0
 40
0.18
 41
0.0
 71
     5
 72
     1
  1
2
  7
ONSHAPE-STANDARD
  0
MTEXT
  5
19C
330
1F
100
AcDbEntity
  8
BORDER_ZONES
100
AcDbMText
 10
8.269
 20
0.19
 30
0.0
 40
0.18
 41
0.0
 71
     5
 72
     1
  1
1
  7
ONSHAPE-STANDARD
  0
MTEXT
  5
19D
330
1F
100
AcDbEntity
  8
BORDER_ZONES
100
AcDbMText
 10
8.269
 20
8.309999999999999
 30
0.0
 40
0.18
 41
0.0
 71
     5
 72
     1
  1
1
  7
ONSHAPE-STANDARD
  0
LINE
  5
19E
330
1F
100
AcDbEntity
  8
BORDER_ZONES
100
AcDbLine
 10
0.399
 20
4.25
 30
0.0
 11
0.038
 21
4.25
 31
0.0
  0
LINE
  5
19F
330
1F
100
AcDbEntity
  8
BORDER_ZONES
100
AcDbLine
 10
10.639
 20
4.25
 30
0.0
 11
11.0
 21
4.25
 31
0.0
  0
MTEXT
  5
1A0
330
1F
100
AcDbEntity
  8
BORDER_ZONES
100
AcDbMText
 10
0.209
 20
2.125
 30
0.0
 40
0.18
 41
0.0
 71
     5
 72
     1
  1
A
  7
ONSHAPE-STANDARD
  0
MTEXT
  5
1A1
330
1F
100
AcDbEntity
  8
BORDER_ZONES
100
AcDbMText
 10
10.829
 20
2.125
 30
0.0
 40
0.18
 41
0.0
 71
     5
 72
     1
  1
A
  7
ONSHAPE-STANDARD
  0
MTEXT
  5
1A2
330
1F
100
AcDbEntity
  8
BORDER_ZONES
100
AcDbMText
 10
0.209
 20
6.375
 30
0.0
 40
0.18
 41
0.0
 71
     5
 72
     1
  1
B
  7
ONSHAPE-STANDARD
  0
MTEXT
  5
1A3
330
1F
100
AcDbEntity
  8
BORDER_ZONES
100
AcDbMText
 10
10.829
 20
6.375
 30
0.0
 40
0.18
 41
0.0
 71
     5
 72
     1
  1
B
  7
ONSHAPE-STANDARD
  0
LINE
  5
1A4
330
1F
100
AcDbEntity
  8
TITLE_BLOCK
100
AcDbLine
 10
4.563999999999999
 20
0.38
 30
0.0
 11
4.563999999999999
 21
1.88
 31
0.0
  0
LINE
  5
1A6
330
1F
100
AcDbEntity
  8
TITLE_BLOCK
100
AcDbLine
 10
4.563999999999999
 20
0.38
 30
0.0
 11
5.763999999999999
 21
0.38
 31
0.0
  0
LINE
  5
1A7
330
1F
100
AcDbEntity
  8
TITLE_BLOCK
100
AcDbLine
 10
4.563999999999999
 20
0.6799999999999999
 30
0.0
 11
5.763999999999999
 21
0.6799999999999999
 31
0.0
  0
LINE
  5
1A8
330
1F
100
AcDbEntity
  8
TITLE_BLOCK
100
AcDbLine
 10
4.563999999999999
 20
0.8
 30
0.0
 11
5.763999999999999
 21
0.8
 31
0.0
  0
LINE
  5
1A9
330
1F
100
AcDbEntity
  8
TITLE_BLOCK
100
AcDbLine
 10
4.563999999999999
 20
1.004
 30
0.0
 11
5.763999999999999
 21
1.004
 31
0.0
  0
LINE
  5
1AA
330
1F
100
AcDbEntity
  8
TITLE_BLOCK
100
AcDbLine
 10
4.563999999999999
 20
1.178
 30
0.0
 11
5.763999999999999
 21
1.178
 31
0.0
  0
LINE
  5
1AB
330
1F
100
AcDbEntity
  8
TITLE_BLOCK
100
AcDbLine
 10
4.563999999999999
 20
1.88
 30
0.0
 11
5.763999999999999
 21
1.88
 31
0.0
  0
MTEXT
  5
1AC
330
1F
100
AcDbEntity
  8
TITLE_BLOCK
100
AcDbMText
 10
4.590399999999999
 20
1.8368
 30
0.0
 40
0.048
 41
1.176
 71
     1
 72
     1
  1
UNLESS OTHERWISE SPECIFIED, DIMENSIONS ARE IN INCHES
  7
ONSHAPE-STANDARD
  0
MTEXT
  5
1AD
330
1F
100
AcDbEntity
  8
TITLE_BLOCK
100
AcDbMText
 10
4.590399999999999
 20
1.6568
 30
0.0
 40
0.048
 41
0.5880000000000005
 71
     1
 72
     1
  1
    .XX = ±.0-^J  .XXX = ±.00-^J.XXXX = ±.000-
  7
ONSHAPE-STANDARD
  0
MTEXT
  5
1AE
330
1F
100
AcDbEntity
  8
TITLE_BLOCK
100
AcDbMText
 10
5.18776
 20
1.66112
 30
0.0
 40
0.0432
 41
0.5879999999999996
 71
     1
 72
     1
  1
^JANGULAR = ± °^JFRACTIONAL = ±
  7
ONSHAPE-STANDARD
  0
MTEXT
  5
1AF
330
1F
100
AcDbEntity
  8
TITLE_BLOCK
100
AcDbMText
 10
4.590399999999999
 20
1.3688
 30
0.0
 40
0.048
 41
0.5880000000000005
 71
     1
 72
     1
  1
SURFACE FINISH
  7
ONSHAPE-STANDARD
  0
LINE
  5
1B0
330
1F
100
AcDbEntity
  8
TITLE_BLOCK
100
AcDbLine
 10
5.104
 20
1.298
 30
0.0
 11
5.134
 21
1.246038475772934
 31
0.0
  0
LINE
  5
1B1
330
1F
100
AcDbEntity
  8
TITLE_BLOCK
100
AcDbLine
 10
5.134
 20
1.246038475772934
 30
0.0
 11
5.197
 21
1.355157676649773
 31
0.0
  0
LINE
  5
1B2
330
1F
100
AcDbEntity
  8
TITLE_BLOCK
100
AcDbLine
 10
5.197
 20
1.355157676649773
 30
0.0
 11
5.263
 21
1.355157676649773
 31
0.0
  0
MTEXT
  5
1B3
330
1F
100
AcDbEntity
  8
TITLE_BLOCK
100
AcDbMText
 10
5.164
 20
1.12184
 30
0.0
 40
0.0624
 41
1.176
 71
     2
 72
     1
  1
DO NOT SCALE DRAWING
  7
ONSHAPE-STANDARD
  0
MTEXT
  5
1B4
330
1F
100
AcDbEntity
  8
TITLE_BLOCK
100
AcDbMText
 10
5.164
 20
0.9608
 30
0.0
 40
0.048
 41
1.176
 71
     2
 72
     1
  1
BREAK ALL SHARP EDGES AND REMOVE BURRS
  7
ONSHAPE-STANDARD
  0
CIRCLE
  5
1B5
330
1F
100
AcDbEntity
  8
TITLE_BLOCK
100
AcDbCircle
 10
5.029
 20
0.5287999999999999
 30
0.0
 40
0.054
  0
CIRCLE
  5
1B6
330
1F
100
AcDbEntity
  8
TITLE_BLOCK
100
AcDbCircle
 10
5.029
 20
0.5287999999999999
 30
0.0
 40
0.108
  0
LINE
  5
1B7
330
1F
100
AcDbEntity
  8
TITLE_BLOCK
100
AcDbLine
 10
5.056
 20
0.5287999999999999
 30
0.0
 11
5.002
 21
0.5287999999999999
 31
0.0
  0
LINE
  5
1B8
330
1F
100
AcDbEntity
  8
TITLE_BLOCK
100
AcDbLine
 10
5.029
 20
0.5558
 30
0.0
 11
5.029
 21
0.5017999999999999
 31
0.0
  0
LINE
  5
1B9
330
1F
100
AcDbEntity
  8
TITLE_BLOCK
100
AcDbLine
 10
5.083
 20
0.5287999999999999
 30
0.0
 11
5.164
 21
0.5287999999999999
 31
0.0
  0
LINE
  5
1BA
330
1F
100
AcDbEntity
  8
TITLE_BLOCK
100
AcDbLine
 10
5.029
 20
0.5828
 30
0.0
 11
5.029
 21
0.6638
 31
0.0
  0
LINE
  5
1BB
330
1F
100
AcDbEntity
  8
TITLE_BLOCK
100
AcDbLine
 10
4.975
 20
0.5287999999999999
 30
0.0
 11
4.894
 21
0.5287999999999999
 31
0.0
  0
LINE
  5
1BC
330
1F
100
AcDbEntity
  8
TITLE_BLOCK
100
AcDbLine
 10
5.029
 20
0.4747999999999999
 30
0.0
 11
5.029
 21
0.3937999999999999
 31
0.0
  0
LINE
  5
1BD
330
1F
100
AcDbEntity
  8
TITLE_BLOCK
100
AcDbLine
 10
5.406999999999999
 20
0.4208
 30
0.0
 11
5.406999999999999
 21
0.6367999999999999
 31
0.0
  0
LINE
  5
1BE
330
1F
100
AcDbEntity
  8
TITLE_BLOCK
100
AcDbLine
 10
5.406999999999999
 20
0.6367999999999999
 30
0.0
 11
5.191
 21
0.5828
 31
0.0
  0
LINE
  5
1BF
330
1F
100
AcDbEntity
  8
TITLE_BLOCK
100
AcDbLine
 10
5.191
 20
0.5828
 30
0.0
 11
5.191
 21
0.4747999999999999
 31
0.0
  0
LINE
  5
1C0
330
1F
100
AcDbEntity
  8
TITLE_BLOCK
100
AcDbLine
 10
5.191
 20
0.4747999999999999
 30
0.0
 11
5.406999999999999
 21
0.4208
 31
0.0
  0
LINE
  5
1C1
330
1F
100
AcDbEntity
  8
TITLE_BLOCK
100
AcDbLine
 10
5.326
 20
0.5287999999999999
 30
0.0
 11
5.4205
 21
0.5287999999999999
 31
0.0
  0
LINE
  5
1C2
330
1F
100
AcDbEntity
  8
TITLE_BLOCK
100
AcDbLine
 10
5.309799999999999
 20
0.5287999999999999
 30
0.0
 11
5.2882
 21
0.5287999999999999
 31
0.0
  0
LINE
  5
1C3
330
1F
100
AcDbEntity
  8
TITLE_BLOCK
100
AcDbLine
 10
5.271999999999999
 20
0.5287999999999999
 30
0.0
 11
5.177499999999999
 21
0.5287999999999999
 31
0.0
  0
MTEXT
  5
1C4
330
1F
100
AcDbEntity
  8
TITLE_BLOCK
100
AcDbMText
 10
5.164
 20
0.7568
 30
0.0
 40
0.048
 41
1.176
 71
     2
 72
     1
  1
THIRD ANGLE PROJECTION
  7
ONSHAPE-STANDARD
  0
LINE
  5
1C5
330
1F
100
AcDbEntity
  8
TITLE_BLOCK
100
AcDbLine
 10
5.763999999999999
 20
0.38
 30
0.0
 11
5.763999999999999
 21
1.88
 31
0.0
  0
LINE
  5
1C6
330
1F
100
AcDbEntity
  8
TITLE_BLOCK
100
AcDbLine
 10
6.364
 20
0.8
 30
0.0
 11
6.364
 21
1.88
 31
0.0
  0
LINE
  5
1C7
330
1F
100
AcDbEntity
  8
TITLE_BLOCK
100
AcDbLine
 10
7.113999999999999
 20
0.8
 30
0.0
 11
7.113999999999999
 21
1.88
 31
0.0
  0
LINE
  5
1C8
330
1F
100
AcDbEntity
  8
TITLE_BLOCK
100
AcDbLine
 10
6.664
 20
0.38
 30
0.0
 11
6.664
 21
0.8
 31
0.0
  0
LINE
  5
1C9
330
1F
100
AcDbEntity
  8
TITLE_BLOCK
100
AcDbLine
 10
5.763999999999999
 20
1.88
 30
0.0
 11
7.564
 21
1.88
 31
0.0
  0
LINE
  5
1CA
330
1F
100
AcDbEntity
  8
TITLE_BLOCK
100
AcDbLine
 10
5.763999999999999
 20
1.7
 30
0.0
 11
7.564
 21
1.7
 31
0.0
  0
LINE
  5
1CB
330
1F
100
AcDbEntity
  8
TITLE_BLOCK
100
AcDbLine
 10
5.763999999999999
 20
1.52
 30
0.0
 11
7.564
 21
1.52
 31
0.0
  0
LINE
  5
1CC
330
1F
100
AcDbEntity
  8
TITLE_BLOCK
100
AcDbLine
 10
5.763999999999999
 20
1.34
 30
0.0
 11
7.564
 21
1.34
 31
0.0
  0
LINE
  5
1CD
330
1F
100
AcDbEntity
  8
TITLE_BLOCK
100
AcDbLine
 10
5.763999999999999
 20
1.16
 30
0.0
 11
7.564
 21
1.16
 31
0.0
  0
LINE
  5
1CE
330
1F
100
AcDbEntity
  8
TITLE_BLOCK
100
AcDbLine
 10
5.763999999999999
 20
0.98
 30
0.0
 11
7.564
 21
0.98
 31
0.0
  0
LINE
  5
1CF
330
1F
100
AcDbEntity
  8
TITLE_BLOCK
100
AcDbLine
 10
5.763999999999999
 20
0.8
 30
0.0
 11
7.564
 21
0.8
 31
0.0
  0
MTEXT
  5
1D0
330
1F
100
AcDbEntity
  8
TITLE_BLOCK
100
AcDbMText
 10
6.3904
 20
1.8368
 30
0.0
 40
0.048
 41
0.7349999999999991
 71
     1
 72
     1
  1
NAME
  7
ONSHAPE-STANDARD
  0
MTEXT
  5
1D1
330
1F
100
AcDbEntity
  8
TITLE_BLOCK
100
AcDbMText
 10
7.339
 20
1.8368
 30
0.0
 40
0.048
 41
0.4410000000000011
 71
     2
 72
     1
  1
DATE
  7
ONSHAPE-STANDARD
  0
MTEXT
  5
1D2
330
1F
100
AcDbEntity
  8
TITLE_BLOCK
100
AcDbMText
 10
5.790399999999999
 20
1.6568
 30
0.0
 40
0.048
 41
0.5880000000000005
 71
     1
 72
     1
  1
DRAWN
  7
ONSHAPE-STANDARD
  0
MTEXT
  5
1D3
102
{ACAD_XDICTIONARY
360
1D4
102
}
330
1F
100
AcDbEntity
  8
TITLE_BLOCK
100
AcDbMText
 10
6.738999999999999
 20
1.61
 30
0.0
 40
0.04032
 41
0.7499999999999991
 71
     5
 72
     1
  1
M-ASSEM
  7
ONSHAPE-STANDARD-FIELDS
1001
ACAD
1000
ACAD_MTEXT_DEFINED_HEIGHT_BEGIN
1070
    46
1040
0.1800000000000002
1000
ACAD_MTEXT_DEFINED_HEIGHT_END
  0
MTEXT
  5
1DA
102
{ACAD_XDICTIONARY
360
1DB
102
}
330
1F
100
AcDbEntity
  8
TITLE_BLOCK
100
AcDbMText
 10
7.339
 20
1.61
 30
0.0
 40
0.04032
 41
0.4500000000000011
 71
     5
 72
     1
  1
09/21/2026
  7
ONSHAPE-STANDARD-FIELDS
1001
ACAD
1000
ACAD_MTEXT_DEFINED_HEIGHT_BEGIN
1070
    46
1040
0.1800000000000002
1000
ACAD_MTEXT_DEFINED_HEIGHT_END
  0
MTEXT
  5
1E0
330
1F
100
AcDbEntity
  8
TITLE_BLOCK
100
AcDbMText
 10
5.790399999999999
 20
1.4768
 30
0.0
 40
0.048
 41
0.5880000000000005
 71
     1
 72
     1
  1
CHECKED
  7
ONSHAPE-STANDARD
  0
MTEXT
  5
1E1
330
1F
100
AcDbEntity
  8
TITLE_BLOCK
100
AcDbMText
 10
6.738999999999999
 20
1.43
 30
0.0
 40
0.04032
 41
0.7499999999999991
 71
     5
 72
     1
  1
 
  7
ONSHAPE-STANDARD-FIELDS
1001
ACAD
1000
ACAD_MTEXT_DEFINED_HEIGHT_BEGIN
1070
    46
1040
0.1800000000000002
1000
ACAD_MTEXT_DEFINED_HEIGHT_END
  0
MTEXT
  5
1E2
330
1F
100
AcDbEntity
  8
TITLE_BLOCK
100
AcDbMText
 10
7.339
 20
1.43
 30
0.0
 40
0.04032
 41
0.4500000000000011
 71
     5
 72
     1
  1
 
  7
ONSHAPE-STANDARD-FIELDS
1001
ACAD
1000
ACAD_MTEXT_DEFINED_HEIGHT_BEGIN
1070
    46
1040
0.1800000000000002
1000
ACAD_MTEXT_DEFINED_HEIGHT_END
  0
MTEXT
  5
1E3
330
1F
100
AcDbEntity
  8
TITLE_BLOCK
100
AcDbMText
 10
5.790399999999999
 20
1.2968
 30
0.0
 40
0.048
 41
0.5880000000000005
 71
     1
 72
     1
  1
APPROVED
  7
ONSHAPE-STANDARD
  0
MTEXT
  5
1E4
102
{ACAD_XDICTIONARY
360
1E5
102
}
330
1F
100
AcDbEntity
  8
TITLE_BLOCK
100
AcDbMText
 10
6.738999999999999
 20
1.25
 30
0.0
 40
0.04032
 41
0.7499999999999991
 71
     5
 72
     1
  1
----
  7
ONSHAPE-STANDARD-FIELDS
1001
ACAD
1000
ACAD_MTEXT_DEFINED_HEIGHT_BEGIN
1070
    46
1040
0.1799999999999997
1000
ACAD_MTEXT_DEFINED_HEIGHT_END
  0
MTEXT
  5
1EA
102
{ACAD_XDICTIONARY
360
1EB
102
}
330
1F
100
AcDbEntity
  8
TITLE_BLOCK
100
AcDbMText
 10
7.339
 20
1.25
 30
0.0
 40
0.04032
 41
0.4500000000000011
 71
     5
 72
     1
  1
----
  7
ONSHAPE-STANDARD-FIELDS
1001
ACAD
1000
ACAD_MTEXT_DEFINED_HEIGHT_BEGIN
1070
    46
1040
0.1799999999999997
1000
ACAD_MTEXT_DEFINED_HEIGHT_END
  0
MTEXT
  5
1F0
330
1F
100
AcDbEntity
  8
TITLE_BLOCK
100
AcDbMText
 10
6.064
 20
1.07
 30
0.0
 40
0.072
 41
0.6000000000000005
 71
     5
 72
     1
  1
 
  7
ONSHAPE-STANDARD-FIELDS
1001
ACAD
1000
ACAD_MTEXT_DEFINED_HEIGHT_BEGIN
1070
    46
1040
0.1800000000000002
1000
ACAD_MTEXT_DEFINED_HEIGHT_END
  0
MTEXT
  5
1F1
330
1F
100
AcDbEntity
  8
TITLE_BLOCK
100
AcDbMText
 10
6.738999999999999
 20
1.07
 30
0.0
 40
0.04032
 41
0.7499999999999991
 71
     5
 72
     1
  1
 
  7
ONSHAPE-STANDARD-FIELDS
1001
ACAD
1000
ACAD_MTEXT_DEFINED_HEIGHT_BEGIN
1070
    46
1040
0.1800000000000002
1000
ACAD_MTEXT_DEFINED_HEIGHT_END
  0
MTEXT
  5
1F2
330
1F
100
AcDbEntity
  8
TITLE_BLOCK
100
AcDbMText
 10
7.339
 20
1.07
 30
0.0
 40
0.04032
 41
0.4500000000000011
 71
     5
 72
     1
  1
 
  7
ONSHAPE-STANDARD-FIELDS
1001
ACAD
1000
ACAD_MTEXT_DEFINED_HEIGHT_BEGIN
1070
    46
1040
0.1800000000000002
1000
ACAD_MTEXT_DEFINED_HEIGHT_END
  0
MTEXT
  5
1F3
330
1F
100
AcDbEntity
  8
TITLE_BLOCK
100
AcDbMText
 10
6.064
 20
0.89
 30
0.0
 40
0.072
 41
0.6000000000000005
 71
     5
 72
     1
  1
 
  7
ONSHAPE-STANDARD-FIELDS
1001
ACAD
1000
ACAD_MTEXT_DEFINED_HEIGHT_BEGIN
1070
    46
1040
0.1799999999999999
1000
ACAD_MTEXT_DEFINED_HEIGHT_END
  0
MTEXT
  5
1F4
330
1F
100
AcDbEntity
  8
TITLE_BLOCK
100
AcDbMText
 10
6.738999999999999
 20
0.89
 30
0.0
 40
0.04032
 41
0.7499999999999991
 71
     5
 72
     1
  1
 
  7
ONSHAPE-STANDARD-FIELDS
1001
ACAD
1000
ACAD_MTEXT_DEFINED_HEIGHT_BEGIN
1070
    46
1040
0.1799999999999999
1000
ACAD_MTEXT_DEFINED_HEIGHT_END
  0
MTEXT
  5
1F5
330
1F
100
AcDbEntity
  8
TITLE_BLOCK
100
AcDbMText
 10
7.339
 20
0.89
 30
0.0
 40
0.04032
 41
0.4500000000000011
 71
     5
 72
     1
  1
 
  7
ONSHAPE-STANDARD-FIELDS
1001
ACAD
1000
ACAD_MTEXT_DEFINED_HEIGHT_BEGIN
1070
    46
1040
0.1799999999999999
1000
ACAD_MTEXT_DEFINED_HEIGHT_END
  0
MTEXT
  5
1F6
330
1F
100
AcDbEntity
  8
TITLE_BLOCK
100
AcDbMText
 10
5.790399999999999
 20
0.7568
 30
0.0
 40
0.048
 41
0.8820000000000003
 71
     1
 72
     1
  1
MATERIAL
  7
ONSHAPE-STANDARD
  0
MTEXT
  5
1F7
330
1F
100
AcDbEntity
  8
TITLE_BLOCK
100
AcDbMText
 10
6.214
 20
0.5900000000000001
 30
0.0
 40
0.072
 41
0.9000000000000004
 71
     5
 72
     1
  1
 
  7
ONSHAPE-STANDARD-FIELDS
1001
ACAD
1000
ACAD_MTEXT_DEFINED_HEIGHT_BEGIN
1070
    46
1040
0.42
1000
ACAD_MTEXT_DEFINED_HEIGHT_END
  0
MTEXT
  5
1F8
330
1F
100
AcDbEntity
  8
TITLE_BLOCK
100
AcDbMText
 10
6.690399999999999
 20
0.7568
 30
0.0
 40
0.048
 41
0.8820000000000003
 71
     1
 72
     1
  1
FINISH
  7
ONSHAPE-STANDARD
  0
MTEXT
  5
1F9
330
1F
100
AcDbEntity
  8
TITLE_BLOCK
100
AcDbMText
 10
7.114
 20
0.5900000000000001
 30
0.0
 40
0.072
 41
0.9000000000000004
 71
     5
 72
     1
  1
 
  7
ONSHAPE-STANDARD-FIELDS
1001
ACAD
1000
ACAD_MTEXT_DEFINED_HEIGHT_BEGIN
1070
    46
1040
0.42
1000
ACAD_MTEXT_DEFINED_HEIGHT_END
  0
LINE
  5
1FA
330
1F
100
AcDbEntity
  8
TITLE_BLOCK
100
AcDbLine
 10
7.564
 20
0.38
 30
0.0
 11
7.564
 21
1.88
 31
0.0
  0
LINE
  5
1FB
330
1F
100
AcDbEntity
  8
TITLE_BLOCK
100
AcDbLine
 10
7.939
 20
0.575
 30
0.0
 11
7.939
 21
0.875
 31
0.0
  0
LINE
  5
1FC
330
1F
100
AcDbEntity
  8
TITLE_BLOCK
100
AcDbLine
 10
8.223999999999998
 20
0.38
 30
0.0
 11
8.223999999999998
 21
0.575
 31
0.0
  0
LINE
  5
1FD
330
1F
100
AcDbEntity
  8
TITLE_BLOCK
100
AcDbLine
 10
9.588999999999999
 20
0.38
 30
0.0
 11
9.588999999999999
 21
0.575
 31
0.0
  0
LINE
  5
1FE
330
1F
100
AcDbEntity
  8
TITLE_BLOCK
100
AcDbLine
 10
10.339
 20
0.575
 30
0.0
 11
10.339
 21
0.875
 31
0.0
  0
LINE
  5
1FF
330
1F
100
AcDbEntity
  8
TITLE_BLOCK
100
AcDbLine
 10
7.564
 20
0.575
 30
0.0
 11
10.639
 21
0.575
 31
0.0
  0
LINE
  5
200
330
1F
100
AcDbEntity
  8
TITLE_BLOCK
100
AcDbLine
 10
7.564
 20
0.875
 30
0.0
 11
10.639
 21
0.875
 31
0.0
  0
LINE
  5
201
330
1F
100
AcDbEntity
  8
TITLE_BLOCK
100
AcDbLine
 10
7.564
 20
1.505
 30
0.0
 11
10.639
 21
1.505
 31
0.0
  0
LINE
  5
202
330
1F
100
AcDbEntity
  8
TITLE_BLOCK
100
AcDbLine
 10
7.564
 20
1.88
 30
0.0
 11
10.639
 21
1.88
 31
0.0
  0
MTEXT
  5
203
330
1F
100
AcDbEntity
  8
TITLE_BLOCK
100
AcDbMText
 10
7.5904
 20
1.4618
 30
0.0
 40
0.048
 41
0.3675
 71
     1
 72
     1
  1
TITLE
  7
ONSHAPE-STANDARD
  0
MTEXT
  5
204
102
{ACAD_XDICTIONARY
360
205
102
}
330
1F
100
AcDbEntity
  8
TITLE_BLOCK
100
AcDbMText
 10
9.1015
 20
1.385
 30
0.0
 40
0.1152
 41
2.774999999999999
 71
     5
 72
     1
  1
----
  7
ONSHAPE-STANDARD-FIELDS
1001
ACAD
1000
ACAD_MTEXT_DEFINED_HEIGHT_BEGIN
1070
    46
1040
0.189
1000
ACAD_MTEXT_DEFINED_HEIGHT_END
  0
MTEXT
  5
20A
102
{ACAD_XDICTIONARY
360
20B
102
}
330
1F
100
AcDbEntity
  8
TITLE_BLOCK
100
AcDbMText
 10
9.1015
 20
1.196
 30
0.0
 40
0.1152
 41
2.774999999999999
 71
     5
 72
     1
  1
----
  7
ONSHAPE-STANDARD-FIELDS
1001
ACAD
1000
ACAD_MTEXT_DEFINED_HEIGHT_BEGIN
1070
    46
1040
0.189
1000
ACAD_MTEXT_DEFINED_HEIGHT_END
  0
MTEXT
  5
210
102
{ACAD_XDICTIONARY
360
211
102
}
330
1F
100
AcDbEntity
  8
TITLE_BLOCK
100
AcDbMText
 10
9.1015
 20
1.007
 30
0.0
 40
0.1152
 41
2.774999999999999
 71
     5
 72
     1
  1
----
  7
ONSHAPE-STANDARD-FIELDS
1001
ACAD
1000
ACAD_MTEXT_DEFINED_HEIGHT_BEGIN
1070
    46
1040
0.189
1000
ACAD_MTEXT_DEFINED_HEIGHT_END
  0
MTEXT
  5
216
330
1F
100
AcDbEntity
  8
TITLE_BLOCK
100
AcDbMText
 10
7.58512
 20
0.84044
 30
0.0
 40
0.0384
 41
0.3675
 71
     1
 72
     1
  1
SIZE
  7
ONSHAPE-STANDARD
  0
MTEXT
  5
217
102
{ACAD_XDICTIONARY
360
218
102
}
330
1F
100
AcDbEntity
  8
TITLE_BLOCK
100
AcDbMText
 10
7.7515
 20
0.725
 30
0.0
 40
0.144
 41
0.375
 71
     5
 72
     1
  1
A
  7
ONSHAPE-STANDARD-FIELDS
1001
ACAD
1000
ACAD_MTEXT_DEFINED_HEIGHT_BEGIN
1070
    46
1040
0.3
1000
ACAD_MTEXT_DEFINED_HEIGHT_END
  0
MTEXT
  5
21D
330
1F
100
AcDbEntity
  8
TITLE_BLOCK
100
AcDbMText
 10
7.96012
 20
0.84044
 30
0.0
 40
0.0384
 41
2.351999999999999
 71
     1
 72
     1
  1
DWG NO.
  7
ONSHAPE-STANDARD
  0
MTEXT
  5
21E
102
{ACAD_XDICTIONARY
360
21F
102
}
330
1F
100
AcDbEntity
  8
TITLE_BLOCK
100
AcDbMText
 10
9.139
 20
0.725
 30
0.0
 40
0.144
 41
2.399999999999999
 71
     5
 72
     1
  1
----
  7
ONSHAPE-STANDARD-FIELDS
1001
ACAD
1000
ACAD_MTEXT_DEFINED_HEIGHT_BEGIN
1070
    46
1040
0.3
1000
ACAD_MTEXT_DEFINED_HEIGHT_END
  0
MTEXT
  5
224
330
1F
100
AcDbEntity
  8
TITLE_BLOCK
100
AcDbMText
 10
10.36012
 20
0.84044
 30
0.0
 40
0.0384
 41
0.2940000000000007
 71
     1
 72
     1
  1
REV.
  7
ONSHAPE-STANDARD
  0
MTEXT
  5
225
102
{ACAD_XDICTIONARY
360
226
102
}
330
1F
100
AcDbEntity
  8
TITLE_BLOCK
100
AcDbMText
 10
10.504
 20
0.725
 30
0.0
 40
0.144
 41
0.2700000000000014
 71
     5
 72
     1
  1
-
  7
ONSHAPE-STANDARD-FIELDS
1001
ACAD
1000
ACAD_MTEXT_DEFINED_HEIGHT_BEGIN
1070
    46
1040
0.3
1000
ACAD_MTEXT_DEFINED_HEIGHT_END
  0
MTEXT
  5
22B
330
1F
100
AcDbEntity
  8
TITLE_BLOCK
100
AcDbMText
 10
7.58512
 20
0.5404399999999999
 30
0.0
 40
0.0384
 41
0.6467999999999984
 71
     1
 72
     1
  1
SCALE
  7
ONSHAPE-STANDARD
  0
MTEXT
  5
22C
102
{ACAD_XDICTIONARY
360
22D
102
}
330
1F
100
AcDbEntity
  8
TITLE_BLOCK
100
AcDbMText
 10
7.923999999999999
 20
0.4775
 30
0.0
 40
0.0864
 41
0.5999999999999988
 71
     5
 72
     1
  1
1:16
  7
ONSHAPE-STANDARD-FIELDS
1001
ACAD
1000
ACAD_MTEXT_DEFINED_HEIGHT_BEGIN
1070
    46
1040
0.195
1000
ACAD_MTEXT_DEFINED_HEIGHT_END
  0
MTEXT
  5
232
330
1F
100
AcDbEntity
  8
TITLE_BLOCK
100
AcDbMText
 10
8.245119999999998
 20
0.5404399999999999
 30
0.0
 40
0.0384
 41
1.3377
 71
     1
 72
     1
  1
WEIGHT
  7
ONSHAPE-STANDARD
  0
MTEXT
  5
233
330
1F
100
AcDbEntity
  8
TITLE_BLOCK
100
AcDbMText
 10
8.9065
 20
0.4775
 30
0.0
 40
0.0864
 41
1.365
 71
     5
 72
     1
  1
 
  7
ONSHAPE-STANDARD-FIELDS
1001
ACAD
1000
ACAD_MTEXT_DEFINED_HEIGHT_BEGIN
1070
    46
1040
0.195
1000
ACAD_MTEXT_DEFINED_HEIGHT_END
  0
MTEXT
  5
234
330
1F
100
AcDbEntity
  8
TITLE_BLOCK
100
AcDbMText
 10
9.610119999999998
 20
0.5404399999999999
 30
0.0
 40
0.0384
 41
1.029000000000001
 71
     1
 72
     1
  1
SHEET
  7
ONSHAPE-STANDARD
  0
MTEXT
  5
235
102
{ACAD_XDICTIONARY
360
236
102
}
330
1F
100
AcDbEntity
  8
TITLE_BLOCK
100
AcDbMText
 10
10.144
 20
0.4775
 30
0.0
 40
0.0864
 41
0.9900000000000002
 71
     5
 72
     1
  1
1 of 1
  7
ONSHAPE-STANDARD-FIELDS
1001
ACAD
1000
ACAD_MTEXT_DEFINED_HEIGHT_BEGIN
1070
    46
1040
0.195
1000
ACAD_MTEXT_DEFINED_HEIGHT_END
  0
LINE
  5
241
330
1F
100
AcDbEntity
  8
CENTERMARKS
  6
CONTINUOUS
100
AcDbLine
 10
4.69927538965442
 20
5.558279983510333
 30
0.0
 11
4.719944680993003
 21
5.558279983510333
 31
0.0
  0
LINE
  5
242
330
1F
100
AcDbEntity
  8
CENTERMARKS
  6
CONTINUOUS
100
AcDbLine
 10
4.709610035323712
 20
5.547945337841042
 30
0.0
 11
4.709610035323712
 21
5.568614629179625
 31
0.0
  0
LINE
  5
243
330
1F
100
AcDbEntity
  8
CENTERMARKS
  6
CENTER
100
AcDbLine
 10
4.688940743985128
 20
5.558279983510333
 30
0.0
 11
4.65941318493001
 21
5.558279983510333
 31
0.0
  0
LINE
  5
244
330
1F
100
AcDbEntity
  8
CENTERMARKS
  6
CENTER
100
AcDbLine
 10
4.730279326662295
 20
5.558279983510333
 30
0.0
 11
4.759806885717413
 21
5.558279983510333
 31
0.0
  0
LINE
  5
245
330
1F
100
AcDbEntity
  8
CENTERMARKS
  6
CENTER
100
AcDbLine
 10
4.709610035323712
 20
5.578949274848917
 30
0.0
 11
4.709610035323712
 21
5.608476833904035
 31
0.0
  0
LINE
  5
246
330
1F
100
AcDbEntity
  8
CENTERMARKS
  6
CENTER
100
AcDbLine
 10
4.709610035323712
 20
5.53761069217175
 30
0.0
 11
4.709610035323712
 21
5.508083133116632
 31
0.0
  0
LINE
  5
24B
330
1F
100
AcDbEntity
  8
CENTERMARKS
  6
CONTINUOUS
100
AcDbLine
 10
4.523139954988246
 20
5.558129920531458
 30
0.0
 11
4.54380924632683
 21
5.558129920531458
 31
0.0
  0
LINE
  5
24C
330
1F
100
AcDbEntity
  8
CENTERMARKS
  6
CONTINUOUS
100
AcDbLine
 10
4.533474600657538
 20
5.547795274862167
 30
0.0
 11
4.533474600657538
 21
5.56846456620075
 31
0.0
  0
LINE
  5
24D
330
1F
100
AcDbEntity
  8
CENTERMARKS
  6
CENTER
100
AcDbLine
 10
4.512805309318955
 20
5.558129920531458
 30
0.0
 11
4.483277750263836
 21
5.558129920531458
 31
0.0
  0
LINE
  5
24E
330
1F
100
AcDbEntity
  8
CENTERMARKS
  6
CENTER
100
AcDbLine
 10
4.554143891996121
 20
5.558129920531458
 30
0.0
 11
4.58367145105124
 21
5.558129920531458
 31
0.0
  0
LINE
  5
24F
330
1F
100
AcDbEntity
  8
CENTERMARKS
  6
CENTER
100
AcDbLine
 10
4.533474600657538
 20
5.578799211870042
 30
0.0
 11
4.533474600657538
 21
5.60832677092516
 31
0.0
  0
LINE
  5
250
330
1F
100
AcDbEntity
  8
CENTERMARKS
  6
CENTER
100
AcDbLine
 10
4.533474600657538
 20
5.537460629192875
 30
0.0
 11
4.533474600657538
 21
5.507933070137756
 31
0.0
  0
LINE
  5
255
330
1F
100
AcDbEntity
  8
CENTERMARKS
  6
CONTINUOUS
100
AcDbLine
 10
4.523766121610767
 20
5.41441815524304
 30
0.0
 11
4.543148598798864
 21
5.41441815524304
 31
0.0
  0
LINE
  5
256
330
1F
100
AcDbEntity
  8
CENTERMARKS
  6
CONTINUOUS
100
AcDbLine
 10
4.533457360204816
 20
5.404726916648992
 30
0.0
 11
4.533457360204816
 21
5.424109393837089
 31
0.0
  0
LINE
  5
257
330
1F
100
AcDbEntity
  8
CENTERMARKS
  6
CENTER
100
AcDbLine
 10
4.514074883016718
 20
5.41441815524304
 30
0.0
 11
4.486385629890865
 21
5.41441815524304
 31
0.0
  0
LINE
  5
258
330
1F
100
AcDbEntity
  8
CENTERMARKS
  6
CENTER
100
AcDbLine
 10
4.552839837392913
 20
5.41441815524304
 30
0.0
 11
4.580529090518766
 21
5.41441815524304
 31
0.0
  0
LINE
  5
259
330
1F
100
AcDbEntity
  8
CENTERMARKS
  6
CENTER
100
AcDbLine
 10
4.533457360204816
 20
5.433800632431137
 30
0.0
 11
4.533457360204816
 21
5.461489885556991
 31
0.0
  0
LINE
  5
25A
330
1F
100
AcDbEntity
  8
CENTERMARKS
  6
CENTER
100
AcDbLine
 10
4.533457360204816
 20
5.395035678054943
 30
0.0
 11
4.533457360204816
 21
5.36734642492909
 31
0.0
  0
LINE
  5
25F
330
1F
100
AcDbEntity
  8
CENTERMARKS
  6
CONTINUOUS
100
AcDbLine
 10
4.699169200600625
 20
5.41408021663081
 30
0.0
 11
4.719838491939209
 21
5.41408021663081
 31
0.0
  0
LINE
  5
260
330
1F
100
AcDbEntity
  8
CENTERMARKS
  6
CONTINUOUS
100
AcDbLine
 10
4.709503846269917
 20
5.403745570961519
 30
0.0
 11
4.709503846269917
 21
5.424414862300102
 31
0.0
  0
LINE
  5
261
330
1F
100
AcDbEntity
  8
CENTERMARKS
  6
CENTER
100
AcDbLine
 10
4.688834554931334
 20
5.41408021663081
 30
0.0
 11
4.659306995876215
 21
5.41408021663081
 31
0.0
  0
LINE
  5
262
330
1F
100
AcDbEntity
  8
CENTERMARKS
  6
CENTER
100
AcDbLine
 10
4.7301731376085
 20
5.41408021663081
 30
0.0
 11
4.759700696663619
 21
5.41408021663081
 31
0.0
  0
LINE
  5
263
330
1F
100
AcDbEntity
  8
CENTERMARKS
  6
CENTER
100
AcDbLine
 10
4.709503846269917
 20
5.434749507969394
 30
0.0
 11
4.709503846269917
 21
5.464277067024512
 31
0.0
  0
LINE
  5
264
330
1F
100
AcDbEntity
  8
CENTERMARKS
  6
CENTER
100
AcDbLine
 10
4.709503846269917
 20
5.393410925292227
 30
0.0
 11
4.709503846269917
 21
5.363883366237109
 31
0.0
  0
LINE
  5
269
330
1F
100
AcDbEntity
  8
CENTERMARKS
  6
CONTINUOUS
100
AcDbLine
 10
4.609128294358204
 20
5.481149277116748
 30
0.0
 11
4.634964908531432
 21
5.481149277116748
 31
0.0
  0
LINE
  5
26A
330
1F
100
AcDbEntity
  8
CENTERMARKS
  6
CONTINUOUS
100
AcDbLine
 10
4.622046601444818
 20
5.468230970030135
 30
0.0
 11
4.622046601444818
 21
5.494067584203362
 31
0.0
  0
LINE
  5
26B
330
1F
100
AcDbEntity
  8
CENTERMARKS
  6
CENTER
100
AcDbLine
 10
4.59620998727159
 20
5.481149277116748
 30
0.0
 11
4.559300538452693
 21
5.481149277116748
 31
0.0
  0
LINE
  5
26C
330
1F
100
AcDbEntity
  8
CENTERMARKS
  6
CENTER
100
AcDbLine
 10
4.647883215618045
 20
5.481149277116748
 30
0.0
 11
4.684792664436943
 21
5.481149277116748
 31
0.0
  0
LINE
  5
26D
330
1F
100
AcDbEntity
  8
CENTERMARKS
  6
CENTER
100
AcDbLine
 10
4.622046601444818
 20
5.506985891289976
 30
0.0
 11
4.622046601444818
 21
5.543895340108874
 31
0.0
  0
LINE
  5
26E
330
1F
100
AcDbEntity
  8
CENTERMARKS
  6
CENTER
100
AcDbLine
 10
4.622046601444818
 20
5.455312662943521
 30
0.0
 11
4.622046601444818
 21
5.418403214124623
 31
0.0
  0
LINE
  5
273
330
1F
100
AcDbEntity
  8
CENTERMARKS
  6
CONTINUOUS
100
AcDbLine
 10
4.52376602274505
 20
5.141769504407152
 30
0.0
 11
4.544435314083633
 21
5.141769504407152
 31
0.0
  0
LINE
  5
274
330
1F
100
AcDbEntity
  8
CENTERMARKS
  6
CONTINUOUS
100
AcDbLine
 10
4.534100668414341
 20
5.13143485873786
 30
0.0
 11
4.534100668414341
 21
5.152104150076443
 31
0.0
  0
LINE
  5
275
330
1F
100
AcDbEntity
  8
CENTERMARKS
  6
CENTER
100
AcDbLine
 10
4.513431377075758
 20
5.141769504407152
 30
0.0
 11
4.483903818020639
 21
5.141769504407152
 31
0.0
  0
LINE
  5
276
330
1F
100
AcDbEntity
  8
CENTERMARKS
  6
CENTER
100
AcDbLine
 10
4.554769959752925
 20
5.141769504407152
 30
0.0
 11
4.584297518808043
 21
5.141769504407152
 31
0.0
  0
LINE
  5
277
330
1F
100
AcDbEntity
  8
CENTERMARKS
  6
CENTER
100
AcDbLine
 10
4.534100668414341
 20
5.162438795745735
 30
0.0
 11
4.534100668414341
 21
5.191966354800853
 31
0.0
  0
LINE
  5
278
330
1F
100
AcDbEntity
  8
CENTERMARKS
  6
CENTER
100
AcDbLine
 10
4.534100668414341
 20
5.121100213068568
 30
0.0
 11
4.534100668414341
 21
5.09157265401345
 31
0.0
  0
LINE
  5
27D
330
1F
100
AcDbEntity
  8
CENTERMARKS
  6
CONTINUOUS
100
AcDbLine
 10
4.699175539724465
 20
5.14169805630528
 30
0.0
 11
4.719844831063049
 21
5.14169805630528
 31
0.0
  0
LINE
  5
27E
330
1F
100
AcDbEntity
  8
CENTERMARKS
  6
CONTINUOUS
100
AcDbLine
 10
4.709510185393757
 20
5.131363410635989
 30
0.0
 11
4.709510185393757
 21
5.152032701974572
 31
0.0
  0
LINE
  5
27F
330
1F
100
AcDbEntity
  8
CENTERMARKS
  6
CENTER
100
AcDbLine
 10
4.688840894055174
 20
5.14169805630528
 30
0.0
 11
4.659313335000055
 21
5.14169805630528
 31
0.0
  0
LINE
  5
280
330
1F
100
AcDbEntity
  8
CENTERMARKS
  6
CENTER
100
AcDbLine
 10
4.73017947673234
 20
5.14169805630528
 30
0.0
 11
4.759707035787459
 21
5.14169805630528
 31
0.0
  0
LINE
  5
281
330
1F
100
AcDbEntity
  8
CENTERMARKS
  6
CENTER
100
AcDbLine
 10
4.709510185393757
 20
5.162367347643864
 30
0.0
 11
4.709510185393757
 21
5.191894906698982
 31
0.0
  0
LINE
  5
282
330
1F
100
AcDbEntity
  8
CENTERMARKS
  6
CENTER
100
AcDbLine
 10
4.709510185393757
 20
5.121028764966697
 30
0.0
 11
4.709510185393757
 21
5.091501205911579
 31
0.0
  0
LINE
  5
287
330
1F
100
AcDbEntity
  8
CENTERMARKS
  6
CONTINUOUS
100
AcDbLine
 10
4.609411905029579
 20
5.197206538363109
 30
0.0
 11
4.635248519202807
 21
5.197206538363109
 31
0.0
  0
LINE
  5
288
330
1F
100
AcDbEntity
  8
CENTERMARKS
  6
CONTINUOUS
100
AcDbLine
 10
4.622330212116193
 20
5.184288231276495
 30
0.0
 11
4.622330212116193
 21
5.210124845449723
 31
0.0
  0
LINE
  5
289
330
1F
100
AcDbEntity
  8
CENTERMARKS
  6
CENTER
100
AcDbLine
 10
4.596493597942965
 20
5.197206538363109
 30
0.0
 11
4.559584149124068
 21
5.197206538363109
 31
0.0
  0
LINE
  5
28A
330
1F
100
AcDbEntity
  8
CENTERMARKS
  6
CENTER
100
AcDbLine
 10
4.648166826289421
 20
5.197206538363109
 30
0.0
 11
4.685076275108318
 21
5.197206538363109
 31
0.0
  0
LINE
  5
28B
330
1F
100
AcDbEntity
  8
CENTERMARKS
  6
CENTER
100
AcDbLine
 10
4.622330212116193
 20
5.223043152536337
 30
0.0
 11
4.622330212116193
 21
5.259952601355234
 31
0.0
  0
LINE
  5
28C
330
1F
100
AcDbEntity
  8
CENTERMARKS
  6
CENTER
100
AcDbLine
 10
4.622330212116193
 20
5.171369924189881
 30
0.0
 11
4.622330212116193
 21
5.134460475370984
 31
0.0
  0
LINE
  5
291
330
1F
100
AcDbEntity
  8
CENTERMARKS
  6
CONTINUOUS
100
AcDbLine
 10
4.699426651997456
 20
5.347036331584101
 30
0.0
 11
4.720095943336039
 21
5.347036331584101
 31
0.0
  0
LINE
  5
292
330
1F
100
AcDbEntity
  8
CENTERMARKS
  6
CONTINUOUS
100
AcDbLine
 10
4.709761297666748
 20
5.336701685914809
 30
0.0
 11
4.709761297666748
 21
5.357370977253392
 31
0.0
  0
LINE
  5
293
330
1F
100
AcDbEntity
  8
CENTERMARKS
  6
CENTER
100
AcDbLine
 10
4.689092006328164
 20
5.347036331584101
 30
0.0
 11
4.659564447273046
 21
5.347036331584101
 31
0.0
  0
LINE
  5
294
330
1F
100
AcDbEntity
  8
CENTERMARKS
  6
CENTER
100
AcDbLine
 10
4.730430589005331
 20
5.347036331584101
 30
0.0
 11
4.759958148060449
 21
5.347036331584101
 31
0.0
  0
LINE
  5
295
330
1F
100
AcDbEntity
  8
CENTERMARKS
  6
CENTER
100
AcDbLine
 10
4.709761297666748
 20
5.367705622922684
 30
0.0
 11
4.709761297666748
 21
5.397233181977803
 31
0.0
  0
LINE
  5
296
330
1F
100
AcDbEntity
  8
CENTERMARKS
  6
CENTER
100
AcDbLine
 10
4.709761297666748
 20
5.326367040245517
 30
0.0
 11
4.709761297666748
 21
5.296839481190399
 31
0.0
  0
LINE
  5
29B
330
1F
100
AcDbEntity
  8
CENTERMARKS
  6
CONTINUOUS
100
AcDbLine
 10
4.699439929690151
 20
5.2820719173384
 30
0.0
 11
4.720109221028735
 21
5.2820719173384
 31
0.0
  0
LINE
  5
29C
330
1F
100
AcDbEntity
  8
CENTERMARKS
  6
CONTINUOUS
100
AcDbLine
 10
4.709774575359443
 20
5.271737271669108
 30
0.0
 11
4.709774575359443
 21
5.292406563007692
 31
0.0
  0
LINE
  5
29D
330
1F
100
AcDbEntity
  8
CENTERMARKS
  6
CENTER
100
AcDbLine
 10
4.68910528402086
 20
5.2820719173384
 30
0.0
 11
4.659577724965741
 21
5.2820719173384
 31
0.0
  0
LINE
  5
29E
330
1F
100
AcDbEntity
  8
CENTERMARKS
  6
CENTER
100
AcDbLine
 10
4.730443866698026
 20
5.2820719173384
 30
0.0
 11
4.759971425753145
 21
5.2820719173384
 31
0.0
  0
LINE
  5
29F
330
1F
100
AcDbEntity
  8
CENTERMARKS
  6
CENTER
100
AcDbLine
 10
4.709774575359443
 20
5.302741208676983
 30
0.0
 11
4.709774575359443
 21
5.332268767732102
 31
0.0
  0
LINE
  5
2A0
330
1F
100
AcDbEntity
  8
CENTERMARKS
  6
CENTER
100
AcDbLine
 10
4.709774575359443
 20
5.261402625999817
 30
0.0
 11
4.709774575359443
 21
5.231875066944698
 31
0.0
  0
LINE
  5
2A5
330
1F
100
AcDbEntity
  8
CENTERMARKS
  6
CONTINUOUS
100
AcDbLine
 10
4.521474460904728
 20
5.348748927555305
 30
0.0
 11
4.542143752243311
 21
5.348748927555305
 31
0.0
  0
LINE
  5
2A6
330
1F
100
AcDbEntity
  8
CENTERMARKS
  6
CONTINUOUS
100
AcDbLine
 10
4.53180910657402
 20
5.338414281886013
 30
0.0
 11
4.53180910657402
 21
5.359083573224597
 31
0.0
  0
LINE
  5
2A7
330
1F
100
AcDbEntity
  8
CENTERMARKS
  6
CENTER
100
AcDbLine
 10
4.511139815235437
 20
5.348748927555305
 30
0.0
 11
4.481612256180318
 21
5.348748927555305
 31
0.0
  0
LINE
  5
2A8
330
1F
100
AcDbEntity
  8
CENTERMARKS
  6
CENTER
100
AcDbLine
 10
4.552478397912603
 20
5.348748927555305
 30
0.0
 11
4.582005956967722
 21
5.348748927555305
 31
0.0
  0
LINE
  5
2A9
330
1F
100
AcDbEntity
  8
CENTERMARKS
  6
CENTER
100
AcDbLine
 10
4.53180910657402
 20
5.369418218893888
 30
0.0
 11
4.53180910657402
 21
5.398945777949007
 31
0.0
  0
LINE
  5
2AA
330
1F
100
AcDbEntity
  8
CENTERMARKS
  6
CENTER
100
AcDbLine
 10
4.53180910657402
 20
5.328079636216722
 30
0.0
 11
4.53180910657402
 21
5.298552077161603
 31
0.0
  0
LINE
  5
2AF
330
1F
100
AcDbEntity
  8
CENTERMARKS
  6
CONTINUOUS
100
AcDbLine
 10
4.522129989545695
 20
5.282164728088279
 30
0.0
 11
4.542799280884278
 21
5.282164728088279
 31
0.0
  0
LINE
  5
2B0
330
1F
100
AcDbEntity
  8
CENTERMARKS
  6
CONTINUOUS
100
AcDbLine
 10
4.532464635214986
 20
5.271830082418988
 30
0.0
 11
4.532464635214986
 21
5.292499373757571
 31
0.0
  0
LINE
  5
2B1
330
1F
100
AcDbEntity
  8
CENTERMARKS
  6
CENTER
100
AcDbLine
 10
4.511795343876403
 20
5.282164728088279
 30
0.0
 11
4.482267784821285
 21
5.282164728088279
 31
0.0
  0
LINE
  5
2B2
330
1F
100
AcDbEntity
  8
CENTERMARKS
  6
CENTER
100
AcDbLine
 10
4.55313392655357
 20
5.282164728088279
 30
0.0
 11
4.582661485608688
 21
5.282164728088279
 31
0.0
  0
LINE
  5
2B3
330
1F
100
AcDbEntity
  8
CENTERMARKS
  6
CENTER
100
AcDbLine
 10
4.532464635214986
 20
5.302834019426863
 30
0.0
 11
4.532464635214986
 21
5.332361578481981
 31
0.0
  0
LINE
  5
2B4
330
1F
100
AcDbEntity
  8
CENTERMARKS
  6
CENTER
100
AcDbLine
 10
4.532464635214986
 20
5.261495436749696
 30
0.0
 11
4.532464635214986
 21
5.231967877694577
 31
0.0
  0
LINE
  5
2B9
330
1F
100
AcDbEntity
  8
CENTERMARKS
  6
CONTINUOUS
100
AcDbLine
 10
4.524126131551438
 20
5.215103789064174
 30
0.0
 11
4.544795422890021
 21
5.215103789064174
 31
0.0
  0
LINE
  5
2BA
330
1F
100
AcDbEntity
  8
CENTERMARKS
  6
CONTINUOUS
100
AcDbLine
 10
4.53446077722073
 20
5.204769143394882
 30
0.0
 11
4.53446077722073
 21
5.225438434733466
 31
0.0
  0
LINE
  5
2BB
330
1F
100
AcDbEntity
  8
CENTERMARKS
  6
CENTER
100
AcDbLine
 10
4.513791485882146
 20
5.215103789064174
 30
0.0
 11
4.484263926827028
 21
5.215103789064174
 31
0.0
  0
LINE
  5
2BC
330
1F
100
AcDbEntity
  8
CENTERMARKS
  6
CENTER
100
AcDbLine
 10
4.555130068559313
 20
5.215103789064174
 30
0.0
 11
4.584657627614432
 21
5.215103789064174
 31
0.0
  0
LINE
  5
2BD
330
1F
100
AcDbEntity
  8
CENTERMARKS
  6
CENTER
100
AcDbLine
 10
4.53446077722073
 20
5.235773080402757
 30
0.0
 11
4.53446077722073
 21
5.265300639457876
 31
0.0
  0
LINE
  5
2BE
330
1F
100
AcDbEntity
  8
CENTERMARKS
  6
CENTER
100
AcDbLine
 10
4.53446077722073
 20
5.194434497725591
 30
0.0
 11
4.53446077722073
 21
5.164906938670472
 31
0.0
  0
LINE
  5
2C3
330
1F
100
AcDbEntity
  8
CENTERMARKS
  6
CONTINUOUS
100
AcDbLine
 10
4.699109415145197
 20
5.214594671996132
 30
0.0
 11
4.719778706483781
 21
5.214594671996132
 31
0.0
  0
LINE
  5
2C4
330
1F
100
AcDbEntity
  8
CENTERMARKS
  6
CONTINUOUS
100
AcDbLine
 10
4.709444060814489
 20
5.204260026326841
 30
0.0
 11
4.709444060814489
 21
5.224929317665424
 31
0.0
  0
LINE
  5
2C5
330
1F
100
AcDbEntity
  8
CENTERMARKS
  6
CENTER
100
AcDbLine
 10
4.688774769475906
 20
5.214594671996132
 30
0.0
 11
4.659247210420787
 21
5.214594671996132
 31
0.0
  0
LINE
  5
2C6
330
1F
100
AcDbEntity
  8
CENTERMARKS
  6
CENTER
100
AcDbLine
 10
4.730113352153072
 20
5.214594671996132
 30
0.0
 11
4.759640911208191
 21
5.214594671996132
 31
0.0
  0
LINE
  5
2C7
330
1F
100
AcDbEntity
  8
CENTERMARKS
  6
CENTER
100
AcDbLine
 10
4.709444060814489
 20
5.235263963334716
 30
0.0
 11
4.709444060814489
 21
5.264791522389834
 31
0.0
  0
LINE
  5
2C8
330
1F
100
AcDbEntity
  8
CENTERMARKS
  6
CENTER
100
AcDbLine
 10
4.709444060814489
 20
5.193925380657549
 30
0.0
 11
4.709444060814489
 21
5.164397821602431
 31
0.0
  0
LINE
  5
2CD
330
1F
100
AcDbEntity
  8
CENTERMARKS
  6
CONTINUOUS
100
AcDbLine
 10
4.608685670984812
 20
5.360995668338251
 30
0.0
 11
4.63452228515804
 21
5.360995668338251
 31
0.0
  0
LINE
  5
2CE
330
1F
100
AcDbEntity
  8
CENTERMARKS
  6
CONTINUOUS
100
AcDbLine
 10
4.621603978071426
 20
5.348077361251637
 30
0.0
 11
4.621603978071426
 21
5.373913975424865
 31
0.0
  0
LINE
  5
2CF
330
1F
100
AcDbEntity
  8
CENTERMARKS
  6
CENTER
100
AcDbLine
 10
4.595767363898198
 20
5.360995668338251
 30
0.0
 11
4.558857915079301
 21
5.360995668338251
 31
0.0
  0
LINE
  5
2D0
330
1F
100
AcDbEntity
  8
CENTERMARKS
  6
CENTER
100
AcDbLine
 10
4.647440592244654
 20
5.360995668338251
 30
0.0
 11
4.684350041063551
 21
5.360995668338251
 31
0.0
  0
LINE
  5
2D1
330
1F
100
AcDbEntity
  8
CENTERMARKS
  6
CENTER
100
AcDbLine
 10
4.621603978071426
 20
5.386832282511479
 30
0.0
 11
4.621603978071426
 21
5.423741731330376
 31
0.0
  0
LINE
  5
2D2
330
1F
100
AcDbEntity
  8
CENTERMARKS
  6
CENTER
100
AcDbLine
 10
4.621603978071426
 20
5.335159054165024
 30
0.0
 11
4.621603978071426
 21
5.298249605346126
 31
0.0
  0
LINE
  5
2D7
330
1F
100
AcDbEntity
  8
CENTERMARKS
  6
CONTINUOUS
100
AcDbLine
 10
4.607738290736846
 20
5.279948356033659
 30
0.0
 11
4.633574904910073
 21
5.279948356033659
 31
0.0
  0
LINE
  5
2D8
330
1F
100
AcDbEntity
  8
CENTERMARKS
  6
CONTINUOUS
100
AcDbLine
 10
4.620656597823459
 20
5.267030048947045
 30
0.0
 11
4.620656597823459
 21
5.292866663120273
 31
0.0
  0
LINE
  5
2D9
330
1F
100
AcDbEntity
  8
CENTERMARKS
  6
CENTER
100
AcDbLine
 10
4.594819983650232
 20
5.279948356033659
 30
0.0
 11
4.557910534831334
 21
5.279948356033659
 31
0.0
  0
LINE
  5
2DA
330
1F
100
AcDbEntity
  8
CENTERMARKS
  6
CENTER
100
AcDbLine
 10
4.646493211996687
 20
5.279948356033659
 30
0.0
 11
4.683402660815585
 21
5.279948356033659
 31
0.0
  0
LINE
  5
2DB
330
1F
100
AcDbEntity
  8
CENTERMARKS
  6
CENTER
100
AcDbLine
 10
4.620656597823459
 20
5.305784970206886
 30
0.0
 11
4.620656597823459
 21
5.342694419025784
 31
0.0
  0
LINE
  5
2DC
330
1F
100
AcDbEntity
  8
CENTERMARKS
  6
CENTER
100
AcDbLine
 10
4.620656597823459
 20
5.254111741860431
 30
0.0
 11
4.620656597823459
 21
5.217202293041534
 31
0.0
  0
LINE
  5
2E1
330
1F
100
AcDbEntity
  8
CENTERMARKS
  6
CONTINUOUS
100
AcDbLine
 10
5.682152320397074
 20
5.659867380065478
 30
0.0
 11
5.691958039754389
 21
5.659867380065478
 31
0.0
  0
LINE
  5
2E2
330
1F
100
AcDbEntity
  8
CENTERMARKS
  6
CONTINUOUS
100
AcDbLine
 10
5.687055180075731
 20
5.65496452038682
 30
0.0
 11
5.687055180075731
 21
5.664770239744136
 31
0.0
  0
LINE
  5
2E3
330
1F
100
AcDbEntity
  8
CENTERMARKS
  6
CENTER
100
AcDbLine
 10
5.677249460718416
 20
5.659867380065478
 30
0.0
 11
5.663241290207966
 21
5.659867380065478
 31
0.0
  0
LINE
  5
2E4
330
1F
100
AcDbEntity
  8
CENTERMARKS
  6
CENTER
100
AcDbLine
 10
5.696860899433046
 20
5.659867380065478
 30
0.0
 11
5.710869069943496
 21
5.659867380065478
 31
0.0
  0
LINE
  5
2E5
330
1F
100
AcDbEntity
  8
CENTERMARKS
  6
CENTER
100
AcDbLine
 10
5.687055180075731
 20
5.669673099422793
 30
0.0
 11
5.68705518007573
 21
5.683681269933243
 31
0.0
  0
LINE
  5
2E6
330
1F
100
AcDbEntity
  8
CENTERMARKS
  6
CENTER
100
AcDbLine
 10
5.687055180075731
 20
5.650061660708163
 30
0.0
 11
5.687055180075732
 21
5.636053490197713
 31
0.0
  0
MTEXT
  5
2E7
102
{ACAD_XDICTIONARY
360
2E8
102
}
330
1F
100
AcDbEntity
  8
ANNOTATION_TEXT
 62
     7
 60
     1
100
AcDbMText
 10
5.383030174793671
 20
4.566402813136344
 30
0.0
 40
0.12
 41
0.0
 71
     2
 72
     1
  1

  7
ONSHAPE-STANDARD-VIEW-LABE
1001
ACAD
1000
ACAD_MTEXT_DEFINED_HEIGHT_BEGIN
1070
    46
1040
0.12
1000
ACAD_MTEXT_DEFINED_HEIGHT_END
  0
ENDSEC
  0
SECTION
  2
OBJECTS
  0
DICTIONARY
  5
C
330
0
100
AcDbDictionary
  3
ACAD_FIELDLIST
350
23B
  3
ACAD_GROUP
350
D
  3
ACAD_LAYOUT
350
1A
  3
ACAD_MATERIAL
350
43
  3
ACAD_MLEADERSTYLE
350
6B
  3
ACAD_MLINESTYLE
350
17
  3
ACAD_PLOTSETTINGS
350
19
  3
ACAD_SCALELIST
350
47
  3
ACAD_VISUALSTYLE
350
2A
  3
ACDBHEADERROUNDTRIPXREC
350
352
  3
ACDBVARIABLEDICTIONARY
350
6E
  3
DWGPROPS
350
379
  3
ONSHAPE_DATA
350
2EE
  0
DICTIONARY
  5
37A
330
8
100
AcDbDictionary
280
     1
  3
ACAD_XREC_ROUNDTRIP
360
37B
  0
DICTIONARY
  5
1D4
330
1D3
100
AcDbDictionary
280
     1
  0
DICTIONARY
  5
1DB
330
1DA
100
AcDbDictionary
280
     1
  0
DICTIONARY
  5
1E5
330
1E4
100
AcDbDictionary
280
     1
  0
DICTIONARY
  5
1EB
330
1EA
100
AcDbDictionary
280
     1
  0
DICTIONARY
  5
205
330
204
100
AcDbDictionary
280
     1
  0
DICTIONARY
  5
20B
330
20A
100
AcDbDictionary
280
     1
  0
DICTIONARY
  5
211
330
210
100
AcDbDictionary
280
     1
  0
DICTIONARY
  5
218
330
217
100
AcDbDictionary
280
     1
  0
DICTIONARY
  5
21F
330
21E
100
AcDbDictionary
280
     1
  0
DICTIONARY
  5
226
330
225
100
AcDbDictionary
280
     1
  0
DICTIONARY
  5
22D
330
22C
100
AcDbDictionary
280
     1
  0
DICTIONARY
  5
236
330
235
100
AcDbDictionary
280
     1
  0
DICTIONARY
  5
2E8
330
2E7
100
AcDbDictionary
280
     1
  3
ONSHAPE_VIEW_ID
360
2E9
  0
ACAD_PROXY_OBJECT
  5
23B
102
{ACAD_REACTORS
330
C
102
}
330
C
100
AcDbProxyObject
 90
      499
 91
      509
 93
       11
310
4600
330
1D7
330
1D8
330
1DE
330
1DF
330
1E8
330
1E9
330
1EE
330
1EF
330
208
330
209
330
20E
330
20F
330
214
330
215
330
21B
330
21C
330
222
330
223
330
229
330
22A
330
230
330
231
330
239
330
23A
 94
        0
  0
DICTIONARY
  5
D
102
{ACAD_REACTORS
330
C
102
}
330
C
100
AcDbDictionary
  0
DICTIONARY
  5
1A
102
{ACAD_REACTORS
330
C
102
}
330
C
100
AcDbDictionary
  0
DICTIONARY
  5
43
102
{ACAD_REACTORS
330
C
102
}
330
C
100
AcDbDictionary
  3
BYBLOCK
350
45
  3
BYLAYER
350
44
  3
GLOBAL
350
46
  0
DICTIONARY
  5
6B
102
{ACAD_REACTORS
330
C
102
}
330
C
100
AcDbDictionary
  3
STANDARD
350
6C
  0
DICTIONARY
  5
17
102
{ACAD_REACTORS
330
C
102
}
330
C
100
AcDbDictionary
  3
STANDARD
350
18
  0
DICTIONARY
  5
19
102
{ACAD_REACTORS
330
C
102
}
330
C
100
AcDbDictionary
  0
DICTIONARY
  5
47
102
{ACAD_REACTORS
330
C
102
}
330
C
100
AcDbDictionary
  3
A0
350
48
  3
A1
350
49
  3
A2
350
4A
  3
A3
350
4B
  3
A4
350
4C
  3
A5
350
4D
  3
A6
350
4E
  3
A7
350
4F
  3
A8
350
50
  3
A9
350
51
  3
B0
350
52
  3
B1
350
53
  3
B2
350
54
  3
B3
350
55
  3
B4
350
56
  3
B5
350
57
  3
B6
350
58
  3
B7
350
59
  3
B8
350
5A
  3
B9
350
5B
  3
C0
350
5C
  3
C1
350
5D
  3
C2
350
5E
  3
C3
350
5F
  3
C4
350
60
  3
C5
350
61
  3
C6
350
62
  3
C7
350
63
  3
C8
350
64
  3
C9
350
65
  3
D0
350
66
  3
D1
350
67
  3
D2
350
68
  0
DICTIONARY
  5
2A
102
{ACAD_REACTORS
330
C
102
}
330
C
100
AcDbDictionary
  3
2DWIREFRAME
350
2F
  3
BASIC
350
32
  3
BRIGHTEN
350
36
  3
COLORCHANGE
350
3A
  3
CONCEPTUAL
350
34
  3
DIM
350
35
  3
EDGECOLOROFF
350
3D
  3
FACEPATTERN
350
39
  3
FLAT
350
2B
  3
FLATWITHEDGES
350
2C
  3
GOURAUD
350
2D
  3
GOURAUDWITHEDGES
350
2E
  3
HIDDEN
350
31
  3
JITTEROFF
350
3B
  3
LINEPATTERN
350
38
  3
OVERHANGOFF
350
3C
  3
REALISTIC
350
33
  3
SHADED
350
42
  3
SHADED_WITH_EDGES
350
41
  3
SHADES_OF_GRAY
350
3E
  3
SKETCHY
350
3F
  3
THICKEN
350
37
  3
WIREFRAME
350
30
  3
X-RAY
350
40
  0
DICTIONARY
  5
352
102
{ACAD_REACTORS
330
C
102
}
330
C
100
AcDbDictionary
  3
CEPSNID
350
35C
  3
CEPSNTYPE
350
35B
  3
DIMSTYLEDATA
350
372
  3
FINGERPRINTGUID
350
35D
  3
HYPERLINKBASE
350
355
  3
INSUNITS
350
35A
  3
LAYOUTDICT
350
357
  3
LWETCUNION
350
359
  3
PLOTSETDICT
350
358
  3
PSVPSCALE
350
35F
  3
PUCSBASE
350
362
  3
PUCSORGBACK
350
368
  3
PUCSORGBOTTOM
350
364
  3
PUCSORGFRONT
350
367
  3
PUCSORGLEFT
350
365
  3
PUCSORGRIGHT
350
366
  3
PUCSORGTOP
350
363
  3
PUCSORTHOREF
350
360
  3
PUCSORTHOVIEW
350
361
  3
STYLESHEET
350
356
  3
TSTACKALIGN
350
353
  3
TSTACKSIZE
350
354
  3
UCSBASE
350
36B
  3
UCSORGBACK
350
371
  3
UCSORGBOTTOM
350
36D
  3
UCSORGFRONT
350
370
  3
UCSORGLEFT
350
36E
  3
UCSORGRIGHT
350
36F
  3
UCSORGTOP
350
36C
  3
UCSORTHOREF
350
369
  3
UCSORTHOVIEW
350
36A
  3
VERSIONGUID
350
35E
  0
DICTIONARY
  5
6E
102
{ACAD_REACTORS
330
C
102
}
330
C
100
AcDbDictionary
  3
CANNOSCALE
350
37C
  3
CMLEADERSTYLE
350
374
  3
CTABLESTYLE
350
373
  3
DIMASSOC
350
377
  3
HIDETEXT
350
378
  3
MSLTSCALE
350
37D
  3
OLEFRAME
350
6F
  0
XRECORD
  5
379
102
{ACAD_REACTORS
330
C
102
}
330
C
100
AcDbXrecord
  1
DWGPROPS COOKIE
  2

  3

  4

  6

  7

  8
nobody
  9

300
=
301
=
302
=
303
=
304
=
305
=
306
=
307
=
308
=
309
=
 40
0.0
 41
2461305.055537755
 42
2461305.05553853
  1

 90
        0
  0
DICTIONARY
  5
2EE
102
{ACAD_REACTORS
330
C
102
}
330
C
100
AcDbDictionary
280
     1
  3
CAD_STANDARD
360
2F0
  3
DIM_UNITS
360
2EF
  3
FIRST_ANGLE
360
2F1
  3
ONSHAPE_ANG_TOL_PRECISION
360
2F4
  3
ONSHAPE_BREAK_DIMENSION_DEFAULT
360
2FA
  3
ONSHAPE_DIMENSION_FIT_STANDARD
360
2FB
  3
ONSHAPE_DIMENSION_TEXT_HOR
360
2F9
  3
ONSHAPE_FITCLASS_TOL_PRECISION
360
2F5
  3
ONSHAPE_JOGDIMENSION_LOCK_
360
2F7
  3
ONSHAPE_SHOWDIMENSIONSLINE
360
2F8
  3
ONSHAPE_UNDERLINEOVERRIDEN
360
2F6
  3
ONSHAPE_VSHARP_EXTENSION
360
2F3
  3
ONSHAPE_WELD_STANDARD
360
2F2
  0
XRECORD
  5
37B
102
{ACAD_REACTORS
330
37A
102
}
330
37A
100
AcDbXrecord
102
VTR_0.000_0.000_1.000_1.000_VISUALSTYLE
340
2F
102
VTR_0.000_0.000_1.000_1.000_GRIDDISPLAY
 70
     3
102
VTR_0.000_0.000_1.000_1.000_GRIDMAJOR
 70
     5
102
VTR_0.000_0.000_1.000_1.000_DEFAULTLIGHTING
280
     1
102
VTR_0.000_0.000_1.000_1.000_DEFAULTLIGHTINGTYPE
 70
     1
102
VTR_0.000_0.000_1.000_1.000_BRIGHTNESS
141
0.0
102
VTR_0.000_0.000_1.000_1.000_CONTRAST
142
0.0
  0
XRECORD
  5
2E9
102
{ACAD_REACTORS
330
2E8
102
}
330
2E8
100
AcDbXrecord
330
0
  0
MATERIAL
  5
45
102
{ACAD_REACTORS
330
43
102
}
102
{ACAD_XDICTIONARY
360
380
102
}
330
43
100
AcDbMaterial
  1
BYBLOCK
  0
MATERIAL
  5
44
102
{ACAD_REACTORS
330
43
102
}
102
{ACAD_XDICTIONARY
360
37E
102
}
330
43
100
AcDbMaterial
  1
BYLAYER
  0
MATERIAL
  5
46
102
{ACAD_REACTORS
330
43
102
}
102
{ACAD_XDICTIONARY
360
382
102
}
330
43
100
AcDbMaterial
  1
GLOBAL
  0
ACAD_PROXY_OBJECT
  5
6C
102
{ACAD_REACTORS
330
6B
102
}
330
6B
100
AcDbProxyObject
 90
      499
 91
      505
 93
      610
310
40901902A4063FBFFFFFE056BD1B81E855B9FC0AD7A3703D0AD73F4214DD185B99185C9900AD7A3703D0AC73F90140501A02B5E8DC0F42B1CFC02B5E8DC0F42B1CFE5764000000000000300FC0
340
14
340
0
340
11
340
0
 94
        0
1001
ACAD_MLEADERVER
1070
     2
  0
MLINESTYLE
  5
18
102
{ACAD_REACTORS
330
17
102
}
330
17
100
AcDbMlineStyle
  2
Standard
 70
     0
  3

 62
   256
 51
90.0
 52
90.0
 71
     2
 49
0.5
 62
   256
  6
BYLAYER
 49
-0.5
 62
   256
  6
BYLAYER
  0
ACAD_PROXY_OBJECT
  5
48
102
{ACAD_REACTORS
330
47
102
}
330
47
100
AcDbProxyObject
 90
      499
 91
      503
 93
       41
310
903313A31580
  0
ACAD_PROXY_OBJECT
  5
49
102
{ACAD_REACTORS
330
47
102
}
330
47
100
AcDbProxyObject
 90
      499
 91
      503
 93
      105
310
903313A324000000000000004000
  0
ACAD_PROXY_OBJECT
  5
4A
102
{ACAD_REACTORS
330
47
102
}
330
47
100
AcDbProxyObject
 90
      499
 91
      503
 93
      105
310
903313A344000000000000104000
  0
ACAD_PROXY_OBJECT
  5
4B
102
{ACAD_REACTORS
330
47
102
}
330
47
100
AcDbProxyObject
 90
      499
 91
      503
 93
      105
310
903313A354000000000000144000
  0
ACAD_PROXY_OBJECT
  5
4C
102
{ACAD_REACTORS
330
47
102
}
330
47
100
AcDbProxyObject
 90
      499
 91
      503
 93
      105
310
903313A384000000000000204000
  0
ACAD_PROXY_OBJECT
  5
4D
102
{ACAD_REACTORS
330
47
102
}
330
47
100
AcDbProxyObject
 90
      499
 91
      503
 93
      113
310
904313A31304000000000000244000
  0
ACAD_PROXY_OBJECT
  5
4E
102
{ACAD_REACTORS
330
47
102
}
330
47
100
AcDbProxyObject
 90
      499
 91
      503
 93
      113
310
904313A31364000000000000304000
  0
ACAD_PROXY_OBJECT
  5
4F
102
{ACAD_REACTORS
330
47
102
}
330
47
100
AcDbProxyObject
 90
      499
 91
      503
 93
      113
310
904313A32304000000000000344000
  0
ACAD_PROXY_OBJECT
  5
50
102
{ACAD_REACTORS
330
47
102
}
330
47
100
AcDbProxyObject
 90
      499
 91
      503
 93
      113
310
904313A333040000000000003E4000
  0
ACAD_PROXY_OBJECT
  5
51
102
{ACAD_REACTORS
330
47
102
}
330
47
100
AcDbProxyObject
 90
      499
 91
      503
 93
      113
310
904313A34304000000000000444000
  0
ACAD_PROXY_OBJECT
  5
52
102
{ACAD_REACTORS
330
47
102
}
330
47
100
AcDbProxyObject
 90
      499
 91
      503
 93
      113
310
904313A35304000000000000494000
  0
ACAD_PROXY_OBJECT
  5
53
102
{ACAD_REACTORS
330
47
102
}
330
47
100
AcDbProxyObject
 90
      499
 91
      503
 93
      121
310
905313A3130304000000000000594000
  0
ACAD_PROXY_OBJECT
  5
54
102
{ACAD_REACTORS
330
47
102
}
330
47
100
AcDbProxyObject
 90
      499
 91
      503
 93
      105
310
903323A310000000000000010100
  0
ACAD_PROXY_OBJECT
  5
55
102
{ACAD_REACTORS
330
47
102
}
330
47
100
AcDbProxyObject
 90
      499
 91
      503
 93
      105
310
903343A310000000000000410100
  0
ACAD_PROXY_OBJECT
  5
56
102
{ACAD_REACTORS
330
47
102
}
330
47
100
AcDbProxyObject
 90
      499
 91
      503
 93
      105
310
903383A310000000000000810100
  0
ACAD_PROXY_OBJECT
  5
57
102
{ACAD_REACTORS
330
47
102
}
330
47
100
AcDbProxyObject
 90
      499
 91
      503
 93
      113
310
90431303A310000000000000910100
  0
ACAD_PROXY_OBJECT
  5
58
102
{ACAD_REACTORS
330
47
102
}
330
47
100
AcDbProxyObject
 90
      499
 91
      503
 93
      121
310
9053130303A310000000000001650100
  0
ACAD_PROXY_OBJECT
  5
59
102
{ACAD_REACTORS
330
47
102
}
330
47
100
AcDbProxyObject
 90
      499
 91
      503
 93
      257
310
90E312F31323822203D2031272D3022000000000000200FC000000000000284000
  0
ACAD_PROXY_OBJECT
  5
5A
102
{ACAD_REACTORS
330
47
102
}
330
47
100
AcDbProxyObject
 90
      499
 91
      503
 93
      249
310
90D312F363422203D2031272D3022000000000000240FC000000000000284000
  0
ACAD_PROXY_OBJECT
  5
5B
102
{ACAD_REACTORS
330
47
102
}
330
47
100
AcDbProxyObject
 90
      499
 91
      503
 93
      249
310
90D312F333222203D2031272D3022000000000000280FC000000000000284000
  0
ACAD_PROXY_OBJECT
  5
5C
102
{ACAD_REACTORS
330
47
102
}
330
47
100
AcDbProxyObject
 90
      499
 91
      503
 93
      249
310
90D312F313622203D2031272D30220000000000002C0FC000000000000284000
  0
ACAD_PROXY_OBJECT
  5
5D
102
{ACAD_REACTORS
330
47
102
}
330
47
100
AcDbProxyObject
 90
      499
 91
      503
 93
      249
310
90D332F333222203D2031272D30220000000000002E0FC000000000000284000
  0
ACAD_PROXY_OBJECT
  5
5E
102
{ACAD_REACTORS
330
47
102
}
330
47
100
AcDbProxyObject
 90
      499
 91
      503
 93
      241
310
90C312F3822203D2031272D3022000000000000300FC000000000000284000
  0
ACAD_PROXY_OBJECT
  5
5F
102
{ACAD_REACTORS
330
47
102
}
330
47
100
AcDbProxyObject
 90
      499
 91
      503
 93
      249
310
90D332F313622203D2031272D3022000000000000320FC000000000000284000
  0
ACAD_PROXY_OBJECT
  5
60
102
{ACAD_REACTORS
330
47
102
}
330
47
100
AcDbProxyObject
 90
      499
 91
      503
 93
      241
310
90C312F3422203D2031272D3022000000000000340FC000000000000284000
  0
ACAD_PROXY_OBJECT
  5
61
102
{ACAD_REACTORS
330
47
102
}
330
47
100
AcDbProxyObject
 90
      499
 91
      503
 93
      241
310
90C332F3822203D2031272D3022000000000000360FC000000000000284000
  0
ACAD_PROXY_OBJECT
  5
62
102
{ACAD_REACTORS
330
47
102
}
330
47
100
AcDbProxyObject
 90
      499
 91
      503
 93
      241
310
90C312F3222203D2031272D3022000000000000380FC000000000000284000
  0
ACAD_PROXY_OBJECT
  5
63
102
{ACAD_REACTORS
330
47
102
}
330
47
100
AcDbProxyObject
 90
      499
 91
      503
 93
      241
310
90C332F3422203D2031272D30220000000000003A0FC000000000000284000
  0
ACAD_PROXY_OBJECT
  5
64
102
{ACAD_REACTORS
330
47
102
}
330
47
100
AcDbProxyObject
 90
      499
 91
      503
 93
      161
310
90A3122203D2031272D30224000000000000284000
  0
ACAD_PROXY_OBJECT
  5
65
102
{ACAD_REACTORS
330
47
102
}
330
47
100
AcDbProxyObject
 90
      499
 91
      503
 93
      257
310
90E312D312F3222203D2031272D30220000000000003E0FC000000000000284000
  0
ACAD_PROXY_OBJECT
  5
66
102
{ACAD_REACTORS
330
47
102
}
330
47
100
AcDbProxyObject
 90
      499
 91
      503
 93
      225
310
90A3322203D2031272D302200000000000002100000000000000284000
  0
ACAD_PROXY_OBJECT
  5
67
102
{ACAD_REACTORS
330
47
102
}
330
47
100
AcDbProxyObject
 90
      499
 91
      503
 93
      225
310
90A3622203D2031272D302200000000000006100000000000000284000
  0
ACAD_PROXY_OBJECT
  5
68
102
{ACAD_REACTORS
330
47
102
}
330
47
100
AcDbProxyObject
 90
      499
 91
      503
 93
      249
310
90D31272D3022203D2031272D30220000000000000A100000000000000284000
  0
ACAD_PROXY_OBJECT
  5
2F
102
{ACAD_REACTORS
330
2A
102
}
330
2A
100
AcDbProxyObject
 90
      499
 91
      501
 93
      436
310
42CC9915DA5C99599C985B595049028333333333333E33F0000000000000F90107901411070040501600405405064090741402480A0340
1001
ACAD
1000
AcDbSavedByObjectVersion
1070
     0
  0
ACAD_PROXY_OBJECT
  5
32
102
{ACAD_REACTORS
330
2A
102
}
330
2A
100
AcDbProxyObject
 90
      499
 91
      501
 93
      388
310
4150985CDA58D07406404333333333333E33F0000000000000F90107A41107004050150841D405064090741402480A0350
1001
ACAD
1000
AcDbSavedByObjectVersion
1070
     0
  0
ACAD_PROXY_OBJECT
  5
36
102
{ACAD_REACTORS
330
2A
102
}
330
2A
100
AcDbProxyObject
 90
      499
 91
      501
 93
      428
310
42109C9A59DA1D195B90C409028333333333333E33F0000000000000F9010790141107004050150841D405064090741402480A029950
1001
ACAD
1000
AcDbSavedByObjectVersion
1070
     0
  0
ACAD_PROXY_OBJECT
  5
3A
102
{ACAD_REACTORS
330
2A
102
}
330
2A
100
AcDbProxyObject
 90
      499
 91
      501
 93
      452
310
42D0DBDB1BDC90DA185B99D95104090240C333333333333E33F0000000000000F90108901411070040501508421405064090741402480A0350
1001
ACAD
1000
AcDbSavedByObjectVersion
1070
     0
  0
ACAD_PROXY_OBJECT
  5
34
102
{ACAD_REACTORS
330
2A
102
}
330
2A
100
AcDbProxyObject
 90
      499
 91
      501
 93
      500
310
4290DBDB98D95C1D1D585B10940D028333333333333E33F0000000000000F90107902409070040501000000000018199010841D405064090740C02480A0340
1001
ACAD
1000
AcDbSavedByObjectVersion
1070
     0
  0
ACAD_PROXY_OBJECT
  5
35
102
{ACAD_REACTORS
330
2A
102
}
330
2A
100
AcDbProxyObject
 90
      499
 91
      501
 93
      412
310
40D11A5B50B409028333333333333E33F0000000000000F9010790141107004050150841D405064090741402480A02677FFFFFD0
1001
ACAD
1000
AcDbSavedByObjectVersion
1070
     0
  0
ACAD_PROXY_OBJECT
  5
3D
102
{ACAD_REACTORS
330
2A
102
}
330
2A
100
AcDbProxyObject
 90
      499
 91
      501
 93
      452
310
43115919D950DBDB1BDC93D999916409028333333333333E33F0000000000000F9010790141107004050150841D405064090741402480A0350
1001
ACAD
1000
AcDbSavedByObjectVersion
1070
     0
  0
ACAD_PROXY_OBJECT
  5
39
102
{ACAD_REACTORS
330
2A
102
}
330
2A
100
AcDbProxyObject
 90
      499
 91
      501
 93
      444
310
42D19858D95C185D1D195C9B90F409028333333333333E33F0000000000000F9010790141107004050150841D405064090741402480A0350
1001
ACAD
1000
AcDbSavedByObjectVersion
1070
     0
  0
ACAD_PROXY_OBJECT
  5
2B
102
{ACAD_REACTORS
330
2A
102
}
330
2A
100
AcDbProxyObject
 90
      499
 91
      501
 93
      380
310
41119B185D240901404333333333333E33F0000000000000F9010740A907004050150841D405064090741402480A1B50
1001
ACAD
1000
AcDbSavedByObjectVersion
1070
     0
  0
ACAD_PROXY_OBJECT
  5
2C
102
{ACAD_REACTORS
330
2A
102
}
330
2A
100
AcDbProxyObject
 90
      499
 91
      501
 93
      468
310
43519B185D15DA5D1A115919D95CD0140901404333333333333E33F0000000000000F90107409019070040501600405405064090741402480A1B50
1001
ACAD
1000
AcDbSavedByObjectVersion
1070
     0
  0
ACAD_PROXY_OBJECT
  5
2D
102
{ACAD_REACTORS
330
2A
102
}
330
2A
100
AcDbProxyObject
 90
      499
 91
      501
 93
      404
310
41D1DBDD5C985D5910240902404333333333333E33F0000000000000F9010740A9070040501641D405064090741402480A1B50
1001
ACAD
1000
AcDbSavedByObjectVersion
1070
     0
  0
ACAD_PROXY_OBJECT
  5
2E
102
{ACAD_REACTORS
330
2A
102
}
330
2A
100
AcDbProxyObject
 90
      499
 91
      501
 93
      492
310
4411DBDD5C985D5915DA5D1A115919D95CD0340902404333333333333E33F0000000000000F90107409019070040501600405405064090741402480A1B50
1001
ACAD
1000
AcDbSavedByObjectVersion
1070
     0
  0
ACAD_PROXY_OBJECT
  5
31
102
{ACAD_REACTORS
330
2A
102
}
330
2A
100
AcDbProxyObject
 90
      499
 91
      501
 93
      476
310
41921A5919195B90640502408333333333333E33F0000000000000F901079024090700405020000000000001110200405405064090740C02480A0340
1001
ACAD
1000
AcDbSavedByObjectVersion
1070
     0
  0
ACAD_PROXY_OBJECT
  5
3B
102
{ACAD_REACTORS
330
2A
102
}
330
2A
100
AcDbProxyObject
 90
      499
 91
      501
 93
      428
310
42529A5D1D195C93D999914409028333333333333E33F0000000000000F9010790141107004050150A41D405064090741402480A0350
1001
ACAD
1000
AcDbSavedByObjectVersion
1070
     0
  0
ACAD_PROXY_OBJECT
  5
38
102
{ACAD_REACTORS
330
2A
102
}
330
2A
100
AcDbProxyObject
 90
      499
 91
      501
 93
      444
310
42D31A5B995C185D1D195C9B90E409028333333333333E33F0000000000000F9010790141107004050750841D405064090741402483A0350
1001
ACAD
1000
AcDbSavedByObjectVersion
1070
     0
  0
ACAD_PROXY_OBJECT
  5
3C
102
{ACAD_REACTORS
330
2A
102
}
330
2A
100
AcDbProxyObject
 90
      499
 91
      501
 93
      444
310
42D3DD995C9A185B99D3D999915409028333333333333E33F0000000000000F9010790141107004050150941D405064090741402480A0350
1001
ACAD
1000
AcDbSavedByObjectVersion
1070
     0
  0
ACAD_PROXY_OBJECT
  5
33
102
{ACAD_REACTORS
330
2A
102
}
330
2A
100
AcDbProxyObject
 90
      499
 91
      501
 93
      428
310
425499585B1A5CDD1A58D08409038333333333333E33F0000000000000F9010740A907004050150800405405064090740C02480A1B40
1001
ACAD
1000
AcDbSavedByObjectVersion
1070
     0
  0
ACAD_PROXY_OBJECT
  5
42
102
{ACAD_REACTORS
330
2A
102
}
330
2A
100
AcDbProxyObject
 90
      499
 91
      501
 93
      420
310
4194DA1859195911B40902404333333333333E33F0000000000000F9010740A41107004050150800405405064090840C02480A0B40
1001
ACAD
1000
AcDbSavedByObjectVersion
1070
     0
  0
ACAD_PROXY_OBJECT
  5
41
102
{ACAD_REACTORS
330
2A
102
}
330
2A
100
AcDbProxyObject
 90
      499
 91
      501
 93
      516
310
4454DA18591959081DDA5D1A08195919D95CD1A40902404333333333333E33F0000000000000F901074090142907004050250800405405064090740C02480A0B40
1001
ACAD
1000
AcDbSavedByObjectVersion
1070
     0
  0
ACAD_PROXY_OBJECT
  5
3E
102
{ACAD_REACTORS
330
2A
102
}
330
2A
100
AcDbProxyObject
 90
      499
 91
      501
 93
      532
310
4394DA1859195CC81BD98811DC985E5174090240C333333333333E33F0000000000000F901079024090741D01000000000000111010841D405064090740C02480A0340
1001
ACAD
1000
AcDbSavedByObjectVersion
1070
     0
  0
ACAD_PROXY_OBJECT
  5
3F
102
{ACAD_REACTORS
330
2A
102
}
330
2A
100
AcDbProxyObject
 90
      499
 91
      501
 93
      476
310
41D4DAD95D18DA1E51840502408333333333333E33F0000000000000F901079024090741D01000000000000111010B41D405064090741802480A0340
1001
ACAD
1000
AcDbSavedByObjectVersion
1070
     0
  0
ACAD_PROXY_OBJECT
  5
37
102
{ACAD_REACTORS
330
2A
102
}
330
2A
100
AcDbProxyObject
 90
      499
 91
      501
 93
      412
310
41D51A1A58DAD95B90D409028333333333333E33F0000000000000F9010790141107004050150C41D405064090741402480A0350
1001
ACAD
1000
AcDbSavedByObjectVersion
1070
     0
  0
ACAD_PROXY_OBJECT
  5
30
102
{ACAD_REACTORS
330
2A
102
}
330
2A
100
AcDbProxyObject
 90
      499
 91
      501
 93
      420
310
4255DA5C99599C985B595059028333333333333E33F0000000000000F90107901411070040501600405405064090740C02480A0340
1001
ACAD
1000
AcDbSavedByObjectVersion
1070
     0
  0
ACAD_PROXY_OBJECT
  5
40
102
{ACAD_REACTORS
330
2A
102
}
330
2A
100
AcDbProxyObject
 90
      499
 91
      501
 93
      404
310
41560B54985E51940902404000000000000E03F0000000000000F9010740501907004050150841D405064090740C02480A1B40
1001
ACAD
1000
AcDbSavedByObjectVersion
1070
     0
  0
XRECORD
  5
35C
102
{ACAD_REACTORS
330
352
102
}
330
352
100
AcDbXrecord
340
0
  0
XRECORD
  5
35B
102
{ACAD_REACTORS
330
352
102
}
330
352
100
AcDbXrecord
 90
        0
  0
XRECORD
  5
372
102
{ACAD_REACTORS
330
352
102
}
330
352
100
AcDbXrecord
1000
DSTYLE
1002
{
1070
   179
 70
     1
1070
   170
 70
     1
1070
   285
 70
     7
1070
   176
 70
     7
1070
   177
 70
     7
1070
   178
 70
     7
1070
   271
 70
     3
1070
    44
 40
0.08
1070
   144
 40
16.0
1070
   371
 70
    13
1070
   372
 70
    13
1070
   272
 70
     3
1070
   340
340
72
1070
   140
 40
0.12
1070
   284
 70
     7
1070
   288
 70
     1
1070
    78
 70
     7
1070
    90
 70
     1
1002
}
  0
XRECORD
  5
35D
102
{ACAD_REACTORS
330
352
102
}
330
352
100
AcDbXrecord
  1
{77383134-7172-b266-b7b9-327165633177}
  0
XRECORD
  5
355
102
{ACAD_REACTORS
330
352
102
}
330
352
100
AcDbXrecord
  1

  0
XRECORD
  5
35A
102
{ACAD_REACTORS
330
352
102
}
330
352
100
AcDbXrecord
 90
        1
  0
XRECORD
  5
357
102
{ACAD_REACTORS
330
352
102
}
330
352
100
AcDbXrecord
340
1A
  0
XRECORD
  5
359
102
{ACAD_REACTORS
330
352
102
}
330
352
100
AcDbXrecord
 90
    10269
  0
XRECORD
  5
358
102
{ACAD_REACTORS
330
352
102
}
330
352
100
AcDbXrecord
340
19
  0
XRECORD
  5
35F
102
{ACAD_REACTORS
330
352
102
}
330
352
100
AcDbXrecord
 40
0.0
  0
XRECORD
  5
362
102
{ACAD_REACTORS
330
352
102
}
330
352
100
AcDbXrecord
340
0
  0
XRECORD
  5
368
102
{ACAD_REACTORS
330
352
102
}
330
352
100
AcDbXrecord
 10
0.0
 20
0.0
 30
0.0
  0
XRECORD
  5
364
102
{ACAD_REACTORS
330
352
102
}
330
352
100
AcDbXrecord
 10
0.0
 20
0.0
 30
0.0
  0
XRECORD
  5
367
102
{ACAD_REACTORS
330
352
102
}
330
352
100
AcDbXrecord
 10
0.0
 20
0.0
 30
0.0
  0
XRECORD
  5
365
102
{ACAD_REACTORS
330
352
102
}
330
352
100
AcDbXrecord
 10
0.0
 20
0.0
 30
0.0
  0
XRECORD
  5
366
102
{ACAD_REACTORS
330
352
102
}
330
352
100
AcDbXrecord
 10
0.0
 20
0.0
 30
0.0
  0
XRECORD
  5
363
102
{ACAD_REACTORS
330
352
102
}
330
352
100
AcDbXrecord
 10
0.0
 20
0.0
 30
0.0
  0
XRECORD
  5
360
102
{ACAD_REACTORS
330
352
102
}
330
352
100
AcDbXrecord
340
0
  0
XRECORD
  5
361
102
{ACAD_REACTORS
330
352
102
}
330
352
100
AcDbXrecord
 70
     0
  0
XRECORD
  5
356
102
{ACAD_REACTORS
330
352
102
}
330
352
100
AcDbXrecord
  1

  0
XRECORD
  5
353
102
{ACAD_REACTORS
330
352
102
}
330
352
100
AcDbXrecord
 90
        1
  0
XRECORD
  5
354
102
{ACAD_REACTORS
330
352
102
}
330
352
100
AcDbXrecord
 90
       70
  0
XRECORD
  5
36B
102
{ACAD_REACTORS
330
352
102
}
330
352
100
AcDbXrecord
340
0
  0
XRECORD
  5
371
102
{ACAD_REACTORS
330
352
102
}
330
352
100
AcDbXrecord
 10
0.0
 20
0.0
 30
0.0
  0
XRECORD
  5
36D
102
{ACAD_REACTORS
330
352
102
}
330
352
100
AcDbXrecord
 10
0.0
 20
0.0
 30
0.0
  0
XRECORD
  5
370
102
{ACAD_REACTORS
330
352
102
}
330
352
100
AcDbXrecord
 10
0.0
 20
0.0
 30
0.0
  0
XRECORD
  5
36E
102
{ACAD_REACTORS
330
352
102
}
330
352
100
AcDbXrecord
 10
0.0
 20
0.0
 30
0.0
  0
XRECORD
  5
36F
102
{ACAD_REACTORS
330
352
102
}
330
352
100
AcDbXrecord
 10
0.0
 20
0.0
 30
0.0
  0
XRECORD
  5
36C
102
{ACAD_REACTORS
330
352
102
}
330
352
100
AcDbXrecord
 10
0.0
 20
0.0
 30
0.0
  0
XRECORD
  5
369
102
{ACAD_REACTORS
330
352
102
}
330
352
100
AcDbXrecord
340
0
  0
XRECORD
  5
36A
102
{ACAD_REACTORS
330
352
102
}
330
352
100
AcDbXrecord
 70
     0
  0
XRECORD
  5
35E
102
{ACAD_REACTORS
330
352
102
}
330
352
100
AcDbXrecord
  1
{FAEB1C32-E019-11D5-929B-00C0DF256EC4}
  0
DICTIONARYVAR
  5
37C
102
{ACAD_REACTORS
330
6E
102
}
330
6E
100
DictionaryVariables
280
     0
  1
1:1
  0
DICTIONARYVAR
  5
374
102
{ACAD_REACTORS
330
6E
102
}
330
6E
100
DictionaryVariables
280
     0
  1
Standard
  0
DICTIONARYVAR
  5
373
102
{ACAD_REACTORS
330
6E
102
}
330
6E
100
DictionaryVariables
280
     0
  1
Onshape-Standard
  0
DICTIONARYVAR
  5
377
102
{ACAD_REACTORS
330
6E
102
}
330
6E
100
DictionaryVariables
280
     0
  1
2
  0
DICTIONARYVAR
  5
378
102
{ACAD_REACTORS
330
6E
102
}
330
6E
100
DictionaryVariables
280
     0
  1
1
  0
DICTIONARYVAR
  5
37D
102
{ACAD_REACTORS
330
6E
102
}
330
6E
100
DictionaryVariables
280
     0
  1
1
  0
DICTIONARYVAR
  5
6F
102
{ACAD_REACTORS
330
6E
102
}
330
6E
100
DictionaryVariables
280
     0
  1
0
  0
XRECORD
  5
2F0
102
{ACAD_REACTORS
330
2EE
102
}
330
2EE
100
AcDbXrecord
300
ANSI
  0
XRECORD
  5
2EF
102
{ACAD_REACTORS
330
2EE
102
}
330
2EE
100
AcDbXrecord
 70
     1
  0
ACAD_PROXY_OBJECT
  5
2F1
102
{ACAD_REACTORS
330
2EE
102
}
330
2EE
100
AcDbProxyObject
 90
      499
 91
      510
 93
       34
310
40C8804000
  0
XRECORD
  5
2F4
102
{ACAD_REACTORS
330
2EE
102
}
330
2EE
100
AcDbXrecord
 90
        0
  0
ACAD_PROXY_OBJECT
  5
2FA
102
{ACAD_REACTORS
330
2EE
102
}
330
2EE
100
AcDbProxyObject
 90
      499
 91
      510
 93
       34
310
40C8804040
  0
XRECORD
  5
2FB
102
{ACAD_REACTORS
330
2EE
102
}
330
2EE
100
AcDbXrecord
300
ANSI
  0
XRECORD
  5
2F9
102
{ACAD_REACTORS
330
2EE
102
}
330
2EE
100
AcDbXrecord
 90
        5
  0
XRECORD
  5
2F5
102
{ACAD_REACTORS
330
2EE
102
}
330
2EE
100
AcDbXrecord
 90
        4
  0
XRECORD
  5
2F7
102
{ACAD_REACTORS
330
2EE
102
}
330
2EE
100
AcDbXrecord
 90
        0
  0
ACAD_PROXY_OBJECT
  5
2F8
102
{ACAD_REACTORS
330
2EE
102
}
330
2EE
100
AcDbProxyObject
 90
      499
 91
      510
 93
       34
310
40C8804000
  0
ACAD_PROXY_OBJECT
  5
2F6
102
{ACAD_REACTORS
330
2EE
102
}
330
2EE
100
AcDbProxyObject
 90
      499
 91
      510
 93
       34
310
40C8804040
  0
XRECORD
  5
2F3
102
{ACAD_REACTORS
330
2EE
102
}
330
2EE
100
AcDbXrecord
 90
        0
  0
XRECORD
  5
2F2
102
{ACAD_REACTORS
330
2EE
102
}
330
2EE
100
AcDbXrecord
 90
        0
  0
DICTIONARY
  5
380
330
45
100
AcDbDictionary
280
     1
  3
ACAD_XREC_ROUNDTRIP
360
381
  0
DICTIONARY
  5
37E
330
44
100
AcDbDictionary
280
     1
  3
ACAD_XREC_ROUNDTRIP
360
37F
  0
DICTIONARY
  5
382
330
46
100
AcDbDictionary
280
     1
  3
ACAD_XREC_ROUNDTRIP
360
383
  0
XRECORD
  5
381
102
{ACAD_REACTORS
330
380
102
}
330
380
100
AcDbXrecord
102
MATERIAL
148
0.0
149
0.0
149
0.0
 93
        0
 94
      127
282
     0
 72
     1
 77
     1
171
     1
175
     1
179
     1
273
     0
  0
XRECORD
  5
37F
102
{ACAD_REACTORS
330
37E
102
}
330
37E
100
AcDbXrecord
102
MATERIAL
148
0.0
149
0.0
149
0.0
 93
        0
 94
      127
282
     0
 72
     1
 77
     1
171
     1
175
     1
179
     1
273
     0
  0
XRECORD
  5
383
102
{ACAD_REACTORS
330
382
102
}
330
382
100
AcDbXrecord
102
MATERIAL
148
0.0
149
0.0
149
0.0
 93
        0
 94
      127
282
     0
 72
     1
 77
     1
171
     1
175
     1
179
     1
273
     0
  0
ENDSEC
  0
EOF
